%TF.GenerationSoftware,KiCad,Pcbnew,8.0.7*%
%TF.CreationDate,2024-12-20T19:08:42+02:00*%
%TF.ProjectId,STM32TrialPcb,53544d33-3254-4726-9961-6c5063622e6b,rev?*%
%TF.SameCoordinates,Original*%
%TF.FileFunction,Copper,L2,Bot*%
%TF.FilePolarity,Positive*%
%FSLAX46Y46*%
G04 Gerber Fmt 4.6, Leading zero omitted, Abs format (unit mm)*
G04 Created by KiCad (PCBNEW 8.0.7) date 2024-12-20 19:08:42*
%MOMM*%
%LPD*%
G01*
G04 APERTURE LIST*
%TA.AperFunction,ComponentPad*%
%ADD10O,1.800000X1.150000*%
%TD*%
%TA.AperFunction,ComponentPad*%
%ADD11O,2.000000X1.450000*%
%TD*%
%TA.AperFunction,ComponentPad*%
%ADD12R,1.700000X1.700000*%
%TD*%
%TA.AperFunction,ComponentPad*%
%ADD13O,1.700000X1.700000*%
%TD*%
%TA.AperFunction,ViaPad*%
%ADD14C,0.600000*%
%TD*%
G04 APERTURE END LIST*
D10*
%TO.P,J1,6,Shield*%
%TO.N,unconnected-(J1-Shield-Pad6)_1*%
X228695000Y-50880000D03*
D11*
%TO.N,unconnected-(J1-Shield-Pad6)_2*%
X224895000Y-50730000D03*
%TO.N,unconnected-(J1-Shield-Pad6)_3*%
X224895000Y-43280000D03*
D10*
%TO.N,unconnected-(J1-Shield-Pad6)*%
X228695000Y-43130000D03*
%TD*%
D12*
%TO.P,J2,1,Pin_1*%
%TO.N,+3V3*%
X220200000Y-36500000D03*
D13*
%TO.P,J2,2,Pin_2*%
%TO.N,GND*%
X217660000Y-36500000D03*
%TO.P,J2,3,Pin_3*%
%TO.N,SWDIO*%
X215120000Y-36500000D03*
%TO.P,J2,4,Pin_4*%
%TO.N,SWCLK*%
X212580000Y-36500000D03*
%TO.P,J2,5,Pin_5*%
%TO.N,PA15*%
X210040000Y-36500000D03*
%TO.P,J2,6,Pin_6*%
%TO.N,SWO*%
X207500000Y-36500000D03*
%TO.P,J2,7,Pin_7*%
%TO.N,PB4*%
X204960000Y-36500000D03*
%TO.P,J2,8,Pin_8*%
%TO.N,PB5*%
X202420000Y-36500000D03*
%TO.P,J2,9,Pin_9*%
%TO.N,PB6*%
X199880000Y-36500000D03*
%TO.P,J2,10,Pin_10*%
%TO.N,PB7*%
X197340000Y-36500000D03*
%TO.P,J2,11,Pin_11*%
%TO.N,PB8*%
X194800000Y-36500000D03*
%TO.P,J2,12,Pin_12*%
%TO.N,PB9*%
X192260000Y-36500000D03*
%TO.P,J2,13,Pin_13*%
%TO.N,PC13*%
X189720000Y-36500000D03*
%TO.P,J2,14,Pin_14*%
%TO.N,PC14*%
X187180000Y-36500000D03*
%TO.P,J2,15,Pin_15*%
%TO.N,PC15*%
X184640000Y-36500000D03*
%TD*%
D12*
%TO.P,J3,1,Pin_1*%
%TO.N,+3V3*%
X221120000Y-59500000D03*
D13*
%TO.P,J3,2,Pin_2*%
%TO.N,GND*%
X218580000Y-59500000D03*
%TO.P,J3,3,Pin_3*%
%TO.N,PA10*%
X216040000Y-59500000D03*
%TO.P,J3,4,Pin_4*%
%TO.N,PA9*%
X213500000Y-59500000D03*
%TO.P,J3,5,Pin_5*%
%TO.N,PA8*%
X210960000Y-59500000D03*
%TO.P,J3,6,Pin_6*%
%TO.N,PB11*%
X208420000Y-59500000D03*
%TO.P,J3,7,Pin_7*%
%TO.N,PB10*%
X205880000Y-59500000D03*
%TO.P,J3,8,Pin_8*%
%TO.N,PB2*%
X203340000Y-59500000D03*
%TO.P,J3,9,Pin_9*%
%TO.N,PB1*%
X200800000Y-59500000D03*
%TO.P,J3,10,Pin_10*%
%TO.N,PB0*%
X198260000Y-59500000D03*
%TO.P,J3,11,Pin_11*%
%TO.N,PA7*%
X195720000Y-59500000D03*
%TO.P,J3,12,Pin_12*%
%TO.N,PA6*%
X193180000Y-59500000D03*
%TO.P,J3,13,Pin_13*%
%TO.N,PA5*%
X190640000Y-59500000D03*
%TO.P,J3,14,Pin_14*%
%TO.N,PA4*%
X188100000Y-59500000D03*
%TO.P,J3,15,Pin_15*%
%TO.N,PA3*%
X185560000Y-59500000D03*
%TD*%
D14*
%TO.N,GND*%
X191000000Y-42750000D03*
X219000000Y-52750000D03*
X195750000Y-49250000D03*
X197625000Y-52625000D03*
X196000000Y-52000000D03*
X184000000Y-49250000D03*
X187000000Y-52000000D03*
X185000000Y-47000000D03*
X194392500Y-51412500D03*
X219500000Y-39000000D03*
X202605000Y-43020000D03*
X216500000Y-55500000D03*
X221000000Y-55500000D03*
X222600000Y-45500000D03*
X210500000Y-52500000D03*
X196500000Y-42000000D03*
X216100000Y-40000000D03*
X209000000Y-56500000D03*
X214500000Y-55500000D03*
X218600000Y-57000000D03*
X185000000Y-42000000D03*
X214500000Y-43000000D03*
%TD*%
%TA.AperFunction,Conductor*%
%TO.N,GND*%
G36*
X230442539Y-34020185D02*
G01*
X230488294Y-34072989D01*
X230499500Y-34124500D01*
X230499500Y-62875500D01*
X230479815Y-62942539D01*
X230427011Y-62988294D01*
X230375500Y-62999500D01*
X181124500Y-62999500D01*
X181057461Y-62979815D01*
X181011706Y-62927011D01*
X181000500Y-62875500D01*
X181000500Y-59499999D01*
X184204341Y-59499999D01*
X184204341Y-59500000D01*
X184224936Y-59735403D01*
X184224938Y-59735413D01*
X184286094Y-59963655D01*
X184286096Y-59963659D01*
X184286097Y-59963663D01*
X184366004Y-60135023D01*
X184385965Y-60177830D01*
X184385967Y-60177834D01*
X184494281Y-60332521D01*
X184521505Y-60371401D01*
X184688599Y-60538495D01*
X184785384Y-60606265D01*
X184882165Y-60674032D01*
X184882167Y-60674033D01*
X184882170Y-60674035D01*
X185096337Y-60773903D01*
X185324592Y-60835063D01*
X185501034Y-60850500D01*
X185559999Y-60855659D01*
X185560000Y-60855659D01*
X185560001Y-60855659D01*
X185618966Y-60850500D01*
X185795408Y-60835063D01*
X186023663Y-60773903D01*
X186237830Y-60674035D01*
X186431401Y-60538495D01*
X186598495Y-60371401D01*
X186728425Y-60185842D01*
X186783002Y-60142217D01*
X186852500Y-60135023D01*
X186914855Y-60166546D01*
X186931575Y-60185842D01*
X187061500Y-60371395D01*
X187061505Y-60371401D01*
X187228599Y-60538495D01*
X187325384Y-60606265D01*
X187422165Y-60674032D01*
X187422167Y-60674033D01*
X187422170Y-60674035D01*
X187636337Y-60773903D01*
X187864592Y-60835063D01*
X188041034Y-60850500D01*
X188099999Y-60855659D01*
X188100000Y-60855659D01*
X188100001Y-60855659D01*
X188158966Y-60850500D01*
X188335408Y-60835063D01*
X188563663Y-60773903D01*
X188777830Y-60674035D01*
X188971401Y-60538495D01*
X189138495Y-60371401D01*
X189268425Y-60185842D01*
X189323002Y-60142217D01*
X189392500Y-60135023D01*
X189454855Y-60166546D01*
X189471575Y-60185842D01*
X189601500Y-60371395D01*
X189601505Y-60371401D01*
X189768599Y-60538495D01*
X189865384Y-60606265D01*
X189962165Y-60674032D01*
X189962167Y-60674033D01*
X189962170Y-60674035D01*
X190176337Y-60773903D01*
X190404592Y-60835063D01*
X190581034Y-60850500D01*
X190639999Y-60855659D01*
X190640000Y-60855659D01*
X190640001Y-60855659D01*
X190698966Y-60850500D01*
X190875408Y-60835063D01*
X191103663Y-60773903D01*
X191317830Y-60674035D01*
X191511401Y-60538495D01*
X191678495Y-60371401D01*
X191808425Y-60185842D01*
X191863002Y-60142217D01*
X191932500Y-60135023D01*
X191994855Y-60166546D01*
X192011575Y-60185842D01*
X192141500Y-60371395D01*
X192141505Y-60371401D01*
X192308599Y-60538495D01*
X192405384Y-60606265D01*
X192502165Y-60674032D01*
X192502167Y-60674033D01*
X192502170Y-60674035D01*
X192716337Y-60773903D01*
X192944592Y-60835063D01*
X193121034Y-60850500D01*
X193179999Y-60855659D01*
X193180000Y-60855659D01*
X193180001Y-60855659D01*
X193238966Y-60850500D01*
X193415408Y-60835063D01*
X193643663Y-60773903D01*
X193857830Y-60674035D01*
X194051401Y-60538495D01*
X194218495Y-60371401D01*
X194348425Y-60185842D01*
X194403002Y-60142217D01*
X194472500Y-60135023D01*
X194534855Y-60166546D01*
X194551575Y-60185842D01*
X194681500Y-60371395D01*
X194681505Y-60371401D01*
X194848599Y-60538495D01*
X194945384Y-60606265D01*
X195042165Y-60674032D01*
X195042167Y-60674033D01*
X195042170Y-60674035D01*
X195256337Y-60773903D01*
X195484592Y-60835063D01*
X195661034Y-60850500D01*
X195719999Y-60855659D01*
X195720000Y-60855659D01*
X195720001Y-60855659D01*
X195778966Y-60850500D01*
X195955408Y-60835063D01*
X196183663Y-60773903D01*
X196397830Y-60674035D01*
X196591401Y-60538495D01*
X196758495Y-60371401D01*
X196888425Y-60185842D01*
X196943002Y-60142217D01*
X197012500Y-60135023D01*
X197074855Y-60166546D01*
X197091575Y-60185842D01*
X197221500Y-60371395D01*
X197221505Y-60371401D01*
X197388599Y-60538495D01*
X197485384Y-60606265D01*
X197582165Y-60674032D01*
X197582167Y-60674033D01*
X197582170Y-60674035D01*
X197796337Y-60773903D01*
X198024592Y-60835063D01*
X198201034Y-60850500D01*
X198259999Y-60855659D01*
X198260000Y-60855659D01*
X198260001Y-60855659D01*
X198318966Y-60850500D01*
X198495408Y-60835063D01*
X198723663Y-60773903D01*
X198937830Y-60674035D01*
X199131401Y-60538495D01*
X199298495Y-60371401D01*
X199428425Y-60185842D01*
X199483002Y-60142217D01*
X199552500Y-60135023D01*
X199614855Y-60166546D01*
X199631575Y-60185842D01*
X199761500Y-60371395D01*
X199761505Y-60371401D01*
X199928599Y-60538495D01*
X200025384Y-60606265D01*
X200122165Y-60674032D01*
X200122167Y-60674033D01*
X200122170Y-60674035D01*
X200336337Y-60773903D01*
X200564592Y-60835063D01*
X200741034Y-60850500D01*
X200799999Y-60855659D01*
X200800000Y-60855659D01*
X200800001Y-60855659D01*
X200858966Y-60850500D01*
X201035408Y-60835063D01*
X201263663Y-60773903D01*
X201477830Y-60674035D01*
X201671401Y-60538495D01*
X201838495Y-60371401D01*
X201968425Y-60185842D01*
X202023002Y-60142217D01*
X202092500Y-60135023D01*
X202154855Y-60166546D01*
X202171575Y-60185842D01*
X202301500Y-60371395D01*
X202301505Y-60371401D01*
X202468599Y-60538495D01*
X202565384Y-60606265D01*
X202662165Y-60674032D01*
X202662167Y-60674033D01*
X202662170Y-60674035D01*
X202876337Y-60773903D01*
X203104592Y-60835063D01*
X203281034Y-60850500D01*
X203339999Y-60855659D01*
X203340000Y-60855659D01*
X203340001Y-60855659D01*
X203398966Y-60850500D01*
X203575408Y-60835063D01*
X203803663Y-60773903D01*
X204017830Y-60674035D01*
X204211401Y-60538495D01*
X204378495Y-60371401D01*
X204508425Y-60185842D01*
X204563002Y-60142217D01*
X204632500Y-60135023D01*
X204694855Y-60166546D01*
X204711575Y-60185842D01*
X204841500Y-60371395D01*
X204841505Y-60371401D01*
X205008599Y-60538495D01*
X205105384Y-60606265D01*
X205202165Y-60674032D01*
X205202167Y-60674033D01*
X205202170Y-60674035D01*
X205416337Y-60773903D01*
X205644592Y-60835063D01*
X205821034Y-60850500D01*
X205879999Y-60855659D01*
X205880000Y-60855659D01*
X205880001Y-60855659D01*
X205938966Y-60850500D01*
X206115408Y-60835063D01*
X206343663Y-60773903D01*
X206557830Y-60674035D01*
X206751401Y-60538495D01*
X206918495Y-60371401D01*
X207048425Y-60185842D01*
X207103002Y-60142217D01*
X207172500Y-60135023D01*
X207234855Y-60166546D01*
X207251575Y-60185842D01*
X207381500Y-60371395D01*
X207381505Y-60371401D01*
X207548599Y-60538495D01*
X207645384Y-60606265D01*
X207742165Y-60674032D01*
X207742167Y-60674033D01*
X207742170Y-60674035D01*
X207956337Y-60773903D01*
X208184592Y-60835063D01*
X208361034Y-60850500D01*
X208419999Y-60855659D01*
X208420000Y-60855659D01*
X208420001Y-60855659D01*
X208478966Y-60850500D01*
X208655408Y-60835063D01*
X208883663Y-60773903D01*
X209097830Y-60674035D01*
X209291401Y-60538495D01*
X209458495Y-60371401D01*
X209588425Y-60185842D01*
X209643002Y-60142217D01*
X209712500Y-60135023D01*
X209774855Y-60166546D01*
X209791575Y-60185842D01*
X209921500Y-60371395D01*
X209921505Y-60371401D01*
X210088599Y-60538495D01*
X210185384Y-60606265D01*
X210282165Y-60674032D01*
X210282167Y-60674033D01*
X210282170Y-60674035D01*
X210496337Y-60773903D01*
X210724592Y-60835063D01*
X210901034Y-60850500D01*
X210959999Y-60855659D01*
X210960000Y-60855659D01*
X210960001Y-60855659D01*
X211018966Y-60850500D01*
X211195408Y-60835063D01*
X211423663Y-60773903D01*
X211637830Y-60674035D01*
X211831401Y-60538495D01*
X211998495Y-60371401D01*
X212128425Y-60185842D01*
X212183002Y-60142217D01*
X212252500Y-60135023D01*
X212314855Y-60166546D01*
X212331575Y-60185842D01*
X212461500Y-60371395D01*
X212461505Y-60371401D01*
X212628599Y-60538495D01*
X212725384Y-60606265D01*
X212822165Y-60674032D01*
X212822167Y-60674033D01*
X212822170Y-60674035D01*
X213036337Y-60773903D01*
X213264592Y-60835063D01*
X213441034Y-60850500D01*
X213499999Y-60855659D01*
X213500000Y-60855659D01*
X213500001Y-60855659D01*
X213558966Y-60850500D01*
X213735408Y-60835063D01*
X213963663Y-60773903D01*
X214177830Y-60674035D01*
X214371401Y-60538495D01*
X214538495Y-60371401D01*
X214668425Y-60185842D01*
X214723002Y-60142217D01*
X214792500Y-60135023D01*
X214854855Y-60166546D01*
X214871575Y-60185842D01*
X215001500Y-60371395D01*
X215001505Y-60371401D01*
X215168599Y-60538495D01*
X215265384Y-60606265D01*
X215362165Y-60674032D01*
X215362167Y-60674033D01*
X215362170Y-60674035D01*
X215576337Y-60773903D01*
X215804592Y-60835063D01*
X215981034Y-60850500D01*
X216039999Y-60855659D01*
X216040000Y-60855659D01*
X216040001Y-60855659D01*
X216098966Y-60850500D01*
X216275408Y-60835063D01*
X216503663Y-60773903D01*
X216717830Y-60674035D01*
X216911401Y-60538495D01*
X217078495Y-60371401D01*
X217208730Y-60185405D01*
X217263307Y-60141781D01*
X217332805Y-60134587D01*
X217395160Y-60166110D01*
X217411879Y-60185405D01*
X217541890Y-60371078D01*
X217708917Y-60538105D01*
X217902421Y-60673600D01*
X218116507Y-60773429D01*
X218116516Y-60773433D01*
X218330000Y-60830634D01*
X218330000Y-59933012D01*
X218387007Y-59965925D01*
X218514174Y-60000000D01*
X218645826Y-60000000D01*
X218772993Y-59965925D01*
X218830000Y-59933012D01*
X218830000Y-60830633D01*
X219043483Y-60773433D01*
X219043492Y-60773429D01*
X219257578Y-60673600D01*
X219451078Y-60538108D01*
X219573133Y-60416053D01*
X219634456Y-60382568D01*
X219704148Y-60387552D01*
X219760082Y-60429423D01*
X219776997Y-60460401D01*
X219826202Y-60592328D01*
X219826206Y-60592335D01*
X219912452Y-60707544D01*
X219912455Y-60707547D01*
X220027664Y-60793793D01*
X220027671Y-60793797D01*
X220162517Y-60844091D01*
X220162516Y-60844091D01*
X220169444Y-60844835D01*
X220222127Y-60850500D01*
X222017872Y-60850499D01*
X222077483Y-60844091D01*
X222212331Y-60793796D01*
X222327546Y-60707546D01*
X222413796Y-60592331D01*
X222464091Y-60457483D01*
X222470500Y-60397873D01*
X222470499Y-58602128D01*
X222464091Y-58542517D01*
X222463002Y-58539598D01*
X222413797Y-58407671D01*
X222413793Y-58407664D01*
X222327547Y-58292455D01*
X222327544Y-58292452D01*
X222212335Y-58206206D01*
X222212328Y-58206202D01*
X222077482Y-58155908D01*
X222077483Y-58155908D01*
X222017883Y-58149501D01*
X222017881Y-58149500D01*
X222017873Y-58149500D01*
X222017864Y-58149500D01*
X220222129Y-58149500D01*
X220222123Y-58149501D01*
X220162516Y-58155908D01*
X220027671Y-58206202D01*
X220027664Y-58206206D01*
X219912455Y-58292452D01*
X219912452Y-58292455D01*
X219826206Y-58407664D01*
X219826202Y-58407671D01*
X219776997Y-58539598D01*
X219735126Y-58595532D01*
X219669661Y-58619949D01*
X219601388Y-58605097D01*
X219573134Y-58583946D01*
X219451082Y-58461894D01*
X219257578Y-58326399D01*
X219043492Y-58226570D01*
X219043486Y-58226567D01*
X218830000Y-58169364D01*
X218830000Y-59066988D01*
X218772993Y-59034075D01*
X218645826Y-59000000D01*
X218514174Y-59000000D01*
X218387007Y-59034075D01*
X218330000Y-59066988D01*
X218330000Y-58169364D01*
X218329999Y-58169364D01*
X218116513Y-58226567D01*
X218116507Y-58226570D01*
X217902422Y-58326399D01*
X217902420Y-58326400D01*
X217708926Y-58461886D01*
X217708920Y-58461891D01*
X217541891Y-58628920D01*
X217541890Y-58628922D01*
X217411880Y-58814595D01*
X217357303Y-58858219D01*
X217287804Y-58865412D01*
X217225450Y-58833890D01*
X217208730Y-58814594D01*
X217078494Y-58628597D01*
X216911402Y-58461506D01*
X216911395Y-58461501D01*
X216717834Y-58325967D01*
X216717830Y-58325965D01*
X216717828Y-58325964D01*
X216503663Y-58226097D01*
X216503659Y-58226096D01*
X216503655Y-58226094D01*
X216275413Y-58164938D01*
X216275403Y-58164936D01*
X216040001Y-58144341D01*
X216039999Y-58144341D01*
X215804596Y-58164936D01*
X215804586Y-58164938D01*
X215576344Y-58226094D01*
X215576335Y-58226098D01*
X215362171Y-58325964D01*
X215362169Y-58325965D01*
X215168597Y-58461505D01*
X215001505Y-58628597D01*
X214871575Y-58814158D01*
X214816998Y-58857783D01*
X214747500Y-58864977D01*
X214685145Y-58833454D01*
X214668425Y-58814158D01*
X214538494Y-58628597D01*
X214371402Y-58461506D01*
X214371395Y-58461501D01*
X214177834Y-58325967D01*
X214177830Y-58325965D01*
X214177828Y-58325964D01*
X213963663Y-58226097D01*
X213963659Y-58226096D01*
X213963655Y-58226094D01*
X213735413Y-58164938D01*
X213735403Y-58164936D01*
X213500001Y-58144341D01*
X213499999Y-58144341D01*
X213264596Y-58164936D01*
X213264586Y-58164938D01*
X213036344Y-58226094D01*
X213036335Y-58226098D01*
X212822171Y-58325964D01*
X212822169Y-58325965D01*
X212628597Y-58461505D01*
X212461505Y-58628597D01*
X212331575Y-58814158D01*
X212276998Y-58857783D01*
X212207500Y-58864977D01*
X212145145Y-58833454D01*
X212128425Y-58814158D01*
X211998494Y-58628597D01*
X211831402Y-58461506D01*
X211831395Y-58461501D01*
X211637834Y-58325967D01*
X211637830Y-58325965D01*
X211637828Y-58325964D01*
X211423663Y-58226097D01*
X211423659Y-58226096D01*
X211423655Y-58226094D01*
X211195413Y-58164938D01*
X211195403Y-58164936D01*
X210960001Y-58144341D01*
X210959999Y-58144341D01*
X210724596Y-58164936D01*
X210724586Y-58164938D01*
X210496344Y-58226094D01*
X210496335Y-58226098D01*
X210282171Y-58325964D01*
X210282169Y-58325965D01*
X210088597Y-58461505D01*
X209921505Y-58628597D01*
X209791575Y-58814158D01*
X209736998Y-58857783D01*
X209667500Y-58864977D01*
X209605145Y-58833454D01*
X209588425Y-58814158D01*
X209458494Y-58628597D01*
X209291402Y-58461506D01*
X209291395Y-58461501D01*
X209097834Y-58325967D01*
X209097830Y-58325965D01*
X209097828Y-58325964D01*
X208883663Y-58226097D01*
X208883659Y-58226096D01*
X208883655Y-58226094D01*
X208655413Y-58164938D01*
X208655403Y-58164936D01*
X208420001Y-58144341D01*
X208419999Y-58144341D01*
X208184596Y-58164936D01*
X208184586Y-58164938D01*
X207956344Y-58226094D01*
X207956335Y-58226098D01*
X207742171Y-58325964D01*
X207742169Y-58325965D01*
X207548597Y-58461505D01*
X207381505Y-58628597D01*
X207251575Y-58814158D01*
X207196998Y-58857783D01*
X207127500Y-58864977D01*
X207065145Y-58833454D01*
X207048425Y-58814158D01*
X206918494Y-58628597D01*
X206751402Y-58461506D01*
X206751395Y-58461501D01*
X206557834Y-58325967D01*
X206557830Y-58325965D01*
X206557828Y-58325964D01*
X206343663Y-58226097D01*
X206343659Y-58226096D01*
X206343655Y-58226094D01*
X206115413Y-58164938D01*
X206115403Y-58164936D01*
X205880001Y-58144341D01*
X205879999Y-58144341D01*
X205644596Y-58164936D01*
X205644586Y-58164938D01*
X205416344Y-58226094D01*
X205416335Y-58226098D01*
X205202171Y-58325964D01*
X205202169Y-58325965D01*
X205008597Y-58461505D01*
X204841505Y-58628597D01*
X204711575Y-58814158D01*
X204656998Y-58857783D01*
X204587500Y-58864977D01*
X204525145Y-58833454D01*
X204508425Y-58814158D01*
X204378494Y-58628597D01*
X204211402Y-58461506D01*
X204211395Y-58461501D01*
X204017834Y-58325967D01*
X204017830Y-58325965D01*
X204017828Y-58325964D01*
X203803663Y-58226097D01*
X203803659Y-58226096D01*
X203803655Y-58226094D01*
X203575413Y-58164938D01*
X203575403Y-58164936D01*
X203340001Y-58144341D01*
X203339999Y-58144341D01*
X203104596Y-58164936D01*
X203104586Y-58164938D01*
X202876344Y-58226094D01*
X202876335Y-58226098D01*
X202662171Y-58325964D01*
X202662169Y-58325965D01*
X202468597Y-58461505D01*
X202301505Y-58628597D01*
X202171575Y-58814158D01*
X202116998Y-58857783D01*
X202047500Y-58864977D01*
X201985145Y-58833454D01*
X201968425Y-58814158D01*
X201838494Y-58628597D01*
X201671402Y-58461506D01*
X201671395Y-58461501D01*
X201477834Y-58325967D01*
X201477830Y-58325965D01*
X201477828Y-58325964D01*
X201263663Y-58226097D01*
X201263659Y-58226096D01*
X201263655Y-58226094D01*
X201035413Y-58164938D01*
X201035403Y-58164936D01*
X200800001Y-58144341D01*
X200799999Y-58144341D01*
X200564596Y-58164936D01*
X200564586Y-58164938D01*
X200336344Y-58226094D01*
X200336335Y-58226098D01*
X200122171Y-58325964D01*
X200122169Y-58325965D01*
X199928597Y-58461505D01*
X199761505Y-58628597D01*
X199631575Y-58814158D01*
X199576998Y-58857783D01*
X199507500Y-58864977D01*
X199445145Y-58833454D01*
X199428425Y-58814158D01*
X199298494Y-58628597D01*
X199131402Y-58461506D01*
X199131395Y-58461501D01*
X198937834Y-58325967D01*
X198937830Y-58325965D01*
X198937828Y-58325964D01*
X198723663Y-58226097D01*
X198723659Y-58226096D01*
X198723655Y-58226094D01*
X198495413Y-58164938D01*
X198495403Y-58164936D01*
X198260001Y-58144341D01*
X198259999Y-58144341D01*
X198024596Y-58164936D01*
X198024586Y-58164938D01*
X197796344Y-58226094D01*
X197796335Y-58226098D01*
X197582171Y-58325964D01*
X197582169Y-58325965D01*
X197388597Y-58461505D01*
X197221505Y-58628597D01*
X197091575Y-58814158D01*
X197036998Y-58857783D01*
X196967500Y-58864977D01*
X196905145Y-58833454D01*
X196888425Y-58814158D01*
X196758494Y-58628597D01*
X196591402Y-58461506D01*
X196591395Y-58461501D01*
X196397834Y-58325967D01*
X196397830Y-58325965D01*
X196397828Y-58325964D01*
X196183663Y-58226097D01*
X196183659Y-58226096D01*
X196183655Y-58226094D01*
X195955413Y-58164938D01*
X195955403Y-58164936D01*
X195720001Y-58144341D01*
X195719999Y-58144341D01*
X195484596Y-58164936D01*
X195484586Y-58164938D01*
X195256344Y-58226094D01*
X195256335Y-58226098D01*
X195042171Y-58325964D01*
X195042169Y-58325965D01*
X194848597Y-58461505D01*
X194681505Y-58628597D01*
X194551575Y-58814158D01*
X194496998Y-58857783D01*
X194427500Y-58864977D01*
X194365145Y-58833454D01*
X194348425Y-58814158D01*
X194218494Y-58628597D01*
X194051402Y-58461506D01*
X194051395Y-58461501D01*
X193857834Y-58325967D01*
X193857830Y-58325965D01*
X193857828Y-58325964D01*
X193643663Y-58226097D01*
X193643659Y-58226096D01*
X193643655Y-58226094D01*
X193415413Y-58164938D01*
X193415403Y-58164936D01*
X193180001Y-58144341D01*
X193179999Y-58144341D01*
X192944596Y-58164936D01*
X192944586Y-58164938D01*
X192716344Y-58226094D01*
X192716335Y-58226098D01*
X192502171Y-58325964D01*
X192502169Y-58325965D01*
X192308597Y-58461505D01*
X192141505Y-58628597D01*
X192011575Y-58814158D01*
X191956998Y-58857783D01*
X191887500Y-58864977D01*
X191825145Y-58833454D01*
X191808425Y-58814158D01*
X191678494Y-58628597D01*
X191511402Y-58461506D01*
X191511395Y-58461501D01*
X191317834Y-58325967D01*
X191317830Y-58325965D01*
X191317828Y-58325964D01*
X191103663Y-58226097D01*
X191103659Y-58226096D01*
X191103655Y-58226094D01*
X190875413Y-58164938D01*
X190875403Y-58164936D01*
X190640001Y-58144341D01*
X190639999Y-58144341D01*
X190404596Y-58164936D01*
X190404586Y-58164938D01*
X190176344Y-58226094D01*
X190176335Y-58226098D01*
X189962171Y-58325964D01*
X189962169Y-58325965D01*
X189768597Y-58461505D01*
X189601505Y-58628597D01*
X189471575Y-58814158D01*
X189416998Y-58857783D01*
X189347500Y-58864977D01*
X189285145Y-58833454D01*
X189268425Y-58814158D01*
X189138494Y-58628597D01*
X188971402Y-58461506D01*
X188971395Y-58461501D01*
X188777834Y-58325967D01*
X188777830Y-58325965D01*
X188777828Y-58325964D01*
X188563663Y-58226097D01*
X188563659Y-58226096D01*
X188563655Y-58226094D01*
X188335413Y-58164938D01*
X188335403Y-58164936D01*
X188100001Y-58144341D01*
X188099999Y-58144341D01*
X187864596Y-58164936D01*
X187864586Y-58164938D01*
X187636344Y-58226094D01*
X187636335Y-58226098D01*
X187422171Y-58325964D01*
X187422169Y-58325965D01*
X187228597Y-58461505D01*
X187061505Y-58628597D01*
X186931575Y-58814158D01*
X186876998Y-58857783D01*
X186807500Y-58864977D01*
X186745145Y-58833454D01*
X186728425Y-58814158D01*
X186598494Y-58628597D01*
X186431402Y-58461506D01*
X186431395Y-58461501D01*
X186237834Y-58325967D01*
X186237830Y-58325965D01*
X186237828Y-58325964D01*
X186023663Y-58226097D01*
X186023659Y-58226096D01*
X186023655Y-58226094D01*
X185795413Y-58164938D01*
X185795403Y-58164936D01*
X185560001Y-58144341D01*
X185559999Y-58144341D01*
X185324596Y-58164936D01*
X185324586Y-58164938D01*
X185096344Y-58226094D01*
X185096335Y-58226098D01*
X184882171Y-58325964D01*
X184882169Y-58325965D01*
X184688597Y-58461505D01*
X184521505Y-58628597D01*
X184385965Y-58822169D01*
X184385964Y-58822171D01*
X184286098Y-59036335D01*
X184286094Y-59036344D01*
X184224938Y-59264586D01*
X184224936Y-59264596D01*
X184204341Y-59499999D01*
X181000500Y-59499999D01*
X181000500Y-50633551D01*
X223394500Y-50633551D01*
X223394500Y-50826448D01*
X223424675Y-51016969D01*
X223424676Y-51016972D01*
X223484285Y-51200429D01*
X223571859Y-51372302D01*
X223685241Y-51528359D01*
X223821641Y-51664759D01*
X223977698Y-51778141D01*
X224149571Y-51865715D01*
X224333028Y-51925324D01*
X224523551Y-51955500D01*
X224523552Y-51955500D01*
X225266448Y-51955500D01*
X225266449Y-51955500D01*
X225456972Y-51925324D01*
X225640429Y-51865715D01*
X225812302Y-51778141D01*
X225968359Y-51664759D01*
X226104759Y-51528359D01*
X226218141Y-51372302D01*
X226305715Y-51200429D01*
X226365324Y-51016972D01*
X226395500Y-50826449D01*
X226395500Y-50795350D01*
X227294500Y-50795350D01*
X227294500Y-50964649D01*
X227320981Y-51131847D01*
X227373296Y-51292853D01*
X227450152Y-51443688D01*
X227549648Y-51580634D01*
X227549652Y-51580639D01*
X227669360Y-51700347D01*
X227669365Y-51700351D01*
X227776434Y-51778140D01*
X227806315Y-51799850D01*
X227902425Y-51848820D01*
X227957146Y-51876703D01*
X227957148Y-51876703D01*
X227957151Y-51876705D01*
X228043450Y-51904745D01*
X228118152Y-51929018D01*
X228285351Y-51955500D01*
X228285356Y-51955500D01*
X229104649Y-51955500D01*
X229271847Y-51929018D01*
X229283216Y-51925324D01*
X229432849Y-51876705D01*
X229583685Y-51799850D01*
X229720641Y-51700346D01*
X229840346Y-51580641D01*
X229939850Y-51443685D01*
X230016705Y-51292849D01*
X230069018Y-51131847D01*
X230095500Y-50964649D01*
X230095500Y-50795350D01*
X230069018Y-50628152D01*
X230016703Y-50467146D01*
X229988820Y-50412425D01*
X229939850Y-50316315D01*
X229898621Y-50259568D01*
X229840351Y-50179365D01*
X229840347Y-50179360D01*
X229720639Y-50059652D01*
X229720634Y-50059648D01*
X229583688Y-49960152D01*
X229583687Y-49960151D01*
X229583685Y-49960150D01*
X229527727Y-49931638D01*
X229432853Y-49883296D01*
X229271847Y-49830981D01*
X229104649Y-49804500D01*
X229104644Y-49804500D01*
X228285356Y-49804500D01*
X228285351Y-49804500D01*
X228118152Y-49830981D01*
X227957146Y-49883296D01*
X227806311Y-49960152D01*
X227669365Y-50059648D01*
X227669360Y-50059652D01*
X227549652Y-50179360D01*
X227549648Y-50179365D01*
X227450152Y-50316311D01*
X227373296Y-50467146D01*
X227320981Y-50628152D01*
X227294500Y-50795350D01*
X226395500Y-50795350D01*
X226395500Y-50633551D01*
X226365324Y-50443028D01*
X226358902Y-50423266D01*
X226356908Y-50353428D01*
X226392988Y-50293595D01*
X226403941Y-50284637D01*
X226550871Y-50177888D01*
X226677533Y-50037216D01*
X226772179Y-49873284D01*
X226830674Y-49693256D01*
X226850460Y-49505000D01*
X226830674Y-49316744D01*
X226772179Y-49136716D01*
X226677533Y-48972784D01*
X226550871Y-48832112D01*
X226550870Y-48832111D01*
X226397734Y-48720851D01*
X226397729Y-48720848D01*
X226224807Y-48643857D01*
X226224802Y-48643855D01*
X226079001Y-48612865D01*
X226039646Y-48604500D01*
X225850354Y-48604500D01*
X225817897Y-48611398D01*
X225665197Y-48643855D01*
X225665192Y-48643857D01*
X225492270Y-48720848D01*
X225492265Y-48720851D01*
X225339129Y-48832111D01*
X225212466Y-48972785D01*
X225117821Y-49136715D01*
X225117818Y-49136722D01*
X225059325Y-49316745D01*
X225051263Y-49393461D01*
X225024679Y-49458075D01*
X224967382Y-49498061D01*
X224927942Y-49504500D01*
X224523551Y-49504500D01*
X224487697Y-49510178D01*
X224333030Y-49534675D01*
X224149568Y-49594286D01*
X223977697Y-49681859D01*
X223888661Y-49746547D01*
X223821641Y-49795241D01*
X223821639Y-49795243D01*
X223821638Y-49795243D01*
X223685243Y-49931638D01*
X223685243Y-49931639D01*
X223685241Y-49931641D01*
X223664528Y-49960150D01*
X223571859Y-50087697D01*
X223484286Y-50259568D01*
X223424675Y-50443030D01*
X223394500Y-50633551D01*
X181000500Y-50633551D01*
X181000500Y-43183551D01*
X223394500Y-43183551D01*
X223394500Y-43376448D01*
X223424675Y-43566969D01*
X223424676Y-43566972D01*
X223484285Y-43750429D01*
X223571859Y-43922302D01*
X223685241Y-44078359D01*
X223821641Y-44214759D01*
X223977698Y-44328141D01*
X224149571Y-44415715D01*
X224333028Y-44475324D01*
X224523551Y-44505500D01*
X224927942Y-44505500D01*
X224994981Y-44525185D01*
X225040736Y-44577989D01*
X225051263Y-44616539D01*
X225059325Y-44693254D01*
X225117818Y-44873277D01*
X225117821Y-44873284D01*
X225212467Y-45037216D01*
X225339129Y-45177888D01*
X225492265Y-45289148D01*
X225492270Y-45289151D01*
X225665192Y-45366142D01*
X225665197Y-45366144D01*
X225850354Y-45405500D01*
X225850355Y-45405500D01*
X226039644Y-45405500D01*
X226039646Y-45405500D01*
X226224803Y-45366144D01*
X226397730Y-45289151D01*
X226550871Y-45177888D01*
X226677533Y-45037216D01*
X226772179Y-44873284D01*
X226830674Y-44693256D01*
X226850460Y-44505000D01*
X226830674Y-44316744D01*
X226772179Y-44136716D01*
X226677533Y-43972784D01*
X226550871Y-43832112D01*
X226550870Y-43832111D01*
X226403949Y-43725367D01*
X226361283Y-43670037D01*
X226355304Y-43600424D01*
X226358900Y-43586739D01*
X226365324Y-43566972D01*
X226395500Y-43376449D01*
X226395500Y-43183551D01*
X226373611Y-43045350D01*
X227294500Y-43045350D01*
X227294500Y-43214649D01*
X227320981Y-43381847D01*
X227373296Y-43542853D01*
X227450152Y-43693688D01*
X227549648Y-43830634D01*
X227549652Y-43830639D01*
X227669360Y-43950347D01*
X227669365Y-43950351D01*
X227788817Y-44037137D01*
X227806315Y-44049850D01*
X227902425Y-44098820D01*
X227957146Y-44126703D01*
X227957148Y-44126703D01*
X227957151Y-44126705D01*
X228043450Y-44154745D01*
X228118152Y-44179018D01*
X228285351Y-44205500D01*
X228285356Y-44205500D01*
X229104649Y-44205500D01*
X229271847Y-44179018D01*
X229432849Y-44126705D01*
X229583685Y-44049850D01*
X229720641Y-43950346D01*
X229840346Y-43830641D01*
X229939850Y-43693685D01*
X230016705Y-43542849D01*
X230069018Y-43381847D01*
X230069873Y-43376448D01*
X230095500Y-43214649D01*
X230095500Y-43045350D01*
X230069018Y-42878152D01*
X230016703Y-42717146D01*
X229988820Y-42662425D01*
X229939850Y-42566315D01*
X229878329Y-42481638D01*
X229840351Y-42429365D01*
X229840347Y-42429360D01*
X229720639Y-42309652D01*
X229720634Y-42309648D01*
X229583688Y-42210152D01*
X229583687Y-42210151D01*
X229583685Y-42210150D01*
X229536582Y-42186150D01*
X229432853Y-42133296D01*
X229271847Y-42080981D01*
X229104649Y-42054500D01*
X229104644Y-42054500D01*
X228285356Y-42054500D01*
X228285351Y-42054500D01*
X228118152Y-42080981D01*
X227957146Y-42133296D01*
X227806311Y-42210152D01*
X227669365Y-42309648D01*
X227669360Y-42309652D01*
X227549652Y-42429360D01*
X227549648Y-42429365D01*
X227450152Y-42566311D01*
X227373296Y-42717146D01*
X227320981Y-42878152D01*
X227294500Y-43045350D01*
X226373611Y-43045350D01*
X226365324Y-42993028D01*
X226305715Y-42809571D01*
X226218141Y-42637698D01*
X226104759Y-42481641D01*
X225968359Y-42345241D01*
X225812302Y-42231859D01*
X225640429Y-42144285D01*
X225456972Y-42084676D01*
X225456970Y-42084675D01*
X225456969Y-42084675D01*
X225310614Y-42061495D01*
X225266449Y-42054500D01*
X224523551Y-42054500D01*
X224487697Y-42060178D01*
X224333030Y-42084675D01*
X224149568Y-42144286D01*
X223977697Y-42231859D01*
X223888661Y-42296547D01*
X223821641Y-42345241D01*
X223821639Y-42345243D01*
X223821638Y-42345243D01*
X223685243Y-42481638D01*
X223685243Y-42481639D01*
X223685241Y-42481641D01*
X223636547Y-42548661D01*
X223571859Y-42637697D01*
X223484286Y-42809568D01*
X223424675Y-42993030D01*
X223394500Y-43183551D01*
X181000500Y-43183551D01*
X181000500Y-36499999D01*
X183284341Y-36499999D01*
X183284341Y-36500000D01*
X183304936Y-36735403D01*
X183304938Y-36735413D01*
X183366094Y-36963655D01*
X183366096Y-36963659D01*
X183366097Y-36963663D01*
X183446004Y-37135023D01*
X183465965Y-37177830D01*
X183465967Y-37177834D01*
X183574281Y-37332521D01*
X183601505Y-37371401D01*
X183768599Y-37538495D01*
X183865384Y-37606265D01*
X183962165Y-37674032D01*
X183962167Y-37674033D01*
X183962170Y-37674035D01*
X184176337Y-37773903D01*
X184404592Y-37835063D01*
X184581034Y-37850500D01*
X184639999Y-37855659D01*
X184640000Y-37855659D01*
X184640001Y-37855659D01*
X184698966Y-37850500D01*
X184875408Y-37835063D01*
X185103663Y-37773903D01*
X185317830Y-37674035D01*
X185511401Y-37538495D01*
X185678495Y-37371401D01*
X185808425Y-37185842D01*
X185863002Y-37142217D01*
X185932500Y-37135023D01*
X185994855Y-37166546D01*
X186011575Y-37185842D01*
X186141500Y-37371395D01*
X186141505Y-37371401D01*
X186308599Y-37538495D01*
X186405384Y-37606265D01*
X186502165Y-37674032D01*
X186502167Y-37674033D01*
X186502170Y-37674035D01*
X186716337Y-37773903D01*
X186944592Y-37835063D01*
X187121034Y-37850500D01*
X187179999Y-37855659D01*
X187180000Y-37855659D01*
X187180001Y-37855659D01*
X187238966Y-37850500D01*
X187415408Y-37835063D01*
X187643663Y-37773903D01*
X187857830Y-37674035D01*
X188051401Y-37538495D01*
X188218495Y-37371401D01*
X188348425Y-37185842D01*
X188403002Y-37142217D01*
X188472500Y-37135023D01*
X188534855Y-37166546D01*
X188551575Y-37185842D01*
X188681500Y-37371395D01*
X188681505Y-37371401D01*
X188848599Y-37538495D01*
X188945384Y-37606265D01*
X189042165Y-37674032D01*
X189042167Y-37674033D01*
X189042170Y-37674035D01*
X189256337Y-37773903D01*
X189484592Y-37835063D01*
X189661034Y-37850500D01*
X189719999Y-37855659D01*
X189720000Y-37855659D01*
X189720001Y-37855659D01*
X189778966Y-37850500D01*
X189955408Y-37835063D01*
X190183663Y-37773903D01*
X190397830Y-37674035D01*
X190591401Y-37538495D01*
X190758495Y-37371401D01*
X190888425Y-37185842D01*
X190943002Y-37142217D01*
X191012500Y-37135023D01*
X191074855Y-37166546D01*
X191091575Y-37185842D01*
X191221500Y-37371395D01*
X191221505Y-37371401D01*
X191388599Y-37538495D01*
X191485384Y-37606265D01*
X191582165Y-37674032D01*
X191582167Y-37674033D01*
X191582170Y-37674035D01*
X191796337Y-37773903D01*
X192024592Y-37835063D01*
X192201034Y-37850500D01*
X192259999Y-37855659D01*
X192260000Y-37855659D01*
X192260001Y-37855659D01*
X192318966Y-37850500D01*
X192495408Y-37835063D01*
X192723663Y-37773903D01*
X192937830Y-37674035D01*
X193131401Y-37538495D01*
X193298495Y-37371401D01*
X193428425Y-37185842D01*
X193483002Y-37142217D01*
X193552500Y-37135023D01*
X193614855Y-37166546D01*
X193631575Y-37185842D01*
X193761500Y-37371395D01*
X193761505Y-37371401D01*
X193928599Y-37538495D01*
X194025384Y-37606265D01*
X194122165Y-37674032D01*
X194122167Y-37674033D01*
X194122170Y-37674035D01*
X194336337Y-37773903D01*
X194564592Y-37835063D01*
X194741034Y-37850500D01*
X194799999Y-37855659D01*
X194800000Y-37855659D01*
X194800001Y-37855659D01*
X194858966Y-37850500D01*
X195035408Y-37835063D01*
X195263663Y-37773903D01*
X195477830Y-37674035D01*
X195671401Y-37538495D01*
X195838495Y-37371401D01*
X195968425Y-37185842D01*
X196023002Y-37142217D01*
X196092500Y-37135023D01*
X196154855Y-37166546D01*
X196171575Y-37185842D01*
X196301500Y-37371395D01*
X196301505Y-37371401D01*
X196468599Y-37538495D01*
X196565384Y-37606265D01*
X196662165Y-37674032D01*
X196662167Y-37674033D01*
X196662170Y-37674035D01*
X196876337Y-37773903D01*
X197104592Y-37835063D01*
X197281034Y-37850500D01*
X197339999Y-37855659D01*
X197340000Y-37855659D01*
X197340001Y-37855659D01*
X197398966Y-37850500D01*
X197575408Y-37835063D01*
X197803663Y-37773903D01*
X198017830Y-37674035D01*
X198211401Y-37538495D01*
X198378495Y-37371401D01*
X198508425Y-37185842D01*
X198563002Y-37142217D01*
X198632500Y-37135023D01*
X198694855Y-37166546D01*
X198711575Y-37185842D01*
X198841500Y-37371395D01*
X198841505Y-37371401D01*
X199008599Y-37538495D01*
X199105384Y-37606265D01*
X199202165Y-37674032D01*
X199202167Y-37674033D01*
X199202170Y-37674035D01*
X199416337Y-37773903D01*
X199644592Y-37835063D01*
X199821034Y-37850500D01*
X199879999Y-37855659D01*
X199880000Y-37855659D01*
X199880001Y-37855659D01*
X199938966Y-37850500D01*
X200115408Y-37835063D01*
X200343663Y-37773903D01*
X200557830Y-37674035D01*
X200751401Y-37538495D01*
X200918495Y-37371401D01*
X201048425Y-37185842D01*
X201103002Y-37142217D01*
X201172500Y-37135023D01*
X201234855Y-37166546D01*
X201251575Y-37185842D01*
X201381500Y-37371395D01*
X201381505Y-37371401D01*
X201548599Y-37538495D01*
X201645384Y-37606265D01*
X201742165Y-37674032D01*
X201742167Y-37674033D01*
X201742170Y-37674035D01*
X201956337Y-37773903D01*
X202184592Y-37835063D01*
X202361034Y-37850500D01*
X202419999Y-37855659D01*
X202420000Y-37855659D01*
X202420001Y-37855659D01*
X202478966Y-37850500D01*
X202655408Y-37835063D01*
X202883663Y-37773903D01*
X203097830Y-37674035D01*
X203291401Y-37538495D01*
X203458495Y-37371401D01*
X203588425Y-37185842D01*
X203643002Y-37142217D01*
X203712500Y-37135023D01*
X203774855Y-37166546D01*
X203791575Y-37185842D01*
X203921500Y-37371395D01*
X203921505Y-37371401D01*
X204088599Y-37538495D01*
X204185384Y-37606265D01*
X204282165Y-37674032D01*
X204282167Y-37674033D01*
X204282170Y-37674035D01*
X204496337Y-37773903D01*
X204724592Y-37835063D01*
X204901034Y-37850500D01*
X204959999Y-37855659D01*
X204960000Y-37855659D01*
X204960001Y-37855659D01*
X205018966Y-37850500D01*
X205195408Y-37835063D01*
X205423663Y-37773903D01*
X205637830Y-37674035D01*
X205831401Y-37538495D01*
X205998495Y-37371401D01*
X206128425Y-37185842D01*
X206183002Y-37142217D01*
X206252500Y-37135023D01*
X206314855Y-37166546D01*
X206331575Y-37185842D01*
X206461500Y-37371395D01*
X206461505Y-37371401D01*
X206628599Y-37538495D01*
X206725384Y-37606265D01*
X206822165Y-37674032D01*
X206822167Y-37674033D01*
X206822170Y-37674035D01*
X207036337Y-37773903D01*
X207264592Y-37835063D01*
X207441034Y-37850500D01*
X207499999Y-37855659D01*
X207500000Y-37855659D01*
X207500001Y-37855659D01*
X207558966Y-37850500D01*
X207735408Y-37835063D01*
X207963663Y-37773903D01*
X208177830Y-37674035D01*
X208371401Y-37538495D01*
X208538495Y-37371401D01*
X208668425Y-37185842D01*
X208723002Y-37142217D01*
X208792500Y-37135023D01*
X208854855Y-37166546D01*
X208871575Y-37185842D01*
X209001500Y-37371395D01*
X209001505Y-37371401D01*
X209168599Y-37538495D01*
X209265384Y-37606265D01*
X209362165Y-37674032D01*
X209362167Y-37674033D01*
X209362170Y-37674035D01*
X209576337Y-37773903D01*
X209804592Y-37835063D01*
X209981034Y-37850500D01*
X210039999Y-37855659D01*
X210040000Y-37855659D01*
X210040001Y-37855659D01*
X210098966Y-37850500D01*
X210275408Y-37835063D01*
X210503663Y-37773903D01*
X210717830Y-37674035D01*
X210911401Y-37538495D01*
X211078495Y-37371401D01*
X211208425Y-37185842D01*
X211263002Y-37142217D01*
X211332500Y-37135023D01*
X211394855Y-37166546D01*
X211411575Y-37185842D01*
X211541500Y-37371395D01*
X211541505Y-37371401D01*
X211708599Y-37538495D01*
X211805384Y-37606265D01*
X211902165Y-37674032D01*
X211902167Y-37674033D01*
X211902170Y-37674035D01*
X212116337Y-37773903D01*
X212344592Y-37835063D01*
X212521034Y-37850500D01*
X212579999Y-37855659D01*
X212580000Y-37855659D01*
X212580001Y-37855659D01*
X212638966Y-37850500D01*
X212815408Y-37835063D01*
X213043663Y-37773903D01*
X213257830Y-37674035D01*
X213451401Y-37538495D01*
X213618495Y-37371401D01*
X213748425Y-37185842D01*
X213803002Y-37142217D01*
X213872500Y-37135023D01*
X213934855Y-37166546D01*
X213951575Y-37185842D01*
X214081500Y-37371395D01*
X214081505Y-37371401D01*
X214248599Y-37538495D01*
X214345384Y-37606265D01*
X214442165Y-37674032D01*
X214442167Y-37674033D01*
X214442170Y-37674035D01*
X214656337Y-37773903D01*
X214884592Y-37835063D01*
X215061034Y-37850500D01*
X215119999Y-37855659D01*
X215120000Y-37855659D01*
X215120001Y-37855659D01*
X215178966Y-37850500D01*
X215355408Y-37835063D01*
X215583663Y-37773903D01*
X215797830Y-37674035D01*
X215991401Y-37538495D01*
X216158495Y-37371401D01*
X216288730Y-37185405D01*
X216343307Y-37141781D01*
X216412805Y-37134587D01*
X216475160Y-37166110D01*
X216491879Y-37185405D01*
X216621890Y-37371078D01*
X216788917Y-37538105D01*
X216982421Y-37673600D01*
X217196507Y-37773429D01*
X217196516Y-37773433D01*
X217410000Y-37830634D01*
X217410000Y-36933012D01*
X217467007Y-36965925D01*
X217594174Y-37000000D01*
X217725826Y-37000000D01*
X217852993Y-36965925D01*
X217910000Y-36933012D01*
X217910000Y-37830633D01*
X218123483Y-37773433D01*
X218123492Y-37773429D01*
X218337578Y-37673600D01*
X218531078Y-37538108D01*
X218653133Y-37416053D01*
X218714456Y-37382568D01*
X218784148Y-37387552D01*
X218840082Y-37429423D01*
X218856997Y-37460401D01*
X218906202Y-37592328D01*
X218906206Y-37592335D01*
X218992452Y-37707544D01*
X218992455Y-37707547D01*
X219107664Y-37793793D01*
X219107671Y-37793797D01*
X219242517Y-37844091D01*
X219242516Y-37844091D01*
X219249444Y-37844835D01*
X219302127Y-37850500D01*
X221097872Y-37850499D01*
X221157483Y-37844091D01*
X221292331Y-37793796D01*
X221407546Y-37707546D01*
X221493796Y-37592331D01*
X221544091Y-37457483D01*
X221550500Y-37397873D01*
X221550499Y-35602128D01*
X221544091Y-35542517D01*
X221543002Y-35539598D01*
X221493797Y-35407671D01*
X221493793Y-35407664D01*
X221407547Y-35292455D01*
X221407544Y-35292452D01*
X221292335Y-35206206D01*
X221292328Y-35206202D01*
X221157482Y-35155908D01*
X221157483Y-35155908D01*
X221097883Y-35149501D01*
X221097881Y-35149500D01*
X221097873Y-35149500D01*
X221097864Y-35149500D01*
X219302129Y-35149500D01*
X219302123Y-35149501D01*
X219242516Y-35155908D01*
X219107671Y-35206202D01*
X219107664Y-35206206D01*
X218992455Y-35292452D01*
X218992452Y-35292455D01*
X218906206Y-35407664D01*
X218906202Y-35407671D01*
X218856997Y-35539598D01*
X218815126Y-35595532D01*
X218749661Y-35619949D01*
X218681388Y-35605097D01*
X218653134Y-35583946D01*
X218531082Y-35461894D01*
X218337578Y-35326399D01*
X218123492Y-35226570D01*
X218123486Y-35226567D01*
X217910000Y-35169364D01*
X217910000Y-36066988D01*
X217852993Y-36034075D01*
X217725826Y-36000000D01*
X217594174Y-36000000D01*
X217467007Y-36034075D01*
X217410000Y-36066988D01*
X217410000Y-35169364D01*
X217409999Y-35169364D01*
X217196513Y-35226567D01*
X217196507Y-35226570D01*
X216982422Y-35326399D01*
X216982420Y-35326400D01*
X216788926Y-35461886D01*
X216788920Y-35461891D01*
X216621891Y-35628920D01*
X216621890Y-35628922D01*
X216491880Y-35814595D01*
X216437303Y-35858219D01*
X216367804Y-35865412D01*
X216305450Y-35833890D01*
X216288730Y-35814594D01*
X216158494Y-35628597D01*
X215991402Y-35461506D01*
X215991395Y-35461501D01*
X215797834Y-35325967D01*
X215797830Y-35325965D01*
X215797828Y-35325964D01*
X215583663Y-35226097D01*
X215583659Y-35226096D01*
X215583655Y-35226094D01*
X215355413Y-35164938D01*
X215355403Y-35164936D01*
X215120001Y-35144341D01*
X215119999Y-35144341D01*
X214884596Y-35164936D01*
X214884586Y-35164938D01*
X214656344Y-35226094D01*
X214656335Y-35226098D01*
X214442171Y-35325964D01*
X214442169Y-35325965D01*
X214248597Y-35461505D01*
X214081505Y-35628597D01*
X213951575Y-35814158D01*
X213896998Y-35857783D01*
X213827500Y-35864977D01*
X213765145Y-35833454D01*
X213748425Y-35814158D01*
X213618494Y-35628597D01*
X213451402Y-35461506D01*
X213451395Y-35461501D01*
X213257834Y-35325967D01*
X213257830Y-35325965D01*
X213257828Y-35325964D01*
X213043663Y-35226097D01*
X213043659Y-35226096D01*
X213043655Y-35226094D01*
X212815413Y-35164938D01*
X212815403Y-35164936D01*
X212580001Y-35144341D01*
X212579999Y-35144341D01*
X212344596Y-35164936D01*
X212344586Y-35164938D01*
X212116344Y-35226094D01*
X212116335Y-35226098D01*
X211902171Y-35325964D01*
X211902169Y-35325965D01*
X211708597Y-35461505D01*
X211541505Y-35628597D01*
X211411575Y-35814158D01*
X211356998Y-35857783D01*
X211287500Y-35864977D01*
X211225145Y-35833454D01*
X211208425Y-35814158D01*
X211078494Y-35628597D01*
X210911402Y-35461506D01*
X210911395Y-35461501D01*
X210717834Y-35325967D01*
X210717830Y-35325965D01*
X210717828Y-35325964D01*
X210503663Y-35226097D01*
X210503659Y-35226096D01*
X210503655Y-35226094D01*
X210275413Y-35164938D01*
X210275403Y-35164936D01*
X210040001Y-35144341D01*
X210039999Y-35144341D01*
X209804596Y-35164936D01*
X209804586Y-35164938D01*
X209576344Y-35226094D01*
X209576335Y-35226098D01*
X209362171Y-35325964D01*
X209362169Y-35325965D01*
X209168597Y-35461505D01*
X209001505Y-35628597D01*
X208871575Y-35814158D01*
X208816998Y-35857783D01*
X208747500Y-35864977D01*
X208685145Y-35833454D01*
X208668425Y-35814158D01*
X208538494Y-35628597D01*
X208371402Y-35461506D01*
X208371395Y-35461501D01*
X208177834Y-35325967D01*
X208177830Y-35325965D01*
X208177828Y-35325964D01*
X207963663Y-35226097D01*
X207963659Y-35226096D01*
X207963655Y-35226094D01*
X207735413Y-35164938D01*
X207735403Y-35164936D01*
X207500001Y-35144341D01*
X207499999Y-35144341D01*
X207264596Y-35164936D01*
X207264586Y-35164938D01*
X207036344Y-35226094D01*
X207036335Y-35226098D01*
X206822171Y-35325964D01*
X206822169Y-35325965D01*
X206628597Y-35461505D01*
X206461505Y-35628597D01*
X206331575Y-35814158D01*
X206276998Y-35857783D01*
X206207500Y-35864977D01*
X206145145Y-35833454D01*
X206128425Y-35814158D01*
X205998494Y-35628597D01*
X205831402Y-35461506D01*
X205831395Y-35461501D01*
X205637834Y-35325967D01*
X205637830Y-35325965D01*
X205637828Y-35325964D01*
X205423663Y-35226097D01*
X205423659Y-35226096D01*
X205423655Y-35226094D01*
X205195413Y-35164938D01*
X205195403Y-35164936D01*
X204960001Y-35144341D01*
X204959999Y-35144341D01*
X204724596Y-35164936D01*
X204724586Y-35164938D01*
X204496344Y-35226094D01*
X204496335Y-35226098D01*
X204282171Y-35325964D01*
X204282169Y-35325965D01*
X204088597Y-35461505D01*
X203921505Y-35628597D01*
X203791575Y-35814158D01*
X203736998Y-35857783D01*
X203667500Y-35864977D01*
X203605145Y-35833454D01*
X203588425Y-35814158D01*
X203458494Y-35628597D01*
X203291402Y-35461506D01*
X203291395Y-35461501D01*
X203097834Y-35325967D01*
X203097830Y-35325965D01*
X203097828Y-35325964D01*
X202883663Y-35226097D01*
X202883659Y-35226096D01*
X202883655Y-35226094D01*
X202655413Y-35164938D01*
X202655403Y-35164936D01*
X202420001Y-35144341D01*
X202419999Y-35144341D01*
X202184596Y-35164936D01*
X202184586Y-35164938D01*
X201956344Y-35226094D01*
X201956335Y-35226098D01*
X201742171Y-35325964D01*
X201742169Y-35325965D01*
X201548597Y-35461505D01*
X201381505Y-35628597D01*
X201251575Y-35814158D01*
X201196998Y-35857783D01*
X201127500Y-35864977D01*
X201065145Y-35833454D01*
X201048425Y-35814158D01*
X200918494Y-35628597D01*
X200751402Y-35461506D01*
X200751395Y-35461501D01*
X200557834Y-35325967D01*
X200557830Y-35325965D01*
X200557828Y-35325964D01*
X200343663Y-35226097D01*
X200343659Y-35226096D01*
X200343655Y-35226094D01*
X200115413Y-35164938D01*
X200115403Y-35164936D01*
X199880001Y-35144341D01*
X199879999Y-35144341D01*
X199644596Y-35164936D01*
X199644586Y-35164938D01*
X199416344Y-35226094D01*
X199416335Y-35226098D01*
X199202171Y-35325964D01*
X199202169Y-35325965D01*
X199008597Y-35461505D01*
X198841505Y-35628597D01*
X198711575Y-35814158D01*
X198656998Y-35857783D01*
X198587500Y-35864977D01*
X198525145Y-35833454D01*
X198508425Y-35814158D01*
X198378494Y-35628597D01*
X198211402Y-35461506D01*
X198211395Y-35461501D01*
X198017834Y-35325967D01*
X198017830Y-35325965D01*
X198017828Y-35325964D01*
X197803663Y-35226097D01*
X197803659Y-35226096D01*
X197803655Y-35226094D01*
X197575413Y-35164938D01*
X197575403Y-35164936D01*
X197340001Y-35144341D01*
X197339999Y-35144341D01*
X197104596Y-35164936D01*
X197104586Y-35164938D01*
X196876344Y-35226094D01*
X196876335Y-35226098D01*
X196662171Y-35325964D01*
X196662169Y-35325965D01*
X196468597Y-35461505D01*
X196301505Y-35628597D01*
X196171575Y-35814158D01*
X196116998Y-35857783D01*
X196047500Y-35864977D01*
X195985145Y-35833454D01*
X195968425Y-35814158D01*
X195838494Y-35628597D01*
X195671402Y-35461506D01*
X195671395Y-35461501D01*
X195477834Y-35325967D01*
X195477830Y-35325965D01*
X195477828Y-35325964D01*
X195263663Y-35226097D01*
X195263659Y-35226096D01*
X195263655Y-35226094D01*
X195035413Y-35164938D01*
X195035403Y-35164936D01*
X194800001Y-35144341D01*
X194799999Y-35144341D01*
X194564596Y-35164936D01*
X194564586Y-35164938D01*
X194336344Y-35226094D01*
X194336335Y-35226098D01*
X194122171Y-35325964D01*
X194122169Y-35325965D01*
X193928597Y-35461505D01*
X193761505Y-35628597D01*
X193631575Y-35814158D01*
X193576998Y-35857783D01*
X193507500Y-35864977D01*
X193445145Y-35833454D01*
X193428425Y-35814158D01*
X193298494Y-35628597D01*
X193131402Y-35461506D01*
X193131395Y-35461501D01*
X192937834Y-35325967D01*
X192937830Y-35325965D01*
X192937828Y-35325964D01*
X192723663Y-35226097D01*
X192723659Y-35226096D01*
X192723655Y-35226094D01*
X192495413Y-35164938D01*
X192495403Y-35164936D01*
X192260001Y-35144341D01*
X192259999Y-35144341D01*
X192024596Y-35164936D01*
X192024586Y-35164938D01*
X191796344Y-35226094D01*
X191796335Y-35226098D01*
X191582171Y-35325964D01*
X191582169Y-35325965D01*
X191388597Y-35461505D01*
X191221505Y-35628597D01*
X191091575Y-35814158D01*
X191036998Y-35857783D01*
X190967500Y-35864977D01*
X190905145Y-35833454D01*
X190888425Y-35814158D01*
X190758494Y-35628597D01*
X190591402Y-35461506D01*
X190591395Y-35461501D01*
X190397834Y-35325967D01*
X190397830Y-35325965D01*
X190397828Y-35325964D01*
X190183663Y-35226097D01*
X190183659Y-35226096D01*
X190183655Y-35226094D01*
X189955413Y-35164938D01*
X189955403Y-35164936D01*
X189720001Y-35144341D01*
X189719999Y-35144341D01*
X189484596Y-35164936D01*
X189484586Y-35164938D01*
X189256344Y-35226094D01*
X189256335Y-35226098D01*
X189042171Y-35325964D01*
X189042169Y-35325965D01*
X188848597Y-35461505D01*
X188681505Y-35628597D01*
X188551575Y-35814158D01*
X188496998Y-35857783D01*
X188427500Y-35864977D01*
X188365145Y-35833454D01*
X188348425Y-35814158D01*
X188218494Y-35628597D01*
X188051402Y-35461506D01*
X188051395Y-35461501D01*
X187857834Y-35325967D01*
X187857830Y-35325965D01*
X187857828Y-35325964D01*
X187643663Y-35226097D01*
X187643659Y-35226096D01*
X187643655Y-35226094D01*
X187415413Y-35164938D01*
X187415403Y-35164936D01*
X187180001Y-35144341D01*
X187179999Y-35144341D01*
X186944596Y-35164936D01*
X186944586Y-35164938D01*
X186716344Y-35226094D01*
X186716335Y-35226098D01*
X186502171Y-35325964D01*
X186502169Y-35325965D01*
X186308597Y-35461505D01*
X186141505Y-35628597D01*
X186011575Y-35814158D01*
X185956998Y-35857783D01*
X185887500Y-35864977D01*
X185825145Y-35833454D01*
X185808425Y-35814158D01*
X185678494Y-35628597D01*
X185511402Y-35461506D01*
X185511395Y-35461501D01*
X185317834Y-35325967D01*
X185317830Y-35325965D01*
X185317828Y-35325964D01*
X185103663Y-35226097D01*
X185103659Y-35226096D01*
X185103655Y-35226094D01*
X184875413Y-35164938D01*
X184875403Y-35164936D01*
X184640001Y-35144341D01*
X184639999Y-35144341D01*
X184404596Y-35164936D01*
X184404586Y-35164938D01*
X184176344Y-35226094D01*
X184176335Y-35226098D01*
X183962171Y-35325964D01*
X183962169Y-35325965D01*
X183768597Y-35461505D01*
X183601505Y-35628597D01*
X183465965Y-35822169D01*
X183465964Y-35822171D01*
X183366098Y-36036335D01*
X183366094Y-36036344D01*
X183304938Y-36264586D01*
X183304936Y-36264596D01*
X183284341Y-36499999D01*
X181000500Y-36499999D01*
X181000500Y-34124500D01*
X181020185Y-34057461D01*
X181072989Y-34011706D01*
X181124500Y-34000500D01*
X230375500Y-34000500D01*
X230442539Y-34020185D01*
G37*
%TD.AperFunction*%
%TD*%
M02*
