%TF.GenerationSoftware,KiCad,Pcbnew,8.0.7*%
%TF.CreationDate,2024-12-20T19:08:42+02:00*%
%TF.ProjectId,STM32TrialPcb,53544d33-3254-4726-9961-6c5063622e6b,rev?*%
%TF.SameCoordinates,Original*%
%TF.FileFunction,Legend,Top*%
%TF.FilePolarity,Positive*%
%FSLAX46Y46*%
G04 Gerber Fmt 4.6, Leading zero omitted, Abs format (unit mm)*
G04 Created by KiCad (PCBNEW 8.0.7) date 2024-12-20 19:08:42*
%MOMM*%
%LPD*%
G01*
G04 APERTURE LIST*
%ADD10C,0.150000*%
%ADD11C,0.120000*%
G04 APERTURE END LIST*
D10*
X182166667Y-40157200D02*
X182309524Y-40204819D01*
X182309524Y-40204819D02*
X182547619Y-40204819D01*
X182547619Y-40204819D02*
X182642857Y-40157200D01*
X182642857Y-40157200D02*
X182690476Y-40109580D01*
X182690476Y-40109580D02*
X182738095Y-40014342D01*
X182738095Y-40014342D02*
X182738095Y-39919104D01*
X182738095Y-39919104D02*
X182690476Y-39823866D01*
X182690476Y-39823866D02*
X182642857Y-39776247D01*
X182642857Y-39776247D02*
X182547619Y-39728628D01*
X182547619Y-39728628D02*
X182357143Y-39681009D01*
X182357143Y-39681009D02*
X182261905Y-39633390D01*
X182261905Y-39633390D02*
X182214286Y-39585771D01*
X182214286Y-39585771D02*
X182166667Y-39490533D01*
X182166667Y-39490533D02*
X182166667Y-39395295D01*
X182166667Y-39395295D02*
X182214286Y-39300057D01*
X182214286Y-39300057D02*
X182261905Y-39252438D01*
X182261905Y-39252438D02*
X182357143Y-39204819D01*
X182357143Y-39204819D02*
X182595238Y-39204819D01*
X182595238Y-39204819D02*
X182738095Y-39252438D01*
X183071429Y-39204819D02*
X183309524Y-40204819D01*
X183309524Y-40204819D02*
X183500000Y-39490533D01*
X183500000Y-39490533D02*
X183690476Y-40204819D01*
X183690476Y-40204819D02*
X183928572Y-39204819D01*
X184261905Y-39300057D02*
X184309524Y-39252438D01*
X184309524Y-39252438D02*
X184404762Y-39204819D01*
X184404762Y-39204819D02*
X184642857Y-39204819D01*
X184642857Y-39204819D02*
X184738095Y-39252438D01*
X184738095Y-39252438D02*
X184785714Y-39300057D01*
X184785714Y-39300057D02*
X184833333Y-39395295D01*
X184833333Y-39395295D02*
X184833333Y-39490533D01*
X184833333Y-39490533D02*
X184785714Y-39633390D01*
X184785714Y-39633390D02*
X184214286Y-40204819D01*
X184214286Y-40204819D02*
X184833333Y-40204819D01*
X214761905Y-49524819D02*
X214761905Y-48524819D01*
X214761905Y-48524819D02*
X215000000Y-48524819D01*
X215000000Y-48524819D02*
X215142857Y-48572438D01*
X215142857Y-48572438D02*
X215238095Y-48667676D01*
X215238095Y-48667676D02*
X215285714Y-48762914D01*
X215285714Y-48762914D02*
X215333333Y-48953390D01*
X215333333Y-48953390D02*
X215333333Y-49096247D01*
X215333333Y-49096247D02*
X215285714Y-49286723D01*
X215285714Y-49286723D02*
X215238095Y-49381961D01*
X215238095Y-49381961D02*
X215142857Y-49477200D01*
X215142857Y-49477200D02*
X215000000Y-49524819D01*
X215000000Y-49524819D02*
X214761905Y-49524819D01*
X216285714Y-49524819D02*
X215714286Y-49524819D01*
X216000000Y-49524819D02*
X216000000Y-48524819D01*
X216000000Y-48524819D02*
X215904762Y-48667676D01*
X215904762Y-48667676D02*
X215809524Y-48762914D01*
X215809524Y-48762914D02*
X215714286Y-48810533D01*
X217454819Y-40166666D02*
X216978628Y-40499999D01*
X217454819Y-40738094D02*
X216454819Y-40738094D01*
X216454819Y-40738094D02*
X216454819Y-40357142D01*
X216454819Y-40357142D02*
X216502438Y-40261904D01*
X216502438Y-40261904D02*
X216550057Y-40214285D01*
X216550057Y-40214285D02*
X216645295Y-40166666D01*
X216645295Y-40166666D02*
X216788152Y-40166666D01*
X216788152Y-40166666D02*
X216883390Y-40214285D01*
X216883390Y-40214285D02*
X216931009Y-40261904D01*
X216931009Y-40261904D02*
X216978628Y-40357142D01*
X216978628Y-40357142D02*
X216978628Y-40738094D01*
X216788152Y-39309523D02*
X217454819Y-39309523D01*
X216407200Y-39547618D02*
X217121485Y-39785713D01*
X217121485Y-39785713D02*
X217121485Y-39166666D01*
X201333333Y-42359580D02*
X201285714Y-42407200D01*
X201285714Y-42407200D02*
X201142857Y-42454819D01*
X201142857Y-42454819D02*
X201047619Y-42454819D01*
X201047619Y-42454819D02*
X200904762Y-42407200D01*
X200904762Y-42407200D02*
X200809524Y-42311961D01*
X200809524Y-42311961D02*
X200761905Y-42216723D01*
X200761905Y-42216723D02*
X200714286Y-42026247D01*
X200714286Y-42026247D02*
X200714286Y-41883390D01*
X200714286Y-41883390D02*
X200761905Y-41692914D01*
X200761905Y-41692914D02*
X200809524Y-41597676D01*
X200809524Y-41597676D02*
X200904762Y-41502438D01*
X200904762Y-41502438D02*
X201047619Y-41454819D01*
X201047619Y-41454819D02*
X201142857Y-41454819D01*
X201142857Y-41454819D02*
X201285714Y-41502438D01*
X201285714Y-41502438D02*
X201333333Y-41550057D01*
X202238095Y-41454819D02*
X201761905Y-41454819D01*
X201761905Y-41454819D02*
X201714286Y-41931009D01*
X201714286Y-41931009D02*
X201761905Y-41883390D01*
X201761905Y-41883390D02*
X201857143Y-41835771D01*
X201857143Y-41835771D02*
X202095238Y-41835771D01*
X202095238Y-41835771D02*
X202190476Y-41883390D01*
X202190476Y-41883390D02*
X202238095Y-41931009D01*
X202238095Y-41931009D02*
X202285714Y-42026247D01*
X202285714Y-42026247D02*
X202285714Y-42264342D01*
X202285714Y-42264342D02*
X202238095Y-42359580D01*
X202238095Y-42359580D02*
X202190476Y-42407200D01*
X202190476Y-42407200D02*
X202095238Y-42454819D01*
X202095238Y-42454819D02*
X201857143Y-42454819D01*
X201857143Y-42454819D02*
X201761905Y-42407200D01*
X201761905Y-42407200D02*
X201714286Y-42359580D01*
X199833333Y-48954819D02*
X199357143Y-48954819D01*
X199357143Y-48954819D02*
X199357143Y-47954819D01*
X200690476Y-48954819D02*
X200119048Y-48954819D01*
X200404762Y-48954819D02*
X200404762Y-47954819D01*
X200404762Y-47954819D02*
X200309524Y-48097676D01*
X200309524Y-48097676D02*
X200214286Y-48192914D01*
X200214286Y-48192914D02*
X200119048Y-48240533D01*
X217850595Y-48154819D02*
X217850595Y-48964342D01*
X217850595Y-48964342D02*
X217898214Y-49059580D01*
X217898214Y-49059580D02*
X217945833Y-49107200D01*
X217945833Y-49107200D02*
X218041071Y-49154819D01*
X218041071Y-49154819D02*
X218231547Y-49154819D01*
X218231547Y-49154819D02*
X218326785Y-49107200D01*
X218326785Y-49107200D02*
X218374404Y-49059580D01*
X218374404Y-49059580D02*
X218422023Y-48964342D01*
X218422023Y-48964342D02*
X218422023Y-48154819D01*
X219422023Y-49154819D02*
X218850595Y-49154819D01*
X219136309Y-49154819D02*
X219136309Y-48154819D01*
X219136309Y-48154819D02*
X219041071Y-48297676D01*
X219041071Y-48297676D02*
X218945833Y-48392914D01*
X218945833Y-48392914D02*
X218850595Y-48440533D01*
X222789580Y-53166666D02*
X222837200Y-53214285D01*
X222837200Y-53214285D02*
X222884819Y-53357142D01*
X222884819Y-53357142D02*
X222884819Y-53452380D01*
X222884819Y-53452380D02*
X222837200Y-53595237D01*
X222837200Y-53595237D02*
X222741961Y-53690475D01*
X222741961Y-53690475D02*
X222646723Y-53738094D01*
X222646723Y-53738094D02*
X222456247Y-53785713D01*
X222456247Y-53785713D02*
X222313390Y-53785713D01*
X222313390Y-53785713D02*
X222122914Y-53738094D01*
X222122914Y-53738094D02*
X222027676Y-53690475D01*
X222027676Y-53690475D02*
X221932438Y-53595237D01*
X221932438Y-53595237D02*
X221884819Y-53452380D01*
X221884819Y-53452380D02*
X221884819Y-53357142D01*
X221884819Y-53357142D02*
X221932438Y-53214285D01*
X221932438Y-53214285D02*
X221980057Y-53166666D01*
X222313390Y-52595237D02*
X222265771Y-52690475D01*
X222265771Y-52690475D02*
X222218152Y-52738094D01*
X222218152Y-52738094D02*
X222122914Y-52785713D01*
X222122914Y-52785713D02*
X222075295Y-52785713D01*
X222075295Y-52785713D02*
X221980057Y-52738094D01*
X221980057Y-52738094D02*
X221932438Y-52690475D01*
X221932438Y-52690475D02*
X221884819Y-52595237D01*
X221884819Y-52595237D02*
X221884819Y-52404761D01*
X221884819Y-52404761D02*
X221932438Y-52309523D01*
X221932438Y-52309523D02*
X221980057Y-52261904D01*
X221980057Y-52261904D02*
X222075295Y-52214285D01*
X222075295Y-52214285D02*
X222122914Y-52214285D01*
X222122914Y-52214285D02*
X222218152Y-52261904D01*
X222218152Y-52261904D02*
X222265771Y-52309523D01*
X222265771Y-52309523D02*
X222313390Y-52404761D01*
X222313390Y-52404761D02*
X222313390Y-52595237D01*
X222313390Y-52595237D02*
X222361009Y-52690475D01*
X222361009Y-52690475D02*
X222408628Y-52738094D01*
X222408628Y-52738094D02*
X222503866Y-52785713D01*
X222503866Y-52785713D02*
X222694342Y-52785713D01*
X222694342Y-52785713D02*
X222789580Y-52738094D01*
X222789580Y-52738094D02*
X222837200Y-52690475D01*
X222837200Y-52690475D02*
X222884819Y-52595237D01*
X222884819Y-52595237D02*
X222884819Y-52404761D01*
X222884819Y-52404761D02*
X222837200Y-52309523D01*
X222837200Y-52309523D02*
X222789580Y-52261904D01*
X222789580Y-52261904D02*
X222694342Y-52214285D01*
X222694342Y-52214285D02*
X222503866Y-52214285D01*
X222503866Y-52214285D02*
X222408628Y-52261904D01*
X222408628Y-52261904D02*
X222361009Y-52309523D01*
X222361009Y-52309523D02*
X222313390Y-52404761D01*
X197833333Y-48859580D02*
X197785714Y-48907200D01*
X197785714Y-48907200D02*
X197642857Y-48954819D01*
X197642857Y-48954819D02*
X197547619Y-48954819D01*
X197547619Y-48954819D02*
X197404762Y-48907200D01*
X197404762Y-48907200D02*
X197309524Y-48811961D01*
X197309524Y-48811961D02*
X197261905Y-48716723D01*
X197261905Y-48716723D02*
X197214286Y-48526247D01*
X197214286Y-48526247D02*
X197214286Y-48383390D01*
X197214286Y-48383390D02*
X197261905Y-48192914D01*
X197261905Y-48192914D02*
X197309524Y-48097676D01*
X197309524Y-48097676D02*
X197404762Y-48002438D01*
X197404762Y-48002438D02*
X197547619Y-47954819D01*
X197547619Y-47954819D02*
X197642857Y-47954819D01*
X197642857Y-47954819D02*
X197785714Y-48002438D01*
X197785714Y-48002438D02*
X197833333Y-48050057D01*
X198785714Y-48954819D02*
X198214286Y-48954819D01*
X198500000Y-48954819D02*
X198500000Y-47954819D01*
X198500000Y-47954819D02*
X198404762Y-48097676D01*
X198404762Y-48097676D02*
X198309524Y-48192914D01*
X198309524Y-48192914D02*
X198214286Y-48240533D01*
X220666666Y-50431009D02*
X220333333Y-50431009D01*
X220333333Y-50954819D02*
X220333333Y-49954819D01*
X220333333Y-49954819D02*
X220809523Y-49954819D01*
X221523809Y-50431009D02*
X221666666Y-50478628D01*
X221666666Y-50478628D02*
X221714285Y-50526247D01*
X221714285Y-50526247D02*
X221761904Y-50621485D01*
X221761904Y-50621485D02*
X221761904Y-50764342D01*
X221761904Y-50764342D02*
X221714285Y-50859580D01*
X221714285Y-50859580D02*
X221666666Y-50907200D01*
X221666666Y-50907200D02*
X221571428Y-50954819D01*
X221571428Y-50954819D02*
X221190476Y-50954819D01*
X221190476Y-50954819D02*
X221190476Y-49954819D01*
X221190476Y-49954819D02*
X221523809Y-49954819D01*
X221523809Y-49954819D02*
X221619047Y-50002438D01*
X221619047Y-50002438D02*
X221666666Y-50050057D01*
X221666666Y-50050057D02*
X221714285Y-50145295D01*
X221714285Y-50145295D02*
X221714285Y-50240533D01*
X221714285Y-50240533D02*
X221666666Y-50335771D01*
X221666666Y-50335771D02*
X221619047Y-50383390D01*
X221619047Y-50383390D02*
X221523809Y-50431009D01*
X221523809Y-50431009D02*
X221190476Y-50431009D01*
X222714285Y-50954819D02*
X222142857Y-50954819D01*
X222428571Y-50954819D02*
X222428571Y-49954819D01*
X222428571Y-49954819D02*
X222333333Y-50097676D01*
X222333333Y-50097676D02*
X222238095Y-50192914D01*
X222238095Y-50192914D02*
X222142857Y-50240533D01*
X205488095Y-41942319D02*
X205488095Y-42751842D01*
X205488095Y-42751842D02*
X205535714Y-42847080D01*
X205535714Y-42847080D02*
X205583333Y-42894700D01*
X205583333Y-42894700D02*
X205678571Y-42942319D01*
X205678571Y-42942319D02*
X205869047Y-42942319D01*
X205869047Y-42942319D02*
X205964285Y-42894700D01*
X205964285Y-42894700D02*
X206011904Y-42847080D01*
X206011904Y-42847080D02*
X206059523Y-42751842D01*
X206059523Y-42751842D02*
X206059523Y-41942319D01*
X206488095Y-42037557D02*
X206535714Y-41989938D01*
X206535714Y-41989938D02*
X206630952Y-41942319D01*
X206630952Y-41942319D02*
X206869047Y-41942319D01*
X206869047Y-41942319D02*
X206964285Y-41989938D01*
X206964285Y-41989938D02*
X207011904Y-42037557D01*
X207011904Y-42037557D02*
X207059523Y-42132795D01*
X207059523Y-42132795D02*
X207059523Y-42228033D01*
X207059523Y-42228033D02*
X207011904Y-42370890D01*
X207011904Y-42370890D02*
X206440476Y-42942319D01*
X206440476Y-42942319D02*
X207059523Y-42942319D01*
X222699819Y-47338333D02*
X223414104Y-47338333D01*
X223414104Y-47338333D02*
X223556961Y-47385952D01*
X223556961Y-47385952D02*
X223652200Y-47481190D01*
X223652200Y-47481190D02*
X223699819Y-47624047D01*
X223699819Y-47624047D02*
X223699819Y-47719285D01*
X223699819Y-46338333D02*
X223699819Y-46909761D01*
X223699819Y-46624047D02*
X222699819Y-46624047D01*
X222699819Y-46624047D02*
X222842676Y-46719285D01*
X222842676Y-46719285D02*
X222937914Y-46814523D01*
X222937914Y-46814523D02*
X222985533Y-46909761D01*
X188967142Y-41609580D02*
X188919523Y-41657200D01*
X188919523Y-41657200D02*
X188776666Y-41704819D01*
X188776666Y-41704819D02*
X188681428Y-41704819D01*
X188681428Y-41704819D02*
X188538571Y-41657200D01*
X188538571Y-41657200D02*
X188443333Y-41561961D01*
X188443333Y-41561961D02*
X188395714Y-41466723D01*
X188395714Y-41466723D02*
X188348095Y-41276247D01*
X188348095Y-41276247D02*
X188348095Y-41133390D01*
X188348095Y-41133390D02*
X188395714Y-40942914D01*
X188395714Y-40942914D02*
X188443333Y-40847676D01*
X188443333Y-40847676D02*
X188538571Y-40752438D01*
X188538571Y-40752438D02*
X188681428Y-40704819D01*
X188681428Y-40704819D02*
X188776666Y-40704819D01*
X188776666Y-40704819D02*
X188919523Y-40752438D01*
X188919523Y-40752438D02*
X188967142Y-40800057D01*
X189919523Y-41704819D02*
X189348095Y-41704819D01*
X189633809Y-41704819D02*
X189633809Y-40704819D01*
X189633809Y-40704819D02*
X189538571Y-40847676D01*
X189538571Y-40847676D02*
X189443333Y-40942914D01*
X189443333Y-40942914D02*
X189348095Y-40990533D01*
X190871904Y-41704819D02*
X190300476Y-41704819D01*
X190586190Y-41704819D02*
X190586190Y-40704819D01*
X190586190Y-40704819D02*
X190490952Y-40847676D01*
X190490952Y-40847676D02*
X190395714Y-40942914D01*
X190395714Y-40942914D02*
X190300476Y-40990533D01*
X217316666Y-43254819D02*
X217316666Y-43969104D01*
X217316666Y-43969104D02*
X217269047Y-44111961D01*
X217269047Y-44111961D02*
X217173809Y-44207200D01*
X217173809Y-44207200D02*
X217030952Y-44254819D01*
X217030952Y-44254819D02*
X216935714Y-44254819D01*
X217792857Y-44254819D02*
X217792857Y-43254819D01*
X217792857Y-43254819D02*
X218173809Y-43254819D01*
X218173809Y-43254819D02*
X218269047Y-43302438D01*
X218269047Y-43302438D02*
X218316666Y-43350057D01*
X218316666Y-43350057D02*
X218364285Y-43445295D01*
X218364285Y-43445295D02*
X218364285Y-43588152D01*
X218364285Y-43588152D02*
X218316666Y-43683390D01*
X218316666Y-43683390D02*
X218269047Y-43731009D01*
X218269047Y-43731009D02*
X218173809Y-43778628D01*
X218173809Y-43778628D02*
X217792857Y-43778628D01*
X219316666Y-44254819D02*
X218745238Y-44254819D01*
X219030952Y-44254819D02*
X219030952Y-43254819D01*
X219030952Y-43254819D02*
X218935714Y-43397676D01*
X218935714Y-43397676D02*
X218840476Y-43492914D01*
X218840476Y-43492914D02*
X218745238Y-43540533D01*
X195078628Y-46046190D02*
X195554819Y-46046190D01*
X194554819Y-46379523D02*
X195078628Y-46046190D01*
X195078628Y-46046190D02*
X194554819Y-45712857D01*
X195554819Y-44855714D02*
X195554819Y-45427142D01*
X195554819Y-45141428D02*
X194554819Y-45141428D01*
X194554819Y-45141428D02*
X194697676Y-45236666D01*
X194697676Y-45236666D02*
X194792914Y-45331904D01*
X194792914Y-45331904D02*
X194840533Y-45427142D01*
X218359580Y-55416666D02*
X218407200Y-55464285D01*
X218407200Y-55464285D02*
X218454819Y-55607142D01*
X218454819Y-55607142D02*
X218454819Y-55702380D01*
X218454819Y-55702380D02*
X218407200Y-55845237D01*
X218407200Y-55845237D02*
X218311961Y-55940475D01*
X218311961Y-55940475D02*
X218216723Y-55988094D01*
X218216723Y-55988094D02*
X218026247Y-56035713D01*
X218026247Y-56035713D02*
X217883390Y-56035713D01*
X217883390Y-56035713D02*
X217692914Y-55988094D01*
X217692914Y-55988094D02*
X217597676Y-55940475D01*
X217597676Y-55940475D02*
X217502438Y-55845237D01*
X217502438Y-55845237D02*
X217454819Y-55702380D01*
X217454819Y-55702380D02*
X217454819Y-55607142D01*
X217454819Y-55607142D02*
X217502438Y-55464285D01*
X217502438Y-55464285D02*
X217550057Y-55416666D01*
X218454819Y-54940475D02*
X218454819Y-54749999D01*
X218454819Y-54749999D02*
X218407200Y-54654761D01*
X218407200Y-54654761D02*
X218359580Y-54607142D01*
X218359580Y-54607142D02*
X218216723Y-54511904D01*
X218216723Y-54511904D02*
X218026247Y-54464285D01*
X218026247Y-54464285D02*
X217645295Y-54464285D01*
X217645295Y-54464285D02*
X217550057Y-54511904D01*
X217550057Y-54511904D02*
X217502438Y-54559523D01*
X217502438Y-54559523D02*
X217454819Y-54654761D01*
X217454819Y-54654761D02*
X217454819Y-54845237D01*
X217454819Y-54845237D02*
X217502438Y-54940475D01*
X217502438Y-54940475D02*
X217550057Y-54988094D01*
X217550057Y-54988094D02*
X217645295Y-55035713D01*
X217645295Y-55035713D02*
X217883390Y-55035713D01*
X217883390Y-55035713D02*
X217978628Y-54988094D01*
X217978628Y-54988094D02*
X218026247Y-54940475D01*
X218026247Y-54940475D02*
X218073866Y-54845237D01*
X218073866Y-54845237D02*
X218073866Y-54654761D01*
X218073866Y-54654761D02*
X218026247Y-54559523D01*
X218026247Y-54559523D02*
X217978628Y-54511904D01*
X217978628Y-54511904D02*
X217883390Y-54464285D01*
X210833333Y-43609580D02*
X210785714Y-43657200D01*
X210785714Y-43657200D02*
X210642857Y-43704819D01*
X210642857Y-43704819D02*
X210547619Y-43704819D01*
X210547619Y-43704819D02*
X210404762Y-43657200D01*
X210404762Y-43657200D02*
X210309524Y-43561961D01*
X210309524Y-43561961D02*
X210261905Y-43466723D01*
X210261905Y-43466723D02*
X210214286Y-43276247D01*
X210214286Y-43276247D02*
X210214286Y-43133390D01*
X210214286Y-43133390D02*
X210261905Y-42942914D01*
X210261905Y-42942914D02*
X210309524Y-42847676D01*
X210309524Y-42847676D02*
X210404762Y-42752438D01*
X210404762Y-42752438D02*
X210547619Y-42704819D01*
X210547619Y-42704819D02*
X210642857Y-42704819D01*
X210642857Y-42704819D02*
X210785714Y-42752438D01*
X210785714Y-42752438D02*
X210833333Y-42800057D01*
X211166667Y-42704819D02*
X211833333Y-42704819D01*
X211833333Y-42704819D02*
X211404762Y-43704819D01*
X196073333Y-47219580D02*
X196025714Y-47267200D01*
X196025714Y-47267200D02*
X195882857Y-47314819D01*
X195882857Y-47314819D02*
X195787619Y-47314819D01*
X195787619Y-47314819D02*
X195644762Y-47267200D01*
X195644762Y-47267200D02*
X195549524Y-47171961D01*
X195549524Y-47171961D02*
X195501905Y-47076723D01*
X195501905Y-47076723D02*
X195454286Y-46886247D01*
X195454286Y-46886247D02*
X195454286Y-46743390D01*
X195454286Y-46743390D02*
X195501905Y-46552914D01*
X195501905Y-46552914D02*
X195549524Y-46457676D01*
X195549524Y-46457676D02*
X195644762Y-46362438D01*
X195644762Y-46362438D02*
X195787619Y-46314819D01*
X195787619Y-46314819D02*
X195882857Y-46314819D01*
X195882857Y-46314819D02*
X196025714Y-46362438D01*
X196025714Y-46362438D02*
X196073333Y-46410057D01*
X196454286Y-46410057D02*
X196501905Y-46362438D01*
X196501905Y-46362438D02*
X196597143Y-46314819D01*
X196597143Y-46314819D02*
X196835238Y-46314819D01*
X196835238Y-46314819D02*
X196930476Y-46362438D01*
X196930476Y-46362438D02*
X196978095Y-46410057D01*
X196978095Y-46410057D02*
X197025714Y-46505295D01*
X197025714Y-46505295D02*
X197025714Y-46600533D01*
X197025714Y-46600533D02*
X196978095Y-46743390D01*
X196978095Y-46743390D02*
X196406667Y-47314819D01*
X196406667Y-47314819D02*
X197025714Y-47314819D01*
X197333333Y-41859580D02*
X197285714Y-41907200D01*
X197285714Y-41907200D02*
X197142857Y-41954819D01*
X197142857Y-41954819D02*
X197047619Y-41954819D01*
X197047619Y-41954819D02*
X196904762Y-41907200D01*
X196904762Y-41907200D02*
X196809524Y-41811961D01*
X196809524Y-41811961D02*
X196761905Y-41716723D01*
X196761905Y-41716723D02*
X196714286Y-41526247D01*
X196714286Y-41526247D02*
X196714286Y-41383390D01*
X196714286Y-41383390D02*
X196761905Y-41192914D01*
X196761905Y-41192914D02*
X196809524Y-41097676D01*
X196809524Y-41097676D02*
X196904762Y-41002438D01*
X196904762Y-41002438D02*
X197047619Y-40954819D01*
X197047619Y-40954819D02*
X197142857Y-40954819D01*
X197142857Y-40954819D02*
X197285714Y-41002438D01*
X197285714Y-41002438D02*
X197333333Y-41050057D01*
X197666667Y-40954819D02*
X198285714Y-40954819D01*
X198285714Y-40954819D02*
X197952381Y-41335771D01*
X197952381Y-41335771D02*
X198095238Y-41335771D01*
X198095238Y-41335771D02*
X198190476Y-41383390D01*
X198190476Y-41383390D02*
X198238095Y-41431009D01*
X198238095Y-41431009D02*
X198285714Y-41526247D01*
X198285714Y-41526247D02*
X198285714Y-41764342D01*
X198285714Y-41764342D02*
X198238095Y-41859580D01*
X198238095Y-41859580D02*
X198190476Y-41907200D01*
X198190476Y-41907200D02*
X198095238Y-41954819D01*
X198095238Y-41954819D02*
X197809524Y-41954819D01*
X197809524Y-41954819D02*
X197714286Y-41907200D01*
X197714286Y-41907200D02*
X197666667Y-41859580D01*
X221984819Y-36833333D02*
X222699104Y-36833333D01*
X222699104Y-36833333D02*
X222841961Y-36880952D01*
X222841961Y-36880952D02*
X222937200Y-36976190D01*
X222937200Y-36976190D02*
X222984819Y-37119047D01*
X222984819Y-37119047D02*
X222984819Y-37214285D01*
X222080057Y-36404761D02*
X222032438Y-36357142D01*
X222032438Y-36357142D02*
X221984819Y-36261904D01*
X221984819Y-36261904D02*
X221984819Y-36023809D01*
X221984819Y-36023809D02*
X222032438Y-35928571D01*
X222032438Y-35928571D02*
X222080057Y-35880952D01*
X222080057Y-35880952D02*
X222175295Y-35833333D01*
X222175295Y-35833333D02*
X222270533Y-35833333D01*
X222270533Y-35833333D02*
X222413390Y-35880952D01*
X222413390Y-35880952D02*
X222984819Y-36452380D01*
X222984819Y-36452380D02*
X222984819Y-35833333D01*
X197833333Y-44859580D02*
X197785714Y-44907200D01*
X197785714Y-44907200D02*
X197642857Y-44954819D01*
X197642857Y-44954819D02*
X197547619Y-44954819D01*
X197547619Y-44954819D02*
X197404762Y-44907200D01*
X197404762Y-44907200D02*
X197309524Y-44811961D01*
X197309524Y-44811961D02*
X197261905Y-44716723D01*
X197261905Y-44716723D02*
X197214286Y-44526247D01*
X197214286Y-44526247D02*
X197214286Y-44383390D01*
X197214286Y-44383390D02*
X197261905Y-44192914D01*
X197261905Y-44192914D02*
X197309524Y-44097676D01*
X197309524Y-44097676D02*
X197404762Y-44002438D01*
X197404762Y-44002438D02*
X197547619Y-43954819D01*
X197547619Y-43954819D02*
X197642857Y-43954819D01*
X197642857Y-43954819D02*
X197785714Y-44002438D01*
X197785714Y-44002438D02*
X197833333Y-44050057D01*
X198690476Y-44288152D02*
X198690476Y-44954819D01*
X198452381Y-43907200D02*
X198214286Y-44621485D01*
X198214286Y-44621485D02*
X198833333Y-44621485D01*
X192294642Y-42612080D02*
X192247023Y-42659700D01*
X192247023Y-42659700D02*
X192104166Y-42707319D01*
X192104166Y-42707319D02*
X192008928Y-42707319D01*
X192008928Y-42707319D02*
X191866071Y-42659700D01*
X191866071Y-42659700D02*
X191770833Y-42564461D01*
X191770833Y-42564461D02*
X191723214Y-42469223D01*
X191723214Y-42469223D02*
X191675595Y-42278747D01*
X191675595Y-42278747D02*
X191675595Y-42135890D01*
X191675595Y-42135890D02*
X191723214Y-41945414D01*
X191723214Y-41945414D02*
X191770833Y-41850176D01*
X191770833Y-41850176D02*
X191866071Y-41754938D01*
X191866071Y-41754938D02*
X192008928Y-41707319D01*
X192008928Y-41707319D02*
X192104166Y-41707319D01*
X192104166Y-41707319D02*
X192247023Y-41754938D01*
X192247023Y-41754938D02*
X192294642Y-41802557D01*
X193247023Y-42707319D02*
X192675595Y-42707319D01*
X192961309Y-42707319D02*
X192961309Y-41707319D01*
X192961309Y-41707319D02*
X192866071Y-41850176D01*
X192866071Y-41850176D02*
X192770833Y-41945414D01*
X192770833Y-41945414D02*
X192675595Y-41993033D01*
X193627976Y-41802557D02*
X193675595Y-41754938D01*
X193675595Y-41754938D02*
X193770833Y-41707319D01*
X193770833Y-41707319D02*
X194008928Y-41707319D01*
X194008928Y-41707319D02*
X194104166Y-41754938D01*
X194104166Y-41754938D02*
X194151785Y-41802557D01*
X194151785Y-41802557D02*
X194199404Y-41897795D01*
X194199404Y-41897795D02*
X194199404Y-41993033D01*
X194199404Y-41993033D02*
X194151785Y-42135890D01*
X194151785Y-42135890D02*
X193580357Y-42707319D01*
X193580357Y-42707319D02*
X194199404Y-42707319D01*
X213454819Y-53166666D02*
X212978628Y-53499999D01*
X213454819Y-53738094D02*
X212454819Y-53738094D01*
X212454819Y-53738094D02*
X212454819Y-53357142D01*
X212454819Y-53357142D02*
X212502438Y-53261904D01*
X212502438Y-53261904D02*
X212550057Y-53214285D01*
X212550057Y-53214285D02*
X212645295Y-53166666D01*
X212645295Y-53166666D02*
X212788152Y-53166666D01*
X212788152Y-53166666D02*
X212883390Y-53214285D01*
X212883390Y-53214285D02*
X212931009Y-53261904D01*
X212931009Y-53261904D02*
X212978628Y-53357142D01*
X212978628Y-53357142D02*
X212978628Y-53738094D01*
X213454819Y-52214285D02*
X213454819Y-52785713D01*
X213454819Y-52499999D02*
X212454819Y-52499999D01*
X212454819Y-52499999D02*
X212597676Y-52595237D01*
X212597676Y-52595237D02*
X212692914Y-52690475D01*
X212692914Y-52690475D02*
X212740533Y-52785713D01*
X209833333Y-56359580D02*
X209785714Y-56407200D01*
X209785714Y-56407200D02*
X209642857Y-56454819D01*
X209642857Y-56454819D02*
X209547619Y-56454819D01*
X209547619Y-56454819D02*
X209404762Y-56407200D01*
X209404762Y-56407200D02*
X209309524Y-56311961D01*
X209309524Y-56311961D02*
X209261905Y-56216723D01*
X209261905Y-56216723D02*
X209214286Y-56026247D01*
X209214286Y-56026247D02*
X209214286Y-55883390D01*
X209214286Y-55883390D02*
X209261905Y-55692914D01*
X209261905Y-55692914D02*
X209309524Y-55597676D01*
X209309524Y-55597676D02*
X209404762Y-55502438D01*
X209404762Y-55502438D02*
X209547619Y-55454819D01*
X209547619Y-55454819D02*
X209642857Y-55454819D01*
X209642857Y-55454819D02*
X209785714Y-55502438D01*
X209785714Y-55502438D02*
X209833333Y-55550057D01*
X210690476Y-55454819D02*
X210500000Y-55454819D01*
X210500000Y-55454819D02*
X210404762Y-55502438D01*
X210404762Y-55502438D02*
X210357143Y-55550057D01*
X210357143Y-55550057D02*
X210261905Y-55692914D01*
X210261905Y-55692914D02*
X210214286Y-55883390D01*
X210214286Y-55883390D02*
X210214286Y-56264342D01*
X210214286Y-56264342D02*
X210261905Y-56359580D01*
X210261905Y-56359580D02*
X210309524Y-56407200D01*
X210309524Y-56407200D02*
X210404762Y-56454819D01*
X210404762Y-56454819D02*
X210595238Y-56454819D01*
X210595238Y-56454819D02*
X210690476Y-56407200D01*
X210690476Y-56407200D02*
X210738095Y-56359580D01*
X210738095Y-56359580D02*
X210785714Y-56264342D01*
X210785714Y-56264342D02*
X210785714Y-56026247D01*
X210785714Y-56026247D02*
X210738095Y-55931009D01*
X210738095Y-55931009D02*
X210690476Y-55883390D01*
X210690476Y-55883390D02*
X210595238Y-55835771D01*
X210595238Y-55835771D02*
X210404762Y-55835771D01*
X210404762Y-55835771D02*
X210309524Y-55883390D01*
X210309524Y-55883390D02*
X210261905Y-55931009D01*
X210261905Y-55931009D02*
X210214286Y-56026247D01*
X218234819Y-46266666D02*
X217758628Y-46599999D01*
X218234819Y-46838094D02*
X217234819Y-46838094D01*
X217234819Y-46838094D02*
X217234819Y-46457142D01*
X217234819Y-46457142D02*
X217282438Y-46361904D01*
X217282438Y-46361904D02*
X217330057Y-46314285D01*
X217330057Y-46314285D02*
X217425295Y-46266666D01*
X217425295Y-46266666D02*
X217568152Y-46266666D01*
X217568152Y-46266666D02*
X217663390Y-46314285D01*
X217663390Y-46314285D02*
X217711009Y-46361904D01*
X217711009Y-46361904D02*
X217758628Y-46457142D01*
X217758628Y-46457142D02*
X217758628Y-46838094D01*
X217234819Y-45361904D02*
X217234819Y-45838094D01*
X217234819Y-45838094D02*
X217711009Y-45885713D01*
X217711009Y-45885713D02*
X217663390Y-45838094D01*
X217663390Y-45838094D02*
X217615771Y-45742856D01*
X217615771Y-45742856D02*
X217615771Y-45504761D01*
X217615771Y-45504761D02*
X217663390Y-45409523D01*
X217663390Y-45409523D02*
X217711009Y-45361904D01*
X217711009Y-45361904D02*
X217806247Y-45314285D01*
X217806247Y-45314285D02*
X218044342Y-45314285D01*
X218044342Y-45314285D02*
X218139580Y-45361904D01*
X218139580Y-45361904D02*
X218187200Y-45409523D01*
X218187200Y-45409523D02*
X218234819Y-45504761D01*
X218234819Y-45504761D02*
X218234819Y-45742856D01*
X218234819Y-45742856D02*
X218187200Y-45838094D01*
X218187200Y-45838094D02*
X218139580Y-45885713D01*
X222904819Y-59833333D02*
X223619104Y-59833333D01*
X223619104Y-59833333D02*
X223761961Y-59880952D01*
X223761961Y-59880952D02*
X223857200Y-59976190D01*
X223857200Y-59976190D02*
X223904819Y-60119047D01*
X223904819Y-60119047D02*
X223904819Y-60214285D01*
X222904819Y-59452380D02*
X222904819Y-58833333D01*
X222904819Y-58833333D02*
X223285771Y-59166666D01*
X223285771Y-59166666D02*
X223285771Y-59023809D01*
X223285771Y-59023809D02*
X223333390Y-58928571D01*
X223333390Y-58928571D02*
X223381009Y-58880952D01*
X223381009Y-58880952D02*
X223476247Y-58833333D01*
X223476247Y-58833333D02*
X223714342Y-58833333D01*
X223714342Y-58833333D02*
X223809580Y-58880952D01*
X223809580Y-58880952D02*
X223857200Y-58928571D01*
X223857200Y-58928571D02*
X223904819Y-59023809D01*
X223904819Y-59023809D02*
X223904819Y-59309523D01*
X223904819Y-59309523D02*
X223857200Y-59404761D01*
X223857200Y-59404761D02*
X223809580Y-59452380D01*
X189774642Y-51772080D02*
X189727023Y-51819700D01*
X189727023Y-51819700D02*
X189584166Y-51867319D01*
X189584166Y-51867319D02*
X189488928Y-51867319D01*
X189488928Y-51867319D02*
X189346071Y-51819700D01*
X189346071Y-51819700D02*
X189250833Y-51724461D01*
X189250833Y-51724461D02*
X189203214Y-51629223D01*
X189203214Y-51629223D02*
X189155595Y-51438747D01*
X189155595Y-51438747D02*
X189155595Y-51295890D01*
X189155595Y-51295890D02*
X189203214Y-51105414D01*
X189203214Y-51105414D02*
X189250833Y-51010176D01*
X189250833Y-51010176D02*
X189346071Y-50914938D01*
X189346071Y-50914938D02*
X189488928Y-50867319D01*
X189488928Y-50867319D02*
X189584166Y-50867319D01*
X189584166Y-50867319D02*
X189727023Y-50914938D01*
X189727023Y-50914938D02*
X189774642Y-50962557D01*
X190727023Y-51867319D02*
X190155595Y-51867319D01*
X190441309Y-51867319D02*
X190441309Y-50867319D01*
X190441309Y-50867319D02*
X190346071Y-51010176D01*
X190346071Y-51010176D02*
X190250833Y-51105414D01*
X190250833Y-51105414D02*
X190155595Y-51153033D01*
X191060357Y-50867319D02*
X191679404Y-50867319D01*
X191679404Y-50867319D02*
X191346071Y-51248271D01*
X191346071Y-51248271D02*
X191488928Y-51248271D01*
X191488928Y-51248271D02*
X191584166Y-51295890D01*
X191584166Y-51295890D02*
X191631785Y-51343509D01*
X191631785Y-51343509D02*
X191679404Y-51438747D01*
X191679404Y-51438747D02*
X191679404Y-51676842D01*
X191679404Y-51676842D02*
X191631785Y-51772080D01*
X191631785Y-51772080D02*
X191584166Y-51819700D01*
X191584166Y-51819700D02*
X191488928Y-51867319D01*
X191488928Y-51867319D02*
X191203214Y-51867319D01*
X191203214Y-51867319D02*
X191107976Y-51819700D01*
X191107976Y-51819700D02*
X191060357Y-51772080D01*
D11*
%TO.C,SW2*%
X182930000Y-40430000D02*
X187070000Y-40430000D01*
X182930000Y-40730000D02*
X182930000Y-40430000D01*
X182930000Y-43570000D02*
X182930000Y-43270000D01*
X187070000Y-40430000D02*
X187070000Y-40730000D01*
X187070000Y-43270000D02*
X187070000Y-43570000D01*
X187070000Y-43570000D02*
X182930000Y-43570000D01*
%TO.C,D1*%
X214015000Y-49765000D02*
X214015000Y-51235000D01*
X214015000Y-51235000D02*
X216300000Y-51235000D01*
X216300000Y-49765000D02*
X214015000Y-49765000D01*
%TO.C,R4*%
X218653641Y-40380000D02*
X218346359Y-40380000D01*
X218653641Y-39620000D02*
X218346359Y-39620000D01*
%TO.C,C5*%
X201640000Y-43607836D02*
X201640000Y-43392164D01*
X202360000Y-43607836D02*
X202360000Y-43392164D01*
%TO.C,R3*%
X184558859Y-51620000D02*
X184866141Y-51620000D01*
X184558859Y-52380000D02*
X184866141Y-52380000D01*
%TO.C,U1*%
X217612500Y-49540000D02*
X219612500Y-49540000D01*
X217612500Y-51760000D02*
X219612500Y-51760000D01*
X217372500Y-49640000D02*
X217092500Y-49640000D01*
X217372500Y-49360000D01*
X217372500Y-49640000D01*
G36*
X217372500Y-49640000D02*
G01*
X217092500Y-49640000D01*
X217372500Y-49360000D01*
X217372500Y-49640000D01*
G37*
%TO.C,D2*%
X183727500Y-52765000D02*
X183727500Y-54235000D01*
X183727500Y-54235000D02*
X186012500Y-54235000D01*
X186012500Y-52765000D02*
X183727500Y-52765000D01*
%TO.C,SW1*%
X182930000Y-45430000D02*
X187070000Y-45430000D01*
X182930000Y-45730000D02*
X182930000Y-45430000D01*
X182930000Y-48570000D02*
X182930000Y-48270000D01*
X187070000Y-45430000D02*
X187070000Y-45730000D01*
X187070000Y-48270000D02*
X187070000Y-48570000D01*
X187070000Y-48570000D02*
X182930000Y-48570000D01*
%TO.C,C8*%
X220490000Y-52859420D02*
X220490000Y-53140580D01*
X221510000Y-52859420D02*
X221510000Y-53140580D01*
%TO.C,C1*%
X197490000Y-50634420D02*
X197490000Y-50915580D01*
X198510000Y-50634420D02*
X198510000Y-50915580D01*
%TO.C,FB1*%
X221899622Y-47940000D02*
X221100378Y-47940000D01*
X221899622Y-49060000D02*
X221100378Y-49060000D01*
%TO.C,U2*%
X202640000Y-44727500D02*
X202640000Y-45177500D01*
X202640000Y-51947500D02*
X202640000Y-51497500D01*
X203090000Y-44727500D02*
X202640000Y-44727500D01*
X203090000Y-51947500D02*
X202640000Y-51947500D01*
X209410000Y-44727500D02*
X209860000Y-44727500D01*
X209410000Y-51947500D02*
X209860000Y-51947500D01*
X209860000Y-44727500D02*
X209860000Y-45177500D01*
X209860000Y-51947500D02*
X209860000Y-51497500D01*
X202050000Y-45177500D02*
X201710000Y-44707500D01*
X202390000Y-44707500D01*
X202050000Y-45177500D01*
G36*
X202050000Y-45177500D02*
G01*
X201710000Y-44707500D01*
X202390000Y-44707500D01*
X202050000Y-45177500D01*
G37*
D10*
%TO.C,J1*%
X223920000Y-48080000D02*
X223920000Y-48805000D01*
X223920000Y-48805000D02*
X224345000Y-48805000D01*
X224345000Y-45205000D02*
X224345000Y-44205000D01*
X224345000Y-48805000D02*
X224345000Y-49805000D01*
X226095000Y-51155000D02*
X227495000Y-51155000D01*
X227495000Y-42855000D02*
X226095000Y-42855000D01*
X229895000Y-51155000D02*
X230045000Y-51155000D01*
X230045000Y-42855000D02*
X229895000Y-42855000D01*
X230045000Y-43155000D02*
X230045000Y-42855000D01*
X230045000Y-50855000D02*
X230495000Y-50855000D01*
X230045000Y-51155000D02*
X230045000Y-50855000D01*
X230495000Y-43155000D02*
X230045000Y-43155000D01*
D11*
%TO.C,C11*%
X187990000Y-43859420D02*
X187990000Y-44140580D01*
X189010000Y-43859420D02*
X189010000Y-44140580D01*
%TO.C,JP1*%
X216750000Y-41000000D02*
X219550000Y-41000000D01*
X216750000Y-43000000D02*
X216750000Y-41000000D01*
X219550000Y-41000000D02*
X219550000Y-43000000D01*
X219550000Y-43000000D02*
X216750000Y-43000000D01*
%TO.C,Y1*%
X190637500Y-44362500D02*
X190637500Y-50112500D01*
X194237500Y-44362500D02*
X190637500Y-44362500D01*
X194237500Y-50112500D02*
X194237500Y-44362500D01*
%TO.C,C9*%
X215990000Y-52859420D02*
X215990000Y-53140580D01*
X217010000Y-52859420D02*
X217010000Y-53140580D01*
%TO.C,C7*%
X212412164Y-44140000D02*
X212627836Y-44140000D01*
X212412164Y-44860000D02*
X212627836Y-44860000D01*
%TO.C,C2*%
X196140000Y-50372164D02*
X196140000Y-50587836D01*
X196860000Y-50372164D02*
X196860000Y-50587836D01*
%TO.C,C3*%
X199140580Y-42490000D02*
X198859420Y-42490000D01*
X199140580Y-43510000D02*
X198859420Y-43510000D01*
%TO.C,J2*%
X183310000Y-35170000D02*
X183310000Y-37830000D01*
X218930000Y-35170000D02*
X183310000Y-35170000D01*
X218930000Y-35170000D02*
X218930000Y-37830000D01*
X218930000Y-37830000D02*
X183310000Y-37830000D01*
X220200000Y-35170000D02*
X221530000Y-35170000D01*
X221530000Y-35170000D02*
X221530000Y-36500000D01*
%TO.C,C10*%
X186140580Y-48990000D02*
X185859420Y-48990000D01*
X186140580Y-50010000D02*
X185859420Y-50010000D01*
%TO.C,C4*%
X200107836Y-44140000D02*
X199892164Y-44140000D01*
X200107836Y-44860000D02*
X199892164Y-44860000D01*
%TO.C,C12*%
X192829664Y-43052500D02*
X193045336Y-43052500D01*
X192829664Y-43772500D02*
X193045336Y-43772500D01*
%TO.C,R1*%
X213977500Y-52762742D02*
X213977500Y-53237258D01*
X215022500Y-52762742D02*
X215022500Y-53237258D01*
%TO.C,C6*%
X209392164Y-54140000D02*
X209607836Y-54140000D01*
X209392164Y-54860000D02*
X209607836Y-54860000D01*
%TO.C,R5*%
X216120000Y-46346359D02*
X216120000Y-46653641D01*
X216880000Y-46346359D02*
X216880000Y-46653641D01*
%TO.C,J3*%
X184230000Y-58170000D02*
X184230000Y-60830000D01*
X219850000Y-58170000D02*
X184230000Y-58170000D01*
X219850000Y-58170000D02*
X219850000Y-60830000D01*
X219850000Y-60830000D02*
X184230000Y-60830000D01*
X221120000Y-58170000D02*
X222450000Y-58170000D01*
X222450000Y-58170000D02*
X222450000Y-59500000D01*
%TO.C,C13*%
X192809664Y-51052500D02*
X193025336Y-51052500D01*
X192809664Y-51772500D02*
X193025336Y-51772500D01*
%TD*%
M02*
