%TF.GenerationSoftware,KiCad,Pcbnew,8.0.7*%
%TF.CreationDate,2024-12-20T19:08:50+02:00*%
%TF.ProjectId,STM32TrialPcb,53544d33-3254-4726-9961-6c5063622e6b,rev?*%
%TF.SameCoordinates,Original*%
%TF.FileFunction,Drillmap*%
%TF.FilePolarity,Positive*%
%FSLAX45Y45*%
G04 Gerber Fmt 4.5, Leading zero omitted, Abs format (unit mm)*
G04 Created by KiCad (PCBNEW 8.0.7) date 2024-12-20 19:08:50*
%MOMM*%
%LPD*%
G01*
G04 APERTURE LIST*
%ADD10C,0.050000*%
%ADD11C,0.200000*%
%ADD12C,0.100000*%
G04 APERTURE END LIST*
D10*
X18050000Y-3350000D02*
X18050000Y-6350000D01*
X23100000Y-3350000D02*
X18050000Y-3350000D01*
X23100000Y-6350000D02*
X23100000Y-3350000D01*
X18050000Y-6350000D02*
X23100000Y-6350000D01*
D11*
D12*
X22554500Y-4410500D02*
X22634500Y-4490500D01*
X22634500Y-4410500D02*
X22554500Y-4490500D01*
X22554500Y-4910500D02*
X22634500Y-4990500D01*
X22634500Y-4910500D02*
X22554500Y-4990500D01*
D11*
X18308277Y-6663984D02*
X18308277Y-6463984D01*
X18308277Y-6463984D02*
X18355896Y-6463984D01*
X18355896Y-6463984D02*
X18384467Y-6473508D01*
X18384467Y-6473508D02*
X18403515Y-6492555D01*
X18403515Y-6492555D02*
X18413039Y-6511603D01*
X18413039Y-6511603D02*
X18422563Y-6549698D01*
X18422563Y-6549698D02*
X18422563Y-6578269D01*
X18422563Y-6578269D02*
X18413039Y-6616365D01*
X18413039Y-6616365D02*
X18403515Y-6635412D01*
X18403515Y-6635412D02*
X18384467Y-6654460D01*
X18384467Y-6654460D02*
X18355896Y-6663984D01*
X18355896Y-6663984D02*
X18308277Y-6663984D01*
X18508277Y-6663984D02*
X18508277Y-6530650D01*
X18508277Y-6568746D02*
X18517801Y-6549698D01*
X18517801Y-6549698D02*
X18527324Y-6540174D01*
X18527324Y-6540174D02*
X18546372Y-6530650D01*
X18546372Y-6530650D02*
X18565420Y-6530650D01*
X18632086Y-6663984D02*
X18632086Y-6530650D01*
X18632086Y-6463984D02*
X18622563Y-6473508D01*
X18622563Y-6473508D02*
X18632086Y-6483031D01*
X18632086Y-6483031D02*
X18641610Y-6473508D01*
X18641610Y-6473508D02*
X18632086Y-6463984D01*
X18632086Y-6463984D02*
X18632086Y-6483031D01*
X18755896Y-6663984D02*
X18736848Y-6654460D01*
X18736848Y-6654460D02*
X18727324Y-6635412D01*
X18727324Y-6635412D02*
X18727324Y-6463984D01*
X18860658Y-6663984D02*
X18841610Y-6654460D01*
X18841610Y-6654460D02*
X18832086Y-6635412D01*
X18832086Y-6635412D02*
X18832086Y-6463984D01*
X19089229Y-6663984D02*
X19089229Y-6463984D01*
X19089229Y-6463984D02*
X19155896Y-6606841D01*
X19155896Y-6606841D02*
X19222563Y-6463984D01*
X19222563Y-6463984D02*
X19222563Y-6663984D01*
X19403515Y-6663984D02*
X19403515Y-6559222D01*
X19403515Y-6559222D02*
X19393991Y-6540174D01*
X19393991Y-6540174D02*
X19374944Y-6530650D01*
X19374944Y-6530650D02*
X19336848Y-6530650D01*
X19336848Y-6530650D02*
X19317801Y-6540174D01*
X19403515Y-6654460D02*
X19384467Y-6663984D01*
X19384467Y-6663984D02*
X19336848Y-6663984D01*
X19336848Y-6663984D02*
X19317801Y-6654460D01*
X19317801Y-6654460D02*
X19308277Y-6635412D01*
X19308277Y-6635412D02*
X19308277Y-6616365D01*
X19308277Y-6616365D02*
X19317801Y-6597317D01*
X19317801Y-6597317D02*
X19336848Y-6587793D01*
X19336848Y-6587793D02*
X19384467Y-6587793D01*
X19384467Y-6587793D02*
X19403515Y-6578269D01*
X19498753Y-6530650D02*
X19498753Y-6730650D01*
X19498753Y-6540174D02*
X19517801Y-6530650D01*
X19517801Y-6530650D02*
X19555896Y-6530650D01*
X19555896Y-6530650D02*
X19574944Y-6540174D01*
X19574944Y-6540174D02*
X19584467Y-6549698D01*
X19584467Y-6549698D02*
X19593991Y-6568746D01*
X19593991Y-6568746D02*
X19593991Y-6625888D01*
X19593991Y-6625888D02*
X19584467Y-6644936D01*
X19584467Y-6644936D02*
X19574944Y-6654460D01*
X19574944Y-6654460D02*
X19555896Y-6663984D01*
X19555896Y-6663984D02*
X19517801Y-6663984D01*
X19517801Y-6663984D02*
X19498753Y-6654460D01*
X19679705Y-6644936D02*
X19689229Y-6654460D01*
X19689229Y-6654460D02*
X19679705Y-6663984D01*
X19679705Y-6663984D02*
X19670182Y-6654460D01*
X19670182Y-6654460D02*
X19679705Y-6644936D01*
X19679705Y-6644936D02*
X19679705Y-6663984D01*
X19679705Y-6540174D02*
X19689229Y-6549698D01*
X19689229Y-6549698D02*
X19679705Y-6559222D01*
X19679705Y-6559222D02*
X19670182Y-6549698D01*
X19670182Y-6549698D02*
X19679705Y-6540174D01*
X19679705Y-6540174D02*
X19679705Y-6559222D01*
D12*
X17967500Y-6952500D02*
X18047500Y-7032500D01*
X18047500Y-6952500D02*
X17967500Y-7032500D01*
D11*
X18346372Y-6883984D02*
X18365420Y-6883984D01*
X18365420Y-6883984D02*
X18384467Y-6893508D01*
X18384467Y-6893508D02*
X18393991Y-6903031D01*
X18393991Y-6903031D02*
X18403515Y-6922079D01*
X18403515Y-6922079D02*
X18413039Y-6960174D01*
X18413039Y-6960174D02*
X18413039Y-7007793D01*
X18413039Y-7007793D02*
X18403515Y-7045888D01*
X18403515Y-7045888D02*
X18393991Y-7064936D01*
X18393991Y-7064936D02*
X18384467Y-7074460D01*
X18384467Y-7074460D02*
X18365420Y-7083984D01*
X18365420Y-7083984D02*
X18346372Y-7083984D01*
X18346372Y-7083984D02*
X18327324Y-7074460D01*
X18327324Y-7074460D02*
X18317801Y-7064936D01*
X18317801Y-7064936D02*
X18308277Y-7045888D01*
X18308277Y-7045888D02*
X18298753Y-7007793D01*
X18298753Y-7007793D02*
X18298753Y-6960174D01*
X18298753Y-6960174D02*
X18308277Y-6922079D01*
X18308277Y-6922079D02*
X18317801Y-6903031D01*
X18317801Y-6903031D02*
X18327324Y-6893508D01*
X18327324Y-6893508D02*
X18346372Y-6883984D01*
X18498753Y-7064936D02*
X18508277Y-7074460D01*
X18508277Y-7074460D02*
X18498753Y-7083984D01*
X18498753Y-7083984D02*
X18489229Y-7074460D01*
X18489229Y-7074460D02*
X18498753Y-7064936D01*
X18498753Y-7064936D02*
X18498753Y-7083984D01*
X18622563Y-6969698D02*
X18603515Y-6960174D01*
X18603515Y-6960174D02*
X18593991Y-6950650D01*
X18593991Y-6950650D02*
X18584467Y-6931603D01*
X18584467Y-6931603D02*
X18584467Y-6922079D01*
X18584467Y-6922079D02*
X18593991Y-6903031D01*
X18593991Y-6903031D02*
X18603515Y-6893508D01*
X18603515Y-6893508D02*
X18622563Y-6883984D01*
X18622563Y-6883984D02*
X18660658Y-6883984D01*
X18660658Y-6883984D02*
X18679705Y-6893508D01*
X18679705Y-6893508D02*
X18689229Y-6903031D01*
X18689229Y-6903031D02*
X18698753Y-6922079D01*
X18698753Y-6922079D02*
X18698753Y-6931603D01*
X18698753Y-6931603D02*
X18689229Y-6950650D01*
X18689229Y-6950650D02*
X18679705Y-6960174D01*
X18679705Y-6960174D02*
X18660658Y-6969698D01*
X18660658Y-6969698D02*
X18622563Y-6969698D01*
X18622563Y-6969698D02*
X18603515Y-6979222D01*
X18603515Y-6979222D02*
X18593991Y-6988746D01*
X18593991Y-6988746D02*
X18584467Y-7007793D01*
X18584467Y-7007793D02*
X18584467Y-7045888D01*
X18584467Y-7045888D02*
X18593991Y-7064936D01*
X18593991Y-7064936D02*
X18603515Y-7074460D01*
X18603515Y-7074460D02*
X18622563Y-7083984D01*
X18622563Y-7083984D02*
X18660658Y-7083984D01*
X18660658Y-7083984D02*
X18679705Y-7074460D01*
X18679705Y-7074460D02*
X18689229Y-7064936D01*
X18689229Y-7064936D02*
X18698753Y-7045888D01*
X18698753Y-7045888D02*
X18698753Y-7007793D01*
X18698753Y-7007793D02*
X18689229Y-6988746D01*
X18689229Y-6988746D02*
X18679705Y-6979222D01*
X18679705Y-6979222D02*
X18660658Y-6969698D01*
X18822563Y-6883984D02*
X18841610Y-6883984D01*
X18841610Y-6883984D02*
X18860658Y-6893508D01*
X18860658Y-6893508D02*
X18870182Y-6903031D01*
X18870182Y-6903031D02*
X18879705Y-6922079D01*
X18879705Y-6922079D02*
X18889229Y-6960174D01*
X18889229Y-6960174D02*
X18889229Y-7007793D01*
X18889229Y-7007793D02*
X18879705Y-7045888D01*
X18879705Y-7045888D02*
X18870182Y-7064936D01*
X18870182Y-7064936D02*
X18860658Y-7074460D01*
X18860658Y-7074460D02*
X18841610Y-7083984D01*
X18841610Y-7083984D02*
X18822563Y-7083984D01*
X18822563Y-7083984D02*
X18803515Y-7074460D01*
X18803515Y-7074460D02*
X18793991Y-7064936D01*
X18793991Y-7064936D02*
X18784467Y-7045888D01*
X18784467Y-7045888D02*
X18774944Y-7007793D01*
X18774944Y-7007793D02*
X18774944Y-6960174D01*
X18774944Y-6960174D02*
X18784467Y-6922079D01*
X18784467Y-6922079D02*
X18793991Y-6903031D01*
X18793991Y-6903031D02*
X18803515Y-6893508D01*
X18803515Y-6893508D02*
X18822563Y-6883984D01*
X19013039Y-6883984D02*
X19032086Y-6883984D01*
X19032086Y-6883984D02*
X19051134Y-6893508D01*
X19051134Y-6893508D02*
X19060658Y-6903031D01*
X19060658Y-6903031D02*
X19070182Y-6922079D01*
X19070182Y-6922079D02*
X19079705Y-6960174D01*
X19079705Y-6960174D02*
X19079705Y-7007793D01*
X19079705Y-7007793D02*
X19070182Y-7045888D01*
X19070182Y-7045888D02*
X19060658Y-7064936D01*
X19060658Y-7064936D02*
X19051134Y-7074460D01*
X19051134Y-7074460D02*
X19032086Y-7083984D01*
X19032086Y-7083984D02*
X19013039Y-7083984D01*
X19013039Y-7083984D02*
X18993991Y-7074460D01*
X18993991Y-7074460D02*
X18984467Y-7064936D01*
X18984467Y-7064936D02*
X18974944Y-7045888D01*
X18974944Y-7045888D02*
X18965420Y-7007793D01*
X18965420Y-7007793D02*
X18965420Y-6960174D01*
X18965420Y-6960174D02*
X18974944Y-6922079D01*
X18974944Y-6922079D02*
X18984467Y-6903031D01*
X18984467Y-6903031D02*
X18993991Y-6893508D01*
X18993991Y-6893508D02*
X19013039Y-6883984D01*
X19165420Y-7083984D02*
X19165420Y-6950650D01*
X19165420Y-6969698D02*
X19174944Y-6960174D01*
X19174944Y-6960174D02*
X19193991Y-6950650D01*
X19193991Y-6950650D02*
X19222563Y-6950650D01*
X19222563Y-6950650D02*
X19241610Y-6960174D01*
X19241610Y-6960174D02*
X19251134Y-6979222D01*
X19251134Y-6979222D02*
X19251134Y-7083984D01*
X19251134Y-6979222D02*
X19260658Y-6960174D01*
X19260658Y-6960174D02*
X19279705Y-6950650D01*
X19279705Y-6950650D02*
X19308277Y-6950650D01*
X19308277Y-6950650D02*
X19327325Y-6960174D01*
X19327325Y-6960174D02*
X19336848Y-6979222D01*
X19336848Y-6979222D02*
X19336848Y-7083984D01*
X19432086Y-7083984D02*
X19432086Y-6950650D01*
X19432086Y-6969698D02*
X19441610Y-6960174D01*
X19441610Y-6960174D02*
X19460658Y-6950650D01*
X19460658Y-6950650D02*
X19489229Y-6950650D01*
X19489229Y-6950650D02*
X19508277Y-6960174D01*
X19508277Y-6960174D02*
X19517801Y-6979222D01*
X19517801Y-6979222D02*
X19517801Y-7083984D01*
X19517801Y-6979222D02*
X19527325Y-6960174D01*
X19527325Y-6960174D02*
X19546372Y-6950650D01*
X19546372Y-6950650D02*
X19574944Y-6950650D01*
X19574944Y-6950650D02*
X19593991Y-6960174D01*
X19593991Y-6960174D02*
X19603515Y-6979222D01*
X19603515Y-6979222D02*
X19603515Y-7083984D01*
X19993991Y-6874460D02*
X19822563Y-7131603D01*
X20251134Y-6883984D02*
X20270182Y-6883984D01*
X20270182Y-6883984D02*
X20289229Y-6893508D01*
X20289229Y-6893508D02*
X20298753Y-6903031D01*
X20298753Y-6903031D02*
X20308277Y-6922079D01*
X20308277Y-6922079D02*
X20317801Y-6960174D01*
X20317801Y-6960174D02*
X20317801Y-7007793D01*
X20317801Y-7007793D02*
X20308277Y-7045888D01*
X20308277Y-7045888D02*
X20298753Y-7064936D01*
X20298753Y-7064936D02*
X20289229Y-7074460D01*
X20289229Y-7074460D02*
X20270182Y-7083984D01*
X20270182Y-7083984D02*
X20251134Y-7083984D01*
X20251134Y-7083984D02*
X20232087Y-7074460D01*
X20232087Y-7074460D02*
X20222563Y-7064936D01*
X20222563Y-7064936D02*
X20213039Y-7045888D01*
X20213039Y-7045888D02*
X20203515Y-7007793D01*
X20203515Y-7007793D02*
X20203515Y-6960174D01*
X20203515Y-6960174D02*
X20213039Y-6922079D01*
X20213039Y-6922079D02*
X20222563Y-6903031D01*
X20222563Y-6903031D02*
X20232087Y-6893508D01*
X20232087Y-6893508D02*
X20251134Y-6883984D01*
X20403515Y-7064936D02*
X20413039Y-7074460D01*
X20413039Y-7074460D02*
X20403515Y-7083984D01*
X20403515Y-7083984D02*
X20393991Y-7074460D01*
X20393991Y-7074460D02*
X20403515Y-7064936D01*
X20403515Y-7064936D02*
X20403515Y-7083984D01*
X20536848Y-6883984D02*
X20555896Y-6883984D01*
X20555896Y-6883984D02*
X20574944Y-6893508D01*
X20574944Y-6893508D02*
X20584468Y-6903031D01*
X20584468Y-6903031D02*
X20593991Y-6922079D01*
X20593991Y-6922079D02*
X20603515Y-6960174D01*
X20603515Y-6960174D02*
X20603515Y-7007793D01*
X20603515Y-7007793D02*
X20593991Y-7045888D01*
X20593991Y-7045888D02*
X20584468Y-7064936D01*
X20584468Y-7064936D02*
X20574944Y-7074460D01*
X20574944Y-7074460D02*
X20555896Y-7083984D01*
X20555896Y-7083984D02*
X20536848Y-7083984D01*
X20536848Y-7083984D02*
X20517801Y-7074460D01*
X20517801Y-7074460D02*
X20508277Y-7064936D01*
X20508277Y-7064936D02*
X20498753Y-7045888D01*
X20498753Y-7045888D02*
X20489229Y-7007793D01*
X20489229Y-7007793D02*
X20489229Y-6960174D01*
X20489229Y-6960174D02*
X20498753Y-6922079D01*
X20498753Y-6922079D02*
X20508277Y-6903031D01*
X20508277Y-6903031D02*
X20517801Y-6893508D01*
X20517801Y-6893508D02*
X20536848Y-6883984D01*
X20670182Y-6883984D02*
X20793991Y-6883984D01*
X20793991Y-6883984D02*
X20727325Y-6960174D01*
X20727325Y-6960174D02*
X20755896Y-6960174D01*
X20755896Y-6960174D02*
X20774944Y-6969698D01*
X20774944Y-6969698D02*
X20784468Y-6979222D01*
X20784468Y-6979222D02*
X20793991Y-6998269D01*
X20793991Y-6998269D02*
X20793991Y-7045888D01*
X20793991Y-7045888D02*
X20784468Y-7064936D01*
X20784468Y-7064936D02*
X20774944Y-7074460D01*
X20774944Y-7074460D02*
X20755896Y-7083984D01*
X20755896Y-7083984D02*
X20698753Y-7083984D01*
X20698753Y-7083984D02*
X20679706Y-7074460D01*
X20679706Y-7074460D02*
X20670182Y-7064936D01*
X20984468Y-7083984D02*
X20870182Y-7083984D01*
X20927325Y-7083984D02*
X20927325Y-6883984D01*
X20927325Y-6883984D02*
X20908277Y-6912555D01*
X20908277Y-6912555D02*
X20889229Y-6931603D01*
X20889229Y-6931603D02*
X20870182Y-6941127D01*
X21165420Y-6883984D02*
X21070182Y-6883984D01*
X21070182Y-6883984D02*
X21060658Y-6979222D01*
X21060658Y-6979222D02*
X21070182Y-6969698D01*
X21070182Y-6969698D02*
X21089229Y-6960174D01*
X21089229Y-6960174D02*
X21136849Y-6960174D01*
X21136849Y-6960174D02*
X21155896Y-6969698D01*
X21155896Y-6969698D02*
X21165420Y-6979222D01*
X21165420Y-6979222D02*
X21174944Y-6998269D01*
X21174944Y-6998269D02*
X21174944Y-7045888D01*
X21174944Y-7045888D02*
X21165420Y-7064936D01*
X21165420Y-7064936D02*
X21155896Y-7074460D01*
X21155896Y-7074460D02*
X21136849Y-7083984D01*
X21136849Y-7083984D02*
X21089229Y-7083984D01*
X21089229Y-7083984D02*
X21070182Y-7074460D01*
X21070182Y-7074460D02*
X21060658Y-7064936D01*
X21251134Y-6883984D02*
X21251134Y-6922079D01*
X21327325Y-6883984D02*
X21327325Y-6922079D01*
X21622563Y-7160174D02*
X21613039Y-7150650D01*
X21613039Y-7150650D02*
X21593991Y-7122079D01*
X21593991Y-7122079D02*
X21584468Y-7103031D01*
X21584468Y-7103031D02*
X21574944Y-7074460D01*
X21574944Y-7074460D02*
X21565420Y-7026841D01*
X21565420Y-7026841D02*
X21565420Y-6988746D01*
X21565420Y-6988746D02*
X21574944Y-6941127D01*
X21574944Y-6941127D02*
X21584468Y-6912555D01*
X21584468Y-6912555D02*
X21593991Y-6893508D01*
X21593991Y-6893508D02*
X21613039Y-6864936D01*
X21613039Y-6864936D02*
X21622563Y-6855412D01*
X21689230Y-6903031D02*
X21698753Y-6893508D01*
X21698753Y-6893508D02*
X21717801Y-6883984D01*
X21717801Y-6883984D02*
X21765420Y-6883984D01*
X21765420Y-6883984D02*
X21784468Y-6893508D01*
X21784468Y-6893508D02*
X21793991Y-6903031D01*
X21793991Y-6903031D02*
X21803515Y-6922079D01*
X21803515Y-6922079D02*
X21803515Y-6941127D01*
X21803515Y-6941127D02*
X21793991Y-6969698D01*
X21793991Y-6969698D02*
X21679706Y-7083984D01*
X21679706Y-7083984D02*
X21803515Y-7083984D01*
X22041611Y-7083984D02*
X22041611Y-6883984D01*
X22127325Y-7083984D02*
X22127325Y-6979222D01*
X22127325Y-6979222D02*
X22117801Y-6960174D01*
X22117801Y-6960174D02*
X22098753Y-6950650D01*
X22098753Y-6950650D02*
X22070182Y-6950650D01*
X22070182Y-6950650D02*
X22051134Y-6960174D01*
X22051134Y-6960174D02*
X22041611Y-6969698D01*
X22251134Y-7083984D02*
X22232087Y-7074460D01*
X22232087Y-7074460D02*
X22222563Y-7064936D01*
X22222563Y-7064936D02*
X22213039Y-7045888D01*
X22213039Y-7045888D02*
X22213039Y-6988746D01*
X22213039Y-6988746D02*
X22222563Y-6969698D01*
X22222563Y-6969698D02*
X22232087Y-6960174D01*
X22232087Y-6960174D02*
X22251134Y-6950650D01*
X22251134Y-6950650D02*
X22279706Y-6950650D01*
X22279706Y-6950650D02*
X22298753Y-6960174D01*
X22298753Y-6960174D02*
X22308277Y-6969698D01*
X22308277Y-6969698D02*
X22317801Y-6988746D01*
X22317801Y-6988746D02*
X22317801Y-7045888D01*
X22317801Y-7045888D02*
X22308277Y-7064936D01*
X22308277Y-7064936D02*
X22298753Y-7074460D01*
X22298753Y-7074460D02*
X22279706Y-7083984D01*
X22279706Y-7083984D02*
X22251134Y-7083984D01*
X22432087Y-7083984D02*
X22413039Y-7074460D01*
X22413039Y-7074460D02*
X22403515Y-7055412D01*
X22403515Y-7055412D02*
X22403515Y-6883984D01*
X22584468Y-7074460D02*
X22565420Y-7083984D01*
X22565420Y-7083984D02*
X22527325Y-7083984D01*
X22527325Y-7083984D02*
X22508277Y-7074460D01*
X22508277Y-7074460D02*
X22498753Y-7055412D01*
X22498753Y-7055412D02*
X22498753Y-6979222D01*
X22498753Y-6979222D02*
X22508277Y-6960174D01*
X22508277Y-6960174D02*
X22527325Y-6950650D01*
X22527325Y-6950650D02*
X22565420Y-6950650D01*
X22565420Y-6950650D02*
X22584468Y-6960174D01*
X22584468Y-6960174D02*
X22593991Y-6979222D01*
X22593991Y-6979222D02*
X22593991Y-6998269D01*
X22593991Y-6998269D02*
X22498753Y-7017317D01*
X22670182Y-7074460D02*
X22689230Y-7083984D01*
X22689230Y-7083984D02*
X22727325Y-7083984D01*
X22727325Y-7083984D02*
X22746372Y-7074460D01*
X22746372Y-7074460D02*
X22755896Y-7055412D01*
X22755896Y-7055412D02*
X22755896Y-7045888D01*
X22755896Y-7045888D02*
X22746372Y-7026841D01*
X22746372Y-7026841D02*
X22727325Y-7017317D01*
X22727325Y-7017317D02*
X22698753Y-7017317D01*
X22698753Y-7017317D02*
X22679706Y-7007793D01*
X22679706Y-7007793D02*
X22670182Y-6988746D01*
X22670182Y-6988746D02*
X22670182Y-6979222D01*
X22670182Y-6979222D02*
X22679706Y-6960174D01*
X22679706Y-6960174D02*
X22698753Y-6950650D01*
X22698753Y-6950650D02*
X22727325Y-6950650D01*
X22727325Y-6950650D02*
X22746372Y-6960174D01*
X22822563Y-7160174D02*
X22832087Y-7150650D01*
X22832087Y-7150650D02*
X22851134Y-7122079D01*
X22851134Y-7122079D02*
X22860658Y-7103031D01*
X22860658Y-7103031D02*
X22870182Y-7074460D01*
X22870182Y-7074460D02*
X22879706Y-7026841D01*
X22879706Y-7026841D02*
X22879706Y-6988746D01*
X22879706Y-6988746D02*
X22870182Y-6941127D01*
X22870182Y-6941127D02*
X22860658Y-6912555D01*
X22860658Y-6912555D02*
X22851134Y-6893508D01*
X22851134Y-6893508D02*
X22832087Y-6864936D01*
X22832087Y-6864936D02*
X22822563Y-6855412D01*
X23184468Y-7160174D02*
X23174944Y-7150650D01*
X23174944Y-7150650D02*
X23155896Y-7122079D01*
X23155896Y-7122079D02*
X23146372Y-7103031D01*
X23146372Y-7103031D02*
X23136849Y-7074460D01*
X23136849Y-7074460D02*
X23127325Y-7026841D01*
X23127325Y-7026841D02*
X23127325Y-6988746D01*
X23127325Y-6988746D02*
X23136849Y-6941127D01*
X23136849Y-6941127D02*
X23146372Y-6912555D01*
X23146372Y-6912555D02*
X23155896Y-6893508D01*
X23155896Y-6893508D02*
X23174944Y-6864936D01*
X23174944Y-6864936D02*
X23184468Y-6855412D01*
X23260658Y-6950650D02*
X23260658Y-7083984D01*
X23260658Y-6969698D02*
X23270182Y-6960174D01*
X23270182Y-6960174D02*
X23289230Y-6950650D01*
X23289230Y-6950650D02*
X23317801Y-6950650D01*
X23317801Y-6950650D02*
X23336849Y-6960174D01*
X23336849Y-6960174D02*
X23346372Y-6979222D01*
X23346372Y-6979222D02*
X23346372Y-7083984D01*
X23470182Y-7083984D02*
X23451134Y-7074460D01*
X23451134Y-7074460D02*
X23441611Y-7064936D01*
X23441611Y-7064936D02*
X23432087Y-7045888D01*
X23432087Y-7045888D02*
X23432087Y-6988746D01*
X23432087Y-6988746D02*
X23441611Y-6969698D01*
X23441611Y-6969698D02*
X23451134Y-6960174D01*
X23451134Y-6960174D02*
X23470182Y-6950650D01*
X23470182Y-6950650D02*
X23498753Y-6950650D01*
X23498753Y-6950650D02*
X23517801Y-6960174D01*
X23517801Y-6960174D02*
X23527325Y-6969698D01*
X23527325Y-6969698D02*
X23536849Y-6988746D01*
X23536849Y-6988746D02*
X23536849Y-7045888D01*
X23536849Y-7045888D02*
X23527325Y-7064936D01*
X23527325Y-7064936D02*
X23517801Y-7074460D01*
X23517801Y-7074460D02*
X23498753Y-7083984D01*
X23498753Y-7083984D02*
X23470182Y-7083984D01*
X23593992Y-6950650D02*
X23670182Y-6950650D01*
X23622563Y-6883984D02*
X23622563Y-7055412D01*
X23622563Y-7055412D02*
X23632087Y-7074460D01*
X23632087Y-7074460D02*
X23651134Y-7083984D01*
X23651134Y-7083984D02*
X23670182Y-7083984D01*
X23889230Y-6950650D02*
X23889230Y-7150650D01*
X23889230Y-6960174D02*
X23908277Y-6950650D01*
X23908277Y-6950650D02*
X23946373Y-6950650D01*
X23946373Y-6950650D02*
X23965420Y-6960174D01*
X23965420Y-6960174D02*
X23974944Y-6969698D01*
X23974944Y-6969698D02*
X23984468Y-6988746D01*
X23984468Y-6988746D02*
X23984468Y-7045888D01*
X23984468Y-7045888D02*
X23974944Y-7064936D01*
X23974944Y-7064936D02*
X23965420Y-7074460D01*
X23965420Y-7074460D02*
X23946373Y-7083984D01*
X23946373Y-7083984D02*
X23908277Y-7083984D01*
X23908277Y-7083984D02*
X23889230Y-7074460D01*
X24098753Y-7083984D02*
X24079706Y-7074460D01*
X24079706Y-7074460D02*
X24070182Y-7055412D01*
X24070182Y-7055412D02*
X24070182Y-6883984D01*
X24260658Y-7083984D02*
X24260658Y-6979222D01*
X24260658Y-6979222D02*
X24251134Y-6960174D01*
X24251134Y-6960174D02*
X24232087Y-6950650D01*
X24232087Y-6950650D02*
X24193992Y-6950650D01*
X24193992Y-6950650D02*
X24174944Y-6960174D01*
X24260658Y-7074460D02*
X24241611Y-7083984D01*
X24241611Y-7083984D02*
X24193992Y-7083984D01*
X24193992Y-7083984D02*
X24174944Y-7074460D01*
X24174944Y-7074460D02*
X24165420Y-7055412D01*
X24165420Y-7055412D02*
X24165420Y-7036365D01*
X24165420Y-7036365D02*
X24174944Y-7017317D01*
X24174944Y-7017317D02*
X24193992Y-7007793D01*
X24193992Y-7007793D02*
X24241611Y-7007793D01*
X24241611Y-7007793D02*
X24260658Y-6998269D01*
X24327325Y-6950650D02*
X24403515Y-6950650D01*
X24355896Y-6883984D02*
X24355896Y-7055412D01*
X24355896Y-7055412D02*
X24365420Y-7074460D01*
X24365420Y-7074460D02*
X24384468Y-7083984D01*
X24384468Y-7083984D02*
X24403515Y-7083984D01*
X24546373Y-7074460D02*
X24527325Y-7083984D01*
X24527325Y-7083984D02*
X24489230Y-7083984D01*
X24489230Y-7083984D02*
X24470182Y-7074460D01*
X24470182Y-7074460D02*
X24460658Y-7055412D01*
X24460658Y-7055412D02*
X24460658Y-6979222D01*
X24460658Y-6979222D02*
X24470182Y-6960174D01*
X24470182Y-6960174D02*
X24489230Y-6950650D01*
X24489230Y-6950650D02*
X24527325Y-6950650D01*
X24527325Y-6950650D02*
X24546373Y-6960174D01*
X24546373Y-6960174D02*
X24555896Y-6979222D01*
X24555896Y-6979222D02*
X24555896Y-6998269D01*
X24555896Y-6998269D02*
X24460658Y-7017317D01*
X24727325Y-7083984D02*
X24727325Y-6883984D01*
X24727325Y-7074460D02*
X24708277Y-7083984D01*
X24708277Y-7083984D02*
X24670182Y-7083984D01*
X24670182Y-7083984D02*
X24651134Y-7074460D01*
X24651134Y-7074460D02*
X24641611Y-7064936D01*
X24641611Y-7064936D02*
X24632087Y-7045888D01*
X24632087Y-7045888D02*
X24632087Y-6988746D01*
X24632087Y-6988746D02*
X24641611Y-6969698D01*
X24641611Y-6969698D02*
X24651134Y-6960174D01*
X24651134Y-6960174D02*
X24670182Y-6950650D01*
X24670182Y-6950650D02*
X24708277Y-6950650D01*
X24708277Y-6950650D02*
X24727325Y-6960174D01*
X24803515Y-7160174D02*
X24813039Y-7150650D01*
X24813039Y-7150650D02*
X24832087Y-7122079D01*
X24832087Y-7122079D02*
X24841611Y-7103031D01*
X24841611Y-7103031D02*
X24851134Y-7074460D01*
X24851134Y-7074460D02*
X24860658Y-7026841D01*
X24860658Y-7026841D02*
X24860658Y-6988746D01*
X24860658Y-6988746D02*
X24851134Y-6941127D01*
X24851134Y-6941127D02*
X24841611Y-6912555D01*
X24841611Y-6912555D02*
X24832087Y-6893508D01*
X24832087Y-6893508D02*
X24813039Y-6864936D01*
X24813039Y-6864936D02*
X24803515Y-6855412D01*
M02*
