%TF.GenerationSoftware,KiCad,Pcbnew,8.0.7*%
%TF.CreationDate,2024-12-20T19:08:50+02:00*%
%TF.ProjectId,STM32TrialPcb,53544d33-3254-4726-9961-6c5063622e6b,rev?*%
%TF.SameCoordinates,Original*%
%TF.FileFunction,Drillmap*%
%TF.FilePolarity,Positive*%
%FSLAX45Y45*%
G04 Gerber Fmt 4.5, Leading zero omitted, Abs format (unit mm)*
G04 Created by KiCad (PCBNEW 8.0.7) date 2024-12-20 19:08:50*
%MOMM*%
%LPD*%
G01*
G04 APERTURE LIST*
%ADD10C,0.050000*%
%ADD11C,0.200000*%
%ADD12C,0.100000*%
G04 APERTURE END LIST*
D10*
X18050000Y-3350000D02*
X18050000Y-6350000D01*
X23100000Y-3350000D02*
X18050000Y-3350000D01*
X23100000Y-6350000D02*
X23100000Y-3350000D01*
X18050000Y-6350000D02*
X23100000Y-6350000D01*
D11*
D12*
X18485000Y-4185000D02*
X18515000Y-4215000D01*
X18515000Y-4185000D02*
X18485000Y-4215000D01*
X19635000Y-4185000D02*
X19665000Y-4215000D01*
X19665000Y-4185000D02*
X19635000Y-4215000D01*
X20245500Y-4287000D02*
X20275500Y-4317000D01*
X20275500Y-4287000D02*
X20245500Y-4317000D01*
X20885000Y-5635000D02*
X20915000Y-5665000D01*
X20915000Y-5635000D02*
X20885000Y-5665000D01*
X21035000Y-5235000D02*
X21065000Y-5265000D01*
X21065000Y-5235000D02*
X21035000Y-5265000D01*
X21435000Y-5535000D02*
X21465000Y-5565000D01*
X21465000Y-5535000D02*
X21435000Y-5565000D01*
X21595000Y-3985000D02*
X21625000Y-4015000D01*
X21625000Y-3985000D02*
X21595000Y-4015000D01*
X21635000Y-5535000D02*
X21665000Y-5565000D01*
X21665000Y-5535000D02*
X21635000Y-5565000D01*
X21845000Y-5685000D02*
X21875000Y-5715000D01*
X21875000Y-5685000D02*
X21845000Y-5715000D01*
X21935000Y-3885000D02*
X21965000Y-3915000D01*
X21965000Y-3885000D02*
X21935000Y-3915000D01*
X22085000Y-5535000D02*
X22115000Y-5565000D01*
X22115000Y-5535000D02*
X22085000Y-5565000D01*
X22245000Y-4535000D02*
X22275000Y-4565000D01*
X22275000Y-4535000D02*
X22245000Y-4565000D01*
X18417500Y-4925000D02*
G75*
G02*
X18382500Y-4925000I-17500J0D01*
G01*
X18382500Y-4925000D02*
G75*
G02*
X18417500Y-4925000I17500J0D01*
G01*
X18517500Y-4700000D02*
G75*
G02*
X18482500Y-4700000I-17500J0D01*
G01*
X18482500Y-4700000D02*
G75*
G02*
X18517500Y-4700000I17500J0D01*
G01*
X18717500Y-5200000D02*
G75*
G02*
X18682500Y-5200000I-17500J0D01*
G01*
X18682500Y-5200000D02*
G75*
G02*
X18717500Y-5200000I17500J0D01*
G01*
X19117500Y-4275000D02*
G75*
G02*
X19082500Y-4275000I-17500J0D01*
G01*
X19082500Y-4275000D02*
G75*
G02*
X19117500Y-4275000I17500J0D01*
G01*
X19456750Y-5141250D02*
G75*
G02*
X19421750Y-5141250I-17500J0D01*
G01*
X19421750Y-5141250D02*
G75*
G02*
X19456750Y-5141250I17500J0D01*
G01*
X19592500Y-4925000D02*
G75*
G02*
X19557500Y-4925000I-17500J0D01*
G01*
X19557500Y-4925000D02*
G75*
G02*
X19592500Y-4925000I17500J0D01*
G01*
X19617500Y-5200000D02*
G75*
G02*
X19582500Y-5200000I-17500J0D01*
G01*
X19582500Y-5200000D02*
G75*
G02*
X19617500Y-5200000I17500J0D01*
G01*
X19780000Y-5262500D02*
G75*
G02*
X19745000Y-5262500I-17500J0D01*
G01*
X19745000Y-5262500D02*
G75*
G02*
X19780000Y-5262500I17500J0D01*
G01*
X21467500Y-4300000D02*
G75*
G02*
X21432500Y-4300000I-17500J0D01*
G01*
X21432500Y-4300000D02*
G75*
G02*
X21467500Y-4300000I17500J0D01*
G01*
X21917500Y-5275000D02*
G75*
G02*
X21882500Y-5275000I-17500J0D01*
G01*
X21882500Y-5275000D02*
G75*
G02*
X21917500Y-5275000I17500J0D01*
G01*
X22869500Y-4285500D02*
X22869500Y-4340500D01*
X22842000Y-4313000D02*
X22897000Y-4313000D01*
X22837000Y-4340500D02*
X22902000Y-4340500D01*
X22902000Y-4285500D02*
G75*
G02*
X22902000Y-4340500I0J-27500D01*
G01*
X22902000Y-4285500D02*
X22837000Y-4285500D01*
X22837000Y-4285500D02*
G75*
G03*
X22837000Y-4340500I0J-27500D01*
G01*
X22869500Y-5060500D02*
X22869500Y-5115500D01*
X22842000Y-5088000D02*
X22897000Y-5088000D01*
X22837000Y-5115500D02*
X22902000Y-5115500D01*
X22902000Y-5060500D02*
G75*
G02*
X22902000Y-5115500I0J-27500D01*
G01*
X22902000Y-5060500D02*
X22837000Y-5060500D01*
X22837000Y-5060500D02*
G75*
G03*
X22837000Y-5115500I0J-27500D01*
G01*
X22519552Y-4358052D02*
X22519552Y-4297948D01*
X22459448Y-4297948D01*
X22459448Y-4358052D01*
X22519552Y-4358052D01*
X22462000Y-4370500D02*
X22517000Y-4370500D01*
X22517000Y-4285500D02*
G75*
G02*
X22517000Y-4370500I0J-42500D01*
G01*
X22517000Y-4285500D02*
X22462000Y-4285500D01*
X22462000Y-4285500D02*
G75*
G03*
X22462000Y-4370500I0J-42500D01*
G01*
X22519552Y-5103052D02*
X22519552Y-5042948D01*
X22459448Y-5042948D01*
X22459448Y-5103052D01*
X22519552Y-5103052D01*
X22462000Y-5115500D02*
X22517000Y-5115500D01*
X22517000Y-5030500D02*
G75*
G02*
X22517000Y-5115500I0J-42500D01*
G01*
X22517000Y-5030500D02*
X22462000Y-5030500D01*
X22462000Y-5030500D02*
G75*
G03*
X22462000Y-5115500I0J-42500D01*
G01*
X18464000Y-3700000D02*
X18514000Y-3650000D01*
X18464000Y-3600000D01*
X18414000Y-3650000D01*
X18464000Y-3700000D01*
X18556000Y-6000000D02*
X18606000Y-5950000D01*
X18556000Y-5900000D01*
X18506000Y-5950000D01*
X18556000Y-6000000D01*
X18718000Y-3700000D02*
X18768000Y-3650000D01*
X18718000Y-3600000D01*
X18668000Y-3650000D01*
X18718000Y-3700000D01*
X18810000Y-6000000D02*
X18860000Y-5950000D01*
X18810000Y-5900000D01*
X18760000Y-5950000D01*
X18810000Y-6000000D01*
X18972000Y-3700000D02*
X19022000Y-3650000D01*
X18972000Y-3600000D01*
X18922000Y-3650000D01*
X18972000Y-3700000D01*
X19064000Y-6000000D02*
X19114000Y-5950000D01*
X19064000Y-5900000D01*
X19014000Y-5950000D01*
X19064000Y-6000000D01*
X19226000Y-3700000D02*
X19276000Y-3650000D01*
X19226000Y-3600000D01*
X19176000Y-3650000D01*
X19226000Y-3700000D01*
X19318000Y-6000000D02*
X19368000Y-5950000D01*
X19318000Y-5900000D01*
X19268000Y-5950000D01*
X19318000Y-6000000D01*
X19480000Y-3700000D02*
X19530000Y-3650000D01*
X19480000Y-3600000D01*
X19430000Y-3650000D01*
X19480000Y-3700000D01*
X19572000Y-6000000D02*
X19622000Y-5950000D01*
X19572000Y-5900000D01*
X19522000Y-5950000D01*
X19572000Y-6000000D01*
X19734000Y-3700000D02*
X19784000Y-3650000D01*
X19734000Y-3600000D01*
X19684000Y-3650000D01*
X19734000Y-3700000D01*
X19826000Y-6000000D02*
X19876000Y-5950000D01*
X19826000Y-5900000D01*
X19776000Y-5950000D01*
X19826000Y-6000000D01*
X19988000Y-3700000D02*
X20038000Y-3650000D01*
X19988000Y-3600000D01*
X19938000Y-3650000D01*
X19988000Y-3700000D01*
X20080000Y-6000000D02*
X20130000Y-5950000D01*
X20080000Y-5900000D01*
X20030000Y-5950000D01*
X20080000Y-6000000D01*
X20242000Y-3700000D02*
X20292000Y-3650000D01*
X20242000Y-3600000D01*
X20192000Y-3650000D01*
X20242000Y-3700000D01*
X20334000Y-6000000D02*
X20384000Y-5950000D01*
X20334000Y-5900000D01*
X20284000Y-5950000D01*
X20334000Y-6000000D01*
X20496000Y-3700000D02*
X20546000Y-3650000D01*
X20496000Y-3600000D01*
X20446000Y-3650000D01*
X20496000Y-3700000D01*
X20588000Y-6000000D02*
X20638000Y-5950000D01*
X20588000Y-5900000D01*
X20538000Y-5950000D01*
X20588000Y-6000000D01*
X20750000Y-3700000D02*
X20800000Y-3650000D01*
X20750000Y-3600000D01*
X20700000Y-3650000D01*
X20750000Y-3700000D01*
X20842000Y-6000000D02*
X20892000Y-5950000D01*
X20842000Y-5900000D01*
X20792000Y-5950000D01*
X20842000Y-6000000D01*
X21004000Y-3700000D02*
X21054000Y-3650000D01*
X21004000Y-3600000D01*
X20954000Y-3650000D01*
X21004000Y-3700000D01*
X21096000Y-6000000D02*
X21146000Y-5950000D01*
X21096000Y-5900000D01*
X21046000Y-5950000D01*
X21096000Y-6000000D01*
X21258000Y-3700000D02*
X21308000Y-3650000D01*
X21258000Y-3600000D01*
X21208000Y-3650000D01*
X21258000Y-3700000D01*
X21350000Y-6000000D02*
X21400000Y-5950000D01*
X21350000Y-5900000D01*
X21300000Y-5950000D01*
X21350000Y-6000000D01*
X21512000Y-3700000D02*
X21562000Y-3650000D01*
X21512000Y-3600000D01*
X21462000Y-3650000D01*
X21512000Y-3700000D01*
X21604000Y-6000000D02*
X21654000Y-5950000D01*
X21604000Y-5900000D01*
X21554000Y-5950000D01*
X21604000Y-6000000D01*
X21766000Y-3700000D02*
X21816000Y-3650000D01*
X21766000Y-3600000D01*
X21716000Y-3650000D01*
X21766000Y-3700000D01*
X21858000Y-6000000D02*
X21908000Y-5950000D01*
X21858000Y-5900000D01*
X21808000Y-5950000D01*
X21858000Y-6000000D01*
X22020000Y-3700000D02*
X22070000Y-3650000D01*
X22020000Y-3600000D01*
X21970000Y-3650000D01*
X22020000Y-3700000D01*
X22112000Y-6000000D02*
X22162000Y-5950000D01*
X22112000Y-5900000D01*
X22062000Y-5950000D01*
X22112000Y-6000000D01*
D11*
X18308277Y-6663984D02*
X18308277Y-6463984D01*
X18308277Y-6463984D02*
X18355896Y-6463984D01*
X18355896Y-6463984D02*
X18384467Y-6473508D01*
X18384467Y-6473508D02*
X18403515Y-6492555D01*
X18403515Y-6492555D02*
X18413039Y-6511603D01*
X18413039Y-6511603D02*
X18422563Y-6549698D01*
X18422563Y-6549698D02*
X18422563Y-6578269D01*
X18422563Y-6578269D02*
X18413039Y-6616365D01*
X18413039Y-6616365D02*
X18403515Y-6635412D01*
X18403515Y-6635412D02*
X18384467Y-6654460D01*
X18384467Y-6654460D02*
X18355896Y-6663984D01*
X18355896Y-6663984D02*
X18308277Y-6663984D01*
X18508277Y-6663984D02*
X18508277Y-6530650D01*
X18508277Y-6568746D02*
X18517801Y-6549698D01*
X18517801Y-6549698D02*
X18527324Y-6540174D01*
X18527324Y-6540174D02*
X18546372Y-6530650D01*
X18546372Y-6530650D02*
X18565420Y-6530650D01*
X18632086Y-6663984D02*
X18632086Y-6530650D01*
X18632086Y-6463984D02*
X18622563Y-6473508D01*
X18622563Y-6473508D02*
X18632086Y-6483031D01*
X18632086Y-6483031D02*
X18641610Y-6473508D01*
X18641610Y-6473508D02*
X18632086Y-6463984D01*
X18632086Y-6463984D02*
X18632086Y-6483031D01*
X18755896Y-6663984D02*
X18736848Y-6654460D01*
X18736848Y-6654460D02*
X18727324Y-6635412D01*
X18727324Y-6635412D02*
X18727324Y-6463984D01*
X18860658Y-6663984D02*
X18841610Y-6654460D01*
X18841610Y-6654460D02*
X18832086Y-6635412D01*
X18832086Y-6635412D02*
X18832086Y-6463984D01*
X19089229Y-6663984D02*
X19089229Y-6463984D01*
X19089229Y-6463984D02*
X19155896Y-6606841D01*
X19155896Y-6606841D02*
X19222563Y-6463984D01*
X19222563Y-6463984D02*
X19222563Y-6663984D01*
X19403515Y-6663984D02*
X19403515Y-6559222D01*
X19403515Y-6559222D02*
X19393991Y-6540174D01*
X19393991Y-6540174D02*
X19374944Y-6530650D01*
X19374944Y-6530650D02*
X19336848Y-6530650D01*
X19336848Y-6530650D02*
X19317801Y-6540174D01*
X19403515Y-6654460D02*
X19384467Y-6663984D01*
X19384467Y-6663984D02*
X19336848Y-6663984D01*
X19336848Y-6663984D02*
X19317801Y-6654460D01*
X19317801Y-6654460D02*
X19308277Y-6635412D01*
X19308277Y-6635412D02*
X19308277Y-6616365D01*
X19308277Y-6616365D02*
X19317801Y-6597317D01*
X19317801Y-6597317D02*
X19336848Y-6587793D01*
X19336848Y-6587793D02*
X19384467Y-6587793D01*
X19384467Y-6587793D02*
X19403515Y-6578269D01*
X19498753Y-6530650D02*
X19498753Y-6730650D01*
X19498753Y-6540174D02*
X19517801Y-6530650D01*
X19517801Y-6530650D02*
X19555896Y-6530650D01*
X19555896Y-6530650D02*
X19574944Y-6540174D01*
X19574944Y-6540174D02*
X19584467Y-6549698D01*
X19584467Y-6549698D02*
X19593991Y-6568746D01*
X19593991Y-6568746D02*
X19593991Y-6625888D01*
X19593991Y-6625888D02*
X19584467Y-6644936D01*
X19584467Y-6644936D02*
X19574944Y-6654460D01*
X19574944Y-6654460D02*
X19555896Y-6663984D01*
X19555896Y-6663984D02*
X19517801Y-6663984D01*
X19517801Y-6663984D02*
X19498753Y-6654460D01*
X19679705Y-6644936D02*
X19689229Y-6654460D01*
X19689229Y-6654460D02*
X19679705Y-6663984D01*
X19679705Y-6663984D02*
X19670182Y-6654460D01*
X19670182Y-6654460D02*
X19679705Y-6644936D01*
X19679705Y-6644936D02*
X19679705Y-6663984D01*
X19679705Y-6540174D02*
X19689229Y-6549698D01*
X19689229Y-6549698D02*
X19679705Y-6559222D01*
X19679705Y-6559222D02*
X19670182Y-6549698D01*
X19670182Y-6549698D02*
X19679705Y-6540174D01*
X19679705Y-6540174D02*
X19679705Y-6559222D01*
D12*
X18017500Y-6977500D02*
X18047500Y-7007500D01*
X18047500Y-6977500D02*
X18017500Y-7007500D01*
D11*
X18346372Y-6883984D02*
X18365420Y-6883984D01*
X18365420Y-6883984D02*
X18384467Y-6893508D01*
X18384467Y-6893508D02*
X18393991Y-6903031D01*
X18393991Y-6903031D02*
X18403515Y-6922079D01*
X18403515Y-6922079D02*
X18413039Y-6960174D01*
X18413039Y-6960174D02*
X18413039Y-7007793D01*
X18413039Y-7007793D02*
X18403515Y-7045888D01*
X18403515Y-7045888D02*
X18393991Y-7064936D01*
X18393991Y-7064936D02*
X18384467Y-7074460D01*
X18384467Y-7074460D02*
X18365420Y-7083984D01*
X18365420Y-7083984D02*
X18346372Y-7083984D01*
X18346372Y-7083984D02*
X18327324Y-7074460D01*
X18327324Y-7074460D02*
X18317801Y-7064936D01*
X18317801Y-7064936D02*
X18308277Y-7045888D01*
X18308277Y-7045888D02*
X18298753Y-7007793D01*
X18298753Y-7007793D02*
X18298753Y-6960174D01*
X18298753Y-6960174D02*
X18308277Y-6922079D01*
X18308277Y-6922079D02*
X18317801Y-6903031D01*
X18317801Y-6903031D02*
X18327324Y-6893508D01*
X18327324Y-6893508D02*
X18346372Y-6883984D01*
X18498753Y-7064936D02*
X18508277Y-7074460D01*
X18508277Y-7074460D02*
X18498753Y-7083984D01*
X18498753Y-7083984D02*
X18489229Y-7074460D01*
X18489229Y-7074460D02*
X18498753Y-7064936D01*
X18498753Y-7064936D02*
X18498753Y-7083984D01*
X18574944Y-6883984D02*
X18698753Y-6883984D01*
X18698753Y-6883984D02*
X18632086Y-6960174D01*
X18632086Y-6960174D02*
X18660658Y-6960174D01*
X18660658Y-6960174D02*
X18679705Y-6969698D01*
X18679705Y-6969698D02*
X18689229Y-6979222D01*
X18689229Y-6979222D02*
X18698753Y-6998269D01*
X18698753Y-6998269D02*
X18698753Y-7045888D01*
X18698753Y-7045888D02*
X18689229Y-7064936D01*
X18689229Y-7064936D02*
X18679705Y-7074460D01*
X18679705Y-7074460D02*
X18660658Y-7083984D01*
X18660658Y-7083984D02*
X18603515Y-7083984D01*
X18603515Y-7083984D02*
X18584467Y-7074460D01*
X18584467Y-7074460D02*
X18574944Y-7064936D01*
X18822563Y-6883984D02*
X18841610Y-6883984D01*
X18841610Y-6883984D02*
X18860658Y-6893508D01*
X18860658Y-6893508D02*
X18870182Y-6903031D01*
X18870182Y-6903031D02*
X18879705Y-6922079D01*
X18879705Y-6922079D02*
X18889229Y-6960174D01*
X18889229Y-6960174D02*
X18889229Y-7007793D01*
X18889229Y-7007793D02*
X18879705Y-7045888D01*
X18879705Y-7045888D02*
X18870182Y-7064936D01*
X18870182Y-7064936D02*
X18860658Y-7074460D01*
X18860658Y-7074460D02*
X18841610Y-7083984D01*
X18841610Y-7083984D02*
X18822563Y-7083984D01*
X18822563Y-7083984D02*
X18803515Y-7074460D01*
X18803515Y-7074460D02*
X18793991Y-7064936D01*
X18793991Y-7064936D02*
X18784467Y-7045888D01*
X18784467Y-7045888D02*
X18774944Y-7007793D01*
X18774944Y-7007793D02*
X18774944Y-6960174D01*
X18774944Y-6960174D02*
X18784467Y-6922079D01*
X18784467Y-6922079D02*
X18793991Y-6903031D01*
X18793991Y-6903031D02*
X18803515Y-6893508D01*
X18803515Y-6893508D02*
X18822563Y-6883984D01*
X19013039Y-6883984D02*
X19032086Y-6883984D01*
X19032086Y-6883984D02*
X19051134Y-6893508D01*
X19051134Y-6893508D02*
X19060658Y-6903031D01*
X19060658Y-6903031D02*
X19070182Y-6922079D01*
X19070182Y-6922079D02*
X19079705Y-6960174D01*
X19079705Y-6960174D02*
X19079705Y-7007793D01*
X19079705Y-7007793D02*
X19070182Y-7045888D01*
X19070182Y-7045888D02*
X19060658Y-7064936D01*
X19060658Y-7064936D02*
X19051134Y-7074460D01*
X19051134Y-7074460D02*
X19032086Y-7083984D01*
X19032086Y-7083984D02*
X19013039Y-7083984D01*
X19013039Y-7083984D02*
X18993991Y-7074460D01*
X18993991Y-7074460D02*
X18984467Y-7064936D01*
X18984467Y-7064936D02*
X18974944Y-7045888D01*
X18974944Y-7045888D02*
X18965420Y-7007793D01*
X18965420Y-7007793D02*
X18965420Y-6960174D01*
X18965420Y-6960174D02*
X18974944Y-6922079D01*
X18974944Y-6922079D02*
X18984467Y-6903031D01*
X18984467Y-6903031D02*
X18993991Y-6893508D01*
X18993991Y-6893508D02*
X19013039Y-6883984D01*
X19165420Y-7083984D02*
X19165420Y-6950650D01*
X19165420Y-6969698D02*
X19174944Y-6960174D01*
X19174944Y-6960174D02*
X19193991Y-6950650D01*
X19193991Y-6950650D02*
X19222563Y-6950650D01*
X19222563Y-6950650D02*
X19241610Y-6960174D01*
X19241610Y-6960174D02*
X19251134Y-6979222D01*
X19251134Y-6979222D02*
X19251134Y-7083984D01*
X19251134Y-6979222D02*
X19260658Y-6960174D01*
X19260658Y-6960174D02*
X19279705Y-6950650D01*
X19279705Y-6950650D02*
X19308277Y-6950650D01*
X19308277Y-6950650D02*
X19327325Y-6960174D01*
X19327325Y-6960174D02*
X19336848Y-6979222D01*
X19336848Y-6979222D02*
X19336848Y-7083984D01*
X19432086Y-7083984D02*
X19432086Y-6950650D01*
X19432086Y-6969698D02*
X19441610Y-6960174D01*
X19441610Y-6960174D02*
X19460658Y-6950650D01*
X19460658Y-6950650D02*
X19489229Y-6950650D01*
X19489229Y-6950650D02*
X19508277Y-6960174D01*
X19508277Y-6960174D02*
X19517801Y-6979222D01*
X19517801Y-6979222D02*
X19517801Y-7083984D01*
X19517801Y-6979222D02*
X19527325Y-6960174D01*
X19527325Y-6960174D02*
X19546372Y-6950650D01*
X19546372Y-6950650D02*
X19574944Y-6950650D01*
X19574944Y-6950650D02*
X19593991Y-6960174D01*
X19593991Y-6960174D02*
X19603515Y-6979222D01*
X19603515Y-6979222D02*
X19603515Y-7083984D01*
X19993991Y-6874460D02*
X19822563Y-7131603D01*
X20251134Y-6883984D02*
X20270182Y-6883984D01*
X20270182Y-6883984D02*
X20289229Y-6893508D01*
X20289229Y-6893508D02*
X20298753Y-6903031D01*
X20298753Y-6903031D02*
X20308277Y-6922079D01*
X20308277Y-6922079D02*
X20317801Y-6960174D01*
X20317801Y-6960174D02*
X20317801Y-7007793D01*
X20317801Y-7007793D02*
X20308277Y-7045888D01*
X20308277Y-7045888D02*
X20298753Y-7064936D01*
X20298753Y-7064936D02*
X20289229Y-7074460D01*
X20289229Y-7074460D02*
X20270182Y-7083984D01*
X20270182Y-7083984D02*
X20251134Y-7083984D01*
X20251134Y-7083984D02*
X20232087Y-7074460D01*
X20232087Y-7074460D02*
X20222563Y-7064936D01*
X20222563Y-7064936D02*
X20213039Y-7045888D01*
X20213039Y-7045888D02*
X20203515Y-7007793D01*
X20203515Y-7007793D02*
X20203515Y-6960174D01*
X20203515Y-6960174D02*
X20213039Y-6922079D01*
X20213039Y-6922079D02*
X20222563Y-6903031D01*
X20222563Y-6903031D02*
X20232087Y-6893508D01*
X20232087Y-6893508D02*
X20251134Y-6883984D01*
X20403515Y-7064936D02*
X20413039Y-7074460D01*
X20413039Y-7074460D02*
X20403515Y-7083984D01*
X20403515Y-7083984D02*
X20393991Y-7074460D01*
X20393991Y-7074460D02*
X20403515Y-7064936D01*
X20403515Y-7064936D02*
X20403515Y-7083984D01*
X20536848Y-6883984D02*
X20555896Y-6883984D01*
X20555896Y-6883984D02*
X20574944Y-6893508D01*
X20574944Y-6893508D02*
X20584468Y-6903031D01*
X20584468Y-6903031D02*
X20593991Y-6922079D01*
X20593991Y-6922079D02*
X20603515Y-6960174D01*
X20603515Y-6960174D02*
X20603515Y-7007793D01*
X20603515Y-7007793D02*
X20593991Y-7045888D01*
X20593991Y-7045888D02*
X20584468Y-7064936D01*
X20584468Y-7064936D02*
X20574944Y-7074460D01*
X20574944Y-7074460D02*
X20555896Y-7083984D01*
X20555896Y-7083984D02*
X20536848Y-7083984D01*
X20536848Y-7083984D02*
X20517801Y-7074460D01*
X20517801Y-7074460D02*
X20508277Y-7064936D01*
X20508277Y-7064936D02*
X20498753Y-7045888D01*
X20498753Y-7045888D02*
X20489229Y-7007793D01*
X20489229Y-7007793D02*
X20489229Y-6960174D01*
X20489229Y-6960174D02*
X20498753Y-6922079D01*
X20498753Y-6922079D02*
X20508277Y-6903031D01*
X20508277Y-6903031D02*
X20517801Y-6893508D01*
X20517801Y-6893508D02*
X20536848Y-6883984D01*
X20793991Y-7083984D02*
X20679706Y-7083984D01*
X20736848Y-7083984D02*
X20736848Y-6883984D01*
X20736848Y-6883984D02*
X20717801Y-6912555D01*
X20717801Y-6912555D02*
X20698753Y-6931603D01*
X20698753Y-6931603D02*
X20679706Y-6941127D01*
X20984468Y-7083984D02*
X20870182Y-7083984D01*
X20927325Y-7083984D02*
X20927325Y-6883984D01*
X20927325Y-6883984D02*
X20908277Y-6912555D01*
X20908277Y-6912555D02*
X20889229Y-6931603D01*
X20889229Y-6931603D02*
X20870182Y-6941127D01*
X21098753Y-6969698D02*
X21079706Y-6960174D01*
X21079706Y-6960174D02*
X21070182Y-6950650D01*
X21070182Y-6950650D02*
X21060658Y-6931603D01*
X21060658Y-6931603D02*
X21060658Y-6922079D01*
X21060658Y-6922079D02*
X21070182Y-6903031D01*
X21070182Y-6903031D02*
X21079706Y-6893508D01*
X21079706Y-6893508D02*
X21098753Y-6883984D01*
X21098753Y-6883984D02*
X21136849Y-6883984D01*
X21136849Y-6883984D02*
X21155896Y-6893508D01*
X21155896Y-6893508D02*
X21165420Y-6903031D01*
X21165420Y-6903031D02*
X21174944Y-6922079D01*
X21174944Y-6922079D02*
X21174944Y-6931603D01*
X21174944Y-6931603D02*
X21165420Y-6950650D01*
X21165420Y-6950650D02*
X21155896Y-6960174D01*
X21155896Y-6960174D02*
X21136849Y-6969698D01*
X21136849Y-6969698D02*
X21098753Y-6969698D01*
X21098753Y-6969698D02*
X21079706Y-6979222D01*
X21079706Y-6979222D02*
X21070182Y-6988746D01*
X21070182Y-6988746D02*
X21060658Y-7007793D01*
X21060658Y-7007793D02*
X21060658Y-7045888D01*
X21060658Y-7045888D02*
X21070182Y-7064936D01*
X21070182Y-7064936D02*
X21079706Y-7074460D01*
X21079706Y-7074460D02*
X21098753Y-7083984D01*
X21098753Y-7083984D02*
X21136849Y-7083984D01*
X21136849Y-7083984D02*
X21155896Y-7074460D01*
X21155896Y-7074460D02*
X21165420Y-7064936D01*
X21165420Y-7064936D02*
X21174944Y-7045888D01*
X21174944Y-7045888D02*
X21174944Y-7007793D01*
X21174944Y-7007793D02*
X21165420Y-6988746D01*
X21165420Y-6988746D02*
X21155896Y-6979222D01*
X21155896Y-6979222D02*
X21136849Y-6969698D01*
X21251134Y-6883984D02*
X21251134Y-6922079D01*
X21327325Y-6883984D02*
X21327325Y-6922079D01*
X21622563Y-7160174D02*
X21613039Y-7150650D01*
X21613039Y-7150650D02*
X21593991Y-7122079D01*
X21593991Y-7122079D02*
X21584468Y-7103031D01*
X21584468Y-7103031D02*
X21574944Y-7074460D01*
X21574944Y-7074460D02*
X21565420Y-7026841D01*
X21565420Y-7026841D02*
X21565420Y-6988746D01*
X21565420Y-6988746D02*
X21574944Y-6941127D01*
X21574944Y-6941127D02*
X21584468Y-6912555D01*
X21584468Y-6912555D02*
X21593991Y-6893508D01*
X21593991Y-6893508D02*
X21613039Y-6864936D01*
X21613039Y-6864936D02*
X21622563Y-6855412D01*
X21803515Y-7083984D02*
X21689230Y-7083984D01*
X21746372Y-7083984D02*
X21746372Y-6883984D01*
X21746372Y-6883984D02*
X21727325Y-6912555D01*
X21727325Y-6912555D02*
X21708277Y-6931603D01*
X21708277Y-6931603D02*
X21689230Y-6941127D01*
X21879706Y-6903031D02*
X21889230Y-6893508D01*
X21889230Y-6893508D02*
X21908277Y-6883984D01*
X21908277Y-6883984D02*
X21955896Y-6883984D01*
X21955896Y-6883984D02*
X21974944Y-6893508D01*
X21974944Y-6893508D02*
X21984468Y-6903031D01*
X21984468Y-6903031D02*
X21993991Y-6922079D01*
X21993991Y-6922079D02*
X21993991Y-6941127D01*
X21993991Y-6941127D02*
X21984468Y-6969698D01*
X21984468Y-6969698D02*
X21870182Y-7083984D01*
X21870182Y-7083984D02*
X21993991Y-7083984D01*
X22232087Y-7083984D02*
X22232087Y-6883984D01*
X22317801Y-7083984D02*
X22317801Y-6979222D01*
X22317801Y-6979222D02*
X22308277Y-6960174D01*
X22308277Y-6960174D02*
X22289230Y-6950650D01*
X22289230Y-6950650D02*
X22260658Y-6950650D01*
X22260658Y-6950650D02*
X22241611Y-6960174D01*
X22241611Y-6960174D02*
X22232087Y-6969698D01*
X22441610Y-7083984D02*
X22422563Y-7074460D01*
X22422563Y-7074460D02*
X22413039Y-7064936D01*
X22413039Y-7064936D02*
X22403515Y-7045888D01*
X22403515Y-7045888D02*
X22403515Y-6988746D01*
X22403515Y-6988746D02*
X22413039Y-6969698D01*
X22413039Y-6969698D02*
X22422563Y-6960174D01*
X22422563Y-6960174D02*
X22441610Y-6950650D01*
X22441610Y-6950650D02*
X22470182Y-6950650D01*
X22470182Y-6950650D02*
X22489230Y-6960174D01*
X22489230Y-6960174D02*
X22498753Y-6969698D01*
X22498753Y-6969698D02*
X22508277Y-6988746D01*
X22508277Y-6988746D02*
X22508277Y-7045888D01*
X22508277Y-7045888D02*
X22498753Y-7064936D01*
X22498753Y-7064936D02*
X22489230Y-7074460D01*
X22489230Y-7074460D02*
X22470182Y-7083984D01*
X22470182Y-7083984D02*
X22441610Y-7083984D01*
X22622563Y-7083984D02*
X22603515Y-7074460D01*
X22603515Y-7074460D02*
X22593991Y-7055412D01*
X22593991Y-7055412D02*
X22593991Y-6883984D01*
X22774944Y-7074460D02*
X22755896Y-7083984D01*
X22755896Y-7083984D02*
X22717801Y-7083984D01*
X22717801Y-7083984D02*
X22698753Y-7074460D01*
X22698753Y-7074460D02*
X22689230Y-7055412D01*
X22689230Y-7055412D02*
X22689230Y-6979222D01*
X22689230Y-6979222D02*
X22698753Y-6960174D01*
X22698753Y-6960174D02*
X22717801Y-6950650D01*
X22717801Y-6950650D02*
X22755896Y-6950650D01*
X22755896Y-6950650D02*
X22774944Y-6960174D01*
X22774944Y-6960174D02*
X22784468Y-6979222D01*
X22784468Y-6979222D02*
X22784468Y-6998269D01*
X22784468Y-6998269D02*
X22689230Y-7017317D01*
X22860658Y-7074460D02*
X22879706Y-7083984D01*
X22879706Y-7083984D02*
X22917801Y-7083984D01*
X22917801Y-7083984D02*
X22936849Y-7074460D01*
X22936849Y-7074460D02*
X22946372Y-7055412D01*
X22946372Y-7055412D02*
X22946372Y-7045888D01*
X22946372Y-7045888D02*
X22936849Y-7026841D01*
X22936849Y-7026841D02*
X22917801Y-7017317D01*
X22917801Y-7017317D02*
X22889230Y-7017317D01*
X22889230Y-7017317D02*
X22870182Y-7007793D01*
X22870182Y-7007793D02*
X22860658Y-6988746D01*
X22860658Y-6988746D02*
X22860658Y-6979222D01*
X22860658Y-6979222D02*
X22870182Y-6960174D01*
X22870182Y-6960174D02*
X22889230Y-6950650D01*
X22889230Y-6950650D02*
X22917801Y-6950650D01*
X22917801Y-6950650D02*
X22936849Y-6960174D01*
X23013039Y-7160174D02*
X23022563Y-7150650D01*
X23022563Y-7150650D02*
X23041611Y-7122079D01*
X23041611Y-7122079D02*
X23051134Y-7103031D01*
X23051134Y-7103031D02*
X23060658Y-7074460D01*
X23060658Y-7074460D02*
X23070182Y-7026841D01*
X23070182Y-7026841D02*
X23070182Y-6988746D01*
X23070182Y-6988746D02*
X23060658Y-6941127D01*
X23060658Y-6941127D02*
X23051134Y-6912555D01*
X23051134Y-6912555D02*
X23041611Y-6893508D01*
X23041611Y-6893508D02*
X23022563Y-6864936D01*
X23022563Y-6864936D02*
X23013039Y-6855412D01*
D12*
X18047500Y-7256500D02*
G75*
G02*
X18012500Y-7256500I-17500J0D01*
G01*
X18012500Y-7256500D02*
G75*
G02*
X18047500Y-7256500I17500J0D01*
G01*
D11*
X18346372Y-7147984D02*
X18365420Y-7147984D01*
X18365420Y-7147984D02*
X18384467Y-7157508D01*
X18384467Y-7157508D02*
X18393991Y-7167031D01*
X18393991Y-7167031D02*
X18403515Y-7186079D01*
X18403515Y-7186079D02*
X18413039Y-7224174D01*
X18413039Y-7224174D02*
X18413039Y-7271793D01*
X18413039Y-7271793D02*
X18403515Y-7309888D01*
X18403515Y-7309888D02*
X18393991Y-7328936D01*
X18393991Y-7328936D02*
X18384467Y-7338460D01*
X18384467Y-7338460D02*
X18365420Y-7347984D01*
X18365420Y-7347984D02*
X18346372Y-7347984D01*
X18346372Y-7347984D02*
X18327324Y-7338460D01*
X18327324Y-7338460D02*
X18317801Y-7328936D01*
X18317801Y-7328936D02*
X18308277Y-7309888D01*
X18308277Y-7309888D02*
X18298753Y-7271793D01*
X18298753Y-7271793D02*
X18298753Y-7224174D01*
X18298753Y-7224174D02*
X18308277Y-7186079D01*
X18308277Y-7186079D02*
X18317801Y-7167031D01*
X18317801Y-7167031D02*
X18327324Y-7157508D01*
X18327324Y-7157508D02*
X18346372Y-7147984D01*
X18498753Y-7328936D02*
X18508277Y-7338460D01*
X18508277Y-7338460D02*
X18498753Y-7347984D01*
X18498753Y-7347984D02*
X18489229Y-7338460D01*
X18489229Y-7338460D02*
X18498753Y-7328936D01*
X18498753Y-7328936D02*
X18498753Y-7347984D01*
X18574944Y-7147984D02*
X18698753Y-7147984D01*
X18698753Y-7147984D02*
X18632086Y-7224174D01*
X18632086Y-7224174D02*
X18660658Y-7224174D01*
X18660658Y-7224174D02*
X18679705Y-7233698D01*
X18679705Y-7233698D02*
X18689229Y-7243222D01*
X18689229Y-7243222D02*
X18698753Y-7262269D01*
X18698753Y-7262269D02*
X18698753Y-7309888D01*
X18698753Y-7309888D02*
X18689229Y-7328936D01*
X18689229Y-7328936D02*
X18679705Y-7338460D01*
X18679705Y-7338460D02*
X18660658Y-7347984D01*
X18660658Y-7347984D02*
X18603515Y-7347984D01*
X18603515Y-7347984D02*
X18584467Y-7338460D01*
X18584467Y-7338460D02*
X18574944Y-7328936D01*
X18879705Y-7147984D02*
X18784467Y-7147984D01*
X18784467Y-7147984D02*
X18774944Y-7243222D01*
X18774944Y-7243222D02*
X18784467Y-7233698D01*
X18784467Y-7233698D02*
X18803515Y-7224174D01*
X18803515Y-7224174D02*
X18851134Y-7224174D01*
X18851134Y-7224174D02*
X18870182Y-7233698D01*
X18870182Y-7233698D02*
X18879705Y-7243222D01*
X18879705Y-7243222D02*
X18889229Y-7262269D01*
X18889229Y-7262269D02*
X18889229Y-7309888D01*
X18889229Y-7309888D02*
X18879705Y-7328936D01*
X18879705Y-7328936D02*
X18870182Y-7338460D01*
X18870182Y-7338460D02*
X18851134Y-7347984D01*
X18851134Y-7347984D02*
X18803515Y-7347984D01*
X18803515Y-7347984D02*
X18784467Y-7338460D01*
X18784467Y-7338460D02*
X18774944Y-7328936D01*
X19013039Y-7147984D02*
X19032086Y-7147984D01*
X19032086Y-7147984D02*
X19051134Y-7157508D01*
X19051134Y-7157508D02*
X19060658Y-7167031D01*
X19060658Y-7167031D02*
X19070182Y-7186079D01*
X19070182Y-7186079D02*
X19079705Y-7224174D01*
X19079705Y-7224174D02*
X19079705Y-7271793D01*
X19079705Y-7271793D02*
X19070182Y-7309888D01*
X19070182Y-7309888D02*
X19060658Y-7328936D01*
X19060658Y-7328936D02*
X19051134Y-7338460D01*
X19051134Y-7338460D02*
X19032086Y-7347984D01*
X19032086Y-7347984D02*
X19013039Y-7347984D01*
X19013039Y-7347984D02*
X18993991Y-7338460D01*
X18993991Y-7338460D02*
X18984467Y-7328936D01*
X18984467Y-7328936D02*
X18974944Y-7309888D01*
X18974944Y-7309888D02*
X18965420Y-7271793D01*
X18965420Y-7271793D02*
X18965420Y-7224174D01*
X18965420Y-7224174D02*
X18974944Y-7186079D01*
X18974944Y-7186079D02*
X18984467Y-7167031D01*
X18984467Y-7167031D02*
X18993991Y-7157508D01*
X18993991Y-7157508D02*
X19013039Y-7147984D01*
X19165420Y-7347984D02*
X19165420Y-7214650D01*
X19165420Y-7233698D02*
X19174944Y-7224174D01*
X19174944Y-7224174D02*
X19193991Y-7214650D01*
X19193991Y-7214650D02*
X19222563Y-7214650D01*
X19222563Y-7214650D02*
X19241610Y-7224174D01*
X19241610Y-7224174D02*
X19251134Y-7243222D01*
X19251134Y-7243222D02*
X19251134Y-7347984D01*
X19251134Y-7243222D02*
X19260658Y-7224174D01*
X19260658Y-7224174D02*
X19279705Y-7214650D01*
X19279705Y-7214650D02*
X19308277Y-7214650D01*
X19308277Y-7214650D02*
X19327325Y-7224174D01*
X19327325Y-7224174D02*
X19336848Y-7243222D01*
X19336848Y-7243222D02*
X19336848Y-7347984D01*
X19432086Y-7347984D02*
X19432086Y-7214650D01*
X19432086Y-7233698D02*
X19441610Y-7224174D01*
X19441610Y-7224174D02*
X19460658Y-7214650D01*
X19460658Y-7214650D02*
X19489229Y-7214650D01*
X19489229Y-7214650D02*
X19508277Y-7224174D01*
X19508277Y-7224174D02*
X19517801Y-7243222D01*
X19517801Y-7243222D02*
X19517801Y-7347984D01*
X19517801Y-7243222D02*
X19527325Y-7224174D01*
X19527325Y-7224174D02*
X19546372Y-7214650D01*
X19546372Y-7214650D02*
X19574944Y-7214650D01*
X19574944Y-7214650D02*
X19593991Y-7224174D01*
X19593991Y-7224174D02*
X19603515Y-7243222D01*
X19603515Y-7243222D02*
X19603515Y-7347984D01*
X19993991Y-7138460D02*
X19822563Y-7395603D01*
X20251134Y-7147984D02*
X20270182Y-7147984D01*
X20270182Y-7147984D02*
X20289229Y-7157508D01*
X20289229Y-7157508D02*
X20298753Y-7167031D01*
X20298753Y-7167031D02*
X20308277Y-7186079D01*
X20308277Y-7186079D02*
X20317801Y-7224174D01*
X20317801Y-7224174D02*
X20317801Y-7271793D01*
X20317801Y-7271793D02*
X20308277Y-7309888D01*
X20308277Y-7309888D02*
X20298753Y-7328936D01*
X20298753Y-7328936D02*
X20289229Y-7338460D01*
X20289229Y-7338460D02*
X20270182Y-7347984D01*
X20270182Y-7347984D02*
X20251134Y-7347984D01*
X20251134Y-7347984D02*
X20232087Y-7338460D01*
X20232087Y-7338460D02*
X20222563Y-7328936D01*
X20222563Y-7328936D02*
X20213039Y-7309888D01*
X20213039Y-7309888D02*
X20203515Y-7271793D01*
X20203515Y-7271793D02*
X20203515Y-7224174D01*
X20203515Y-7224174D02*
X20213039Y-7186079D01*
X20213039Y-7186079D02*
X20222563Y-7167031D01*
X20222563Y-7167031D02*
X20232087Y-7157508D01*
X20232087Y-7157508D02*
X20251134Y-7147984D01*
X20403515Y-7328936D02*
X20413039Y-7338460D01*
X20413039Y-7338460D02*
X20403515Y-7347984D01*
X20403515Y-7347984D02*
X20393991Y-7338460D01*
X20393991Y-7338460D02*
X20403515Y-7328936D01*
X20403515Y-7328936D02*
X20403515Y-7347984D01*
X20536848Y-7147984D02*
X20555896Y-7147984D01*
X20555896Y-7147984D02*
X20574944Y-7157508D01*
X20574944Y-7157508D02*
X20584468Y-7167031D01*
X20584468Y-7167031D02*
X20593991Y-7186079D01*
X20593991Y-7186079D02*
X20603515Y-7224174D01*
X20603515Y-7224174D02*
X20603515Y-7271793D01*
X20603515Y-7271793D02*
X20593991Y-7309888D01*
X20593991Y-7309888D02*
X20584468Y-7328936D01*
X20584468Y-7328936D02*
X20574944Y-7338460D01*
X20574944Y-7338460D02*
X20555896Y-7347984D01*
X20555896Y-7347984D02*
X20536848Y-7347984D01*
X20536848Y-7347984D02*
X20517801Y-7338460D01*
X20517801Y-7338460D02*
X20508277Y-7328936D01*
X20508277Y-7328936D02*
X20498753Y-7309888D01*
X20498753Y-7309888D02*
X20489229Y-7271793D01*
X20489229Y-7271793D02*
X20489229Y-7224174D01*
X20489229Y-7224174D02*
X20498753Y-7186079D01*
X20498753Y-7186079D02*
X20508277Y-7167031D01*
X20508277Y-7167031D02*
X20517801Y-7157508D01*
X20517801Y-7157508D02*
X20536848Y-7147984D01*
X20793991Y-7347984D02*
X20679706Y-7347984D01*
X20736848Y-7347984D02*
X20736848Y-7147984D01*
X20736848Y-7147984D02*
X20717801Y-7176555D01*
X20717801Y-7176555D02*
X20698753Y-7195603D01*
X20698753Y-7195603D02*
X20679706Y-7205127D01*
X20860658Y-7147984D02*
X20984468Y-7147984D01*
X20984468Y-7147984D02*
X20917801Y-7224174D01*
X20917801Y-7224174D02*
X20946372Y-7224174D01*
X20946372Y-7224174D02*
X20965420Y-7233698D01*
X20965420Y-7233698D02*
X20974944Y-7243222D01*
X20974944Y-7243222D02*
X20984468Y-7262269D01*
X20984468Y-7262269D02*
X20984468Y-7309888D01*
X20984468Y-7309888D02*
X20974944Y-7328936D01*
X20974944Y-7328936D02*
X20965420Y-7338460D01*
X20965420Y-7338460D02*
X20946372Y-7347984D01*
X20946372Y-7347984D02*
X20889229Y-7347984D01*
X20889229Y-7347984D02*
X20870182Y-7338460D01*
X20870182Y-7338460D02*
X20860658Y-7328936D01*
X21098753Y-7233698D02*
X21079706Y-7224174D01*
X21079706Y-7224174D02*
X21070182Y-7214650D01*
X21070182Y-7214650D02*
X21060658Y-7195603D01*
X21060658Y-7195603D02*
X21060658Y-7186079D01*
X21060658Y-7186079D02*
X21070182Y-7167031D01*
X21070182Y-7167031D02*
X21079706Y-7157508D01*
X21079706Y-7157508D02*
X21098753Y-7147984D01*
X21098753Y-7147984D02*
X21136849Y-7147984D01*
X21136849Y-7147984D02*
X21155896Y-7157508D01*
X21155896Y-7157508D02*
X21165420Y-7167031D01*
X21165420Y-7167031D02*
X21174944Y-7186079D01*
X21174944Y-7186079D02*
X21174944Y-7195603D01*
X21174944Y-7195603D02*
X21165420Y-7214650D01*
X21165420Y-7214650D02*
X21155896Y-7224174D01*
X21155896Y-7224174D02*
X21136849Y-7233698D01*
X21136849Y-7233698D02*
X21098753Y-7233698D01*
X21098753Y-7233698D02*
X21079706Y-7243222D01*
X21079706Y-7243222D02*
X21070182Y-7252746D01*
X21070182Y-7252746D02*
X21060658Y-7271793D01*
X21060658Y-7271793D02*
X21060658Y-7309888D01*
X21060658Y-7309888D02*
X21070182Y-7328936D01*
X21070182Y-7328936D02*
X21079706Y-7338460D01*
X21079706Y-7338460D02*
X21098753Y-7347984D01*
X21098753Y-7347984D02*
X21136849Y-7347984D01*
X21136849Y-7347984D02*
X21155896Y-7338460D01*
X21155896Y-7338460D02*
X21165420Y-7328936D01*
X21165420Y-7328936D02*
X21174944Y-7309888D01*
X21174944Y-7309888D02*
X21174944Y-7271793D01*
X21174944Y-7271793D02*
X21165420Y-7252746D01*
X21165420Y-7252746D02*
X21155896Y-7243222D01*
X21155896Y-7243222D02*
X21136849Y-7233698D01*
X21251134Y-7147984D02*
X21251134Y-7186079D01*
X21327325Y-7147984D02*
X21327325Y-7186079D01*
X21622563Y-7424174D02*
X21613039Y-7414650D01*
X21613039Y-7414650D02*
X21593991Y-7386079D01*
X21593991Y-7386079D02*
X21584468Y-7367031D01*
X21584468Y-7367031D02*
X21574944Y-7338460D01*
X21574944Y-7338460D02*
X21565420Y-7290841D01*
X21565420Y-7290841D02*
X21565420Y-7252746D01*
X21565420Y-7252746D02*
X21574944Y-7205127D01*
X21574944Y-7205127D02*
X21584468Y-7176555D01*
X21584468Y-7176555D02*
X21593991Y-7157508D01*
X21593991Y-7157508D02*
X21613039Y-7128936D01*
X21613039Y-7128936D02*
X21622563Y-7119412D01*
X21803515Y-7347984D02*
X21689230Y-7347984D01*
X21746372Y-7347984D02*
X21746372Y-7147984D01*
X21746372Y-7147984D02*
X21727325Y-7176555D01*
X21727325Y-7176555D02*
X21708277Y-7195603D01*
X21708277Y-7195603D02*
X21689230Y-7205127D01*
X21927325Y-7147984D02*
X21946372Y-7147984D01*
X21946372Y-7147984D02*
X21965420Y-7157508D01*
X21965420Y-7157508D02*
X21974944Y-7167031D01*
X21974944Y-7167031D02*
X21984468Y-7186079D01*
X21984468Y-7186079D02*
X21993991Y-7224174D01*
X21993991Y-7224174D02*
X21993991Y-7271793D01*
X21993991Y-7271793D02*
X21984468Y-7309888D01*
X21984468Y-7309888D02*
X21974944Y-7328936D01*
X21974944Y-7328936D02*
X21965420Y-7338460D01*
X21965420Y-7338460D02*
X21946372Y-7347984D01*
X21946372Y-7347984D02*
X21927325Y-7347984D01*
X21927325Y-7347984D02*
X21908277Y-7338460D01*
X21908277Y-7338460D02*
X21898753Y-7328936D01*
X21898753Y-7328936D02*
X21889230Y-7309888D01*
X21889230Y-7309888D02*
X21879706Y-7271793D01*
X21879706Y-7271793D02*
X21879706Y-7224174D01*
X21879706Y-7224174D02*
X21889230Y-7186079D01*
X21889230Y-7186079D02*
X21898753Y-7167031D01*
X21898753Y-7167031D02*
X21908277Y-7157508D01*
X21908277Y-7157508D02*
X21927325Y-7147984D01*
X22232087Y-7347984D02*
X22232087Y-7147984D01*
X22317801Y-7347984D02*
X22317801Y-7243222D01*
X22317801Y-7243222D02*
X22308277Y-7224174D01*
X22308277Y-7224174D02*
X22289230Y-7214650D01*
X22289230Y-7214650D02*
X22260658Y-7214650D01*
X22260658Y-7214650D02*
X22241611Y-7224174D01*
X22241611Y-7224174D02*
X22232087Y-7233698D01*
X22441610Y-7347984D02*
X22422563Y-7338460D01*
X22422563Y-7338460D02*
X22413039Y-7328936D01*
X22413039Y-7328936D02*
X22403515Y-7309888D01*
X22403515Y-7309888D02*
X22403515Y-7252746D01*
X22403515Y-7252746D02*
X22413039Y-7233698D01*
X22413039Y-7233698D02*
X22422563Y-7224174D01*
X22422563Y-7224174D02*
X22441610Y-7214650D01*
X22441610Y-7214650D02*
X22470182Y-7214650D01*
X22470182Y-7214650D02*
X22489230Y-7224174D01*
X22489230Y-7224174D02*
X22498753Y-7233698D01*
X22498753Y-7233698D02*
X22508277Y-7252746D01*
X22508277Y-7252746D02*
X22508277Y-7309888D01*
X22508277Y-7309888D02*
X22498753Y-7328936D01*
X22498753Y-7328936D02*
X22489230Y-7338460D01*
X22489230Y-7338460D02*
X22470182Y-7347984D01*
X22470182Y-7347984D02*
X22441610Y-7347984D01*
X22622563Y-7347984D02*
X22603515Y-7338460D01*
X22603515Y-7338460D02*
X22593991Y-7319412D01*
X22593991Y-7319412D02*
X22593991Y-7147984D01*
X22774944Y-7338460D02*
X22755896Y-7347984D01*
X22755896Y-7347984D02*
X22717801Y-7347984D01*
X22717801Y-7347984D02*
X22698753Y-7338460D01*
X22698753Y-7338460D02*
X22689230Y-7319412D01*
X22689230Y-7319412D02*
X22689230Y-7243222D01*
X22689230Y-7243222D02*
X22698753Y-7224174D01*
X22698753Y-7224174D02*
X22717801Y-7214650D01*
X22717801Y-7214650D02*
X22755896Y-7214650D01*
X22755896Y-7214650D02*
X22774944Y-7224174D01*
X22774944Y-7224174D02*
X22784468Y-7243222D01*
X22784468Y-7243222D02*
X22784468Y-7262269D01*
X22784468Y-7262269D02*
X22689230Y-7281317D01*
X22860658Y-7338460D02*
X22879706Y-7347984D01*
X22879706Y-7347984D02*
X22917801Y-7347984D01*
X22917801Y-7347984D02*
X22936849Y-7338460D01*
X22936849Y-7338460D02*
X22946372Y-7319412D01*
X22946372Y-7319412D02*
X22946372Y-7309888D01*
X22946372Y-7309888D02*
X22936849Y-7290841D01*
X22936849Y-7290841D02*
X22917801Y-7281317D01*
X22917801Y-7281317D02*
X22889230Y-7281317D01*
X22889230Y-7281317D02*
X22870182Y-7271793D01*
X22870182Y-7271793D02*
X22860658Y-7252746D01*
X22860658Y-7252746D02*
X22860658Y-7243222D01*
X22860658Y-7243222D02*
X22870182Y-7224174D01*
X22870182Y-7224174D02*
X22889230Y-7214650D01*
X22889230Y-7214650D02*
X22917801Y-7214650D01*
X22917801Y-7214650D02*
X22936849Y-7224174D01*
X23013039Y-7424174D02*
X23022563Y-7414650D01*
X23022563Y-7414650D02*
X23041611Y-7386079D01*
X23041611Y-7386079D02*
X23051134Y-7367031D01*
X23051134Y-7367031D02*
X23060658Y-7338460D01*
X23060658Y-7338460D02*
X23070182Y-7290841D01*
X23070182Y-7290841D02*
X23070182Y-7252746D01*
X23070182Y-7252746D02*
X23060658Y-7205127D01*
X23060658Y-7205127D02*
X23051134Y-7176555D01*
X23051134Y-7176555D02*
X23041611Y-7157508D01*
X23041611Y-7157508D02*
X23022563Y-7128936D01*
X23022563Y-7128936D02*
X23013039Y-7119412D01*
D12*
X18020000Y-7493000D02*
X18020000Y-7548000D01*
X17992500Y-7520500D02*
X18047500Y-7520500D01*
D11*
X18346372Y-7411984D02*
X18365420Y-7411984D01*
X18365420Y-7411984D02*
X18384467Y-7421508D01*
X18384467Y-7421508D02*
X18393991Y-7431031D01*
X18393991Y-7431031D02*
X18403515Y-7450079D01*
X18403515Y-7450079D02*
X18413039Y-7488174D01*
X18413039Y-7488174D02*
X18413039Y-7535793D01*
X18413039Y-7535793D02*
X18403515Y-7573888D01*
X18403515Y-7573888D02*
X18393991Y-7592936D01*
X18393991Y-7592936D02*
X18384467Y-7602460D01*
X18384467Y-7602460D02*
X18365420Y-7611984D01*
X18365420Y-7611984D02*
X18346372Y-7611984D01*
X18346372Y-7611984D02*
X18327324Y-7602460D01*
X18327324Y-7602460D02*
X18317801Y-7592936D01*
X18317801Y-7592936D02*
X18308277Y-7573888D01*
X18308277Y-7573888D02*
X18298753Y-7535793D01*
X18298753Y-7535793D02*
X18298753Y-7488174D01*
X18298753Y-7488174D02*
X18308277Y-7450079D01*
X18308277Y-7450079D02*
X18317801Y-7431031D01*
X18317801Y-7431031D02*
X18327324Y-7421508D01*
X18327324Y-7421508D02*
X18346372Y-7411984D01*
X18498753Y-7592936D02*
X18508277Y-7602460D01*
X18508277Y-7602460D02*
X18498753Y-7611984D01*
X18498753Y-7611984D02*
X18489229Y-7602460D01*
X18489229Y-7602460D02*
X18498753Y-7592936D01*
X18498753Y-7592936D02*
X18498753Y-7611984D01*
X18689229Y-7411984D02*
X18593991Y-7411984D01*
X18593991Y-7411984D02*
X18584467Y-7507222D01*
X18584467Y-7507222D02*
X18593991Y-7497698D01*
X18593991Y-7497698D02*
X18613039Y-7488174D01*
X18613039Y-7488174D02*
X18660658Y-7488174D01*
X18660658Y-7488174D02*
X18679705Y-7497698D01*
X18679705Y-7497698D02*
X18689229Y-7507222D01*
X18689229Y-7507222D02*
X18698753Y-7526269D01*
X18698753Y-7526269D02*
X18698753Y-7573888D01*
X18698753Y-7573888D02*
X18689229Y-7592936D01*
X18689229Y-7592936D02*
X18679705Y-7602460D01*
X18679705Y-7602460D02*
X18660658Y-7611984D01*
X18660658Y-7611984D02*
X18613039Y-7611984D01*
X18613039Y-7611984D02*
X18593991Y-7602460D01*
X18593991Y-7602460D02*
X18584467Y-7592936D01*
X18879705Y-7411984D02*
X18784467Y-7411984D01*
X18784467Y-7411984D02*
X18774944Y-7507222D01*
X18774944Y-7507222D02*
X18784467Y-7497698D01*
X18784467Y-7497698D02*
X18803515Y-7488174D01*
X18803515Y-7488174D02*
X18851134Y-7488174D01*
X18851134Y-7488174D02*
X18870182Y-7497698D01*
X18870182Y-7497698D02*
X18879705Y-7507222D01*
X18879705Y-7507222D02*
X18889229Y-7526269D01*
X18889229Y-7526269D02*
X18889229Y-7573888D01*
X18889229Y-7573888D02*
X18879705Y-7592936D01*
X18879705Y-7592936D02*
X18870182Y-7602460D01*
X18870182Y-7602460D02*
X18851134Y-7611984D01*
X18851134Y-7611984D02*
X18803515Y-7611984D01*
X18803515Y-7611984D02*
X18784467Y-7602460D01*
X18784467Y-7602460D02*
X18774944Y-7592936D01*
X19013039Y-7411984D02*
X19032086Y-7411984D01*
X19032086Y-7411984D02*
X19051134Y-7421508D01*
X19051134Y-7421508D02*
X19060658Y-7431031D01*
X19060658Y-7431031D02*
X19070182Y-7450079D01*
X19070182Y-7450079D02*
X19079705Y-7488174D01*
X19079705Y-7488174D02*
X19079705Y-7535793D01*
X19079705Y-7535793D02*
X19070182Y-7573888D01*
X19070182Y-7573888D02*
X19060658Y-7592936D01*
X19060658Y-7592936D02*
X19051134Y-7602460D01*
X19051134Y-7602460D02*
X19032086Y-7611984D01*
X19032086Y-7611984D02*
X19013039Y-7611984D01*
X19013039Y-7611984D02*
X18993991Y-7602460D01*
X18993991Y-7602460D02*
X18984467Y-7592936D01*
X18984467Y-7592936D02*
X18974944Y-7573888D01*
X18974944Y-7573888D02*
X18965420Y-7535793D01*
X18965420Y-7535793D02*
X18965420Y-7488174D01*
X18965420Y-7488174D02*
X18974944Y-7450079D01*
X18974944Y-7450079D02*
X18984467Y-7431031D01*
X18984467Y-7431031D02*
X18993991Y-7421508D01*
X18993991Y-7421508D02*
X19013039Y-7411984D01*
X19165420Y-7611984D02*
X19165420Y-7478650D01*
X19165420Y-7497698D02*
X19174944Y-7488174D01*
X19174944Y-7488174D02*
X19193991Y-7478650D01*
X19193991Y-7478650D02*
X19222563Y-7478650D01*
X19222563Y-7478650D02*
X19241610Y-7488174D01*
X19241610Y-7488174D02*
X19251134Y-7507222D01*
X19251134Y-7507222D02*
X19251134Y-7611984D01*
X19251134Y-7507222D02*
X19260658Y-7488174D01*
X19260658Y-7488174D02*
X19279705Y-7478650D01*
X19279705Y-7478650D02*
X19308277Y-7478650D01*
X19308277Y-7478650D02*
X19327325Y-7488174D01*
X19327325Y-7488174D02*
X19336848Y-7507222D01*
X19336848Y-7507222D02*
X19336848Y-7611984D01*
X19432086Y-7611984D02*
X19432086Y-7478650D01*
X19432086Y-7497698D02*
X19441610Y-7488174D01*
X19441610Y-7488174D02*
X19460658Y-7478650D01*
X19460658Y-7478650D02*
X19489229Y-7478650D01*
X19489229Y-7478650D02*
X19508277Y-7488174D01*
X19508277Y-7488174D02*
X19517801Y-7507222D01*
X19517801Y-7507222D02*
X19517801Y-7611984D01*
X19517801Y-7507222D02*
X19527325Y-7488174D01*
X19527325Y-7488174D02*
X19546372Y-7478650D01*
X19546372Y-7478650D02*
X19574944Y-7478650D01*
X19574944Y-7478650D02*
X19593991Y-7488174D01*
X19593991Y-7488174D02*
X19603515Y-7507222D01*
X19603515Y-7507222D02*
X19603515Y-7611984D01*
X19993991Y-7402460D02*
X19822563Y-7659603D01*
X20251134Y-7411984D02*
X20270182Y-7411984D01*
X20270182Y-7411984D02*
X20289229Y-7421508D01*
X20289229Y-7421508D02*
X20298753Y-7431031D01*
X20298753Y-7431031D02*
X20308277Y-7450079D01*
X20308277Y-7450079D02*
X20317801Y-7488174D01*
X20317801Y-7488174D02*
X20317801Y-7535793D01*
X20317801Y-7535793D02*
X20308277Y-7573888D01*
X20308277Y-7573888D02*
X20298753Y-7592936D01*
X20298753Y-7592936D02*
X20289229Y-7602460D01*
X20289229Y-7602460D02*
X20270182Y-7611984D01*
X20270182Y-7611984D02*
X20251134Y-7611984D01*
X20251134Y-7611984D02*
X20232087Y-7602460D01*
X20232087Y-7602460D02*
X20222563Y-7592936D01*
X20222563Y-7592936D02*
X20213039Y-7573888D01*
X20213039Y-7573888D02*
X20203515Y-7535793D01*
X20203515Y-7535793D02*
X20203515Y-7488174D01*
X20203515Y-7488174D02*
X20213039Y-7450079D01*
X20213039Y-7450079D02*
X20222563Y-7431031D01*
X20222563Y-7431031D02*
X20232087Y-7421508D01*
X20232087Y-7421508D02*
X20251134Y-7411984D01*
X20403515Y-7592936D02*
X20413039Y-7602460D01*
X20413039Y-7602460D02*
X20403515Y-7611984D01*
X20403515Y-7611984D02*
X20393991Y-7602460D01*
X20393991Y-7602460D02*
X20403515Y-7592936D01*
X20403515Y-7592936D02*
X20403515Y-7611984D01*
X20536848Y-7411984D02*
X20555896Y-7411984D01*
X20555896Y-7411984D02*
X20574944Y-7421508D01*
X20574944Y-7421508D02*
X20584468Y-7431031D01*
X20584468Y-7431031D02*
X20593991Y-7450079D01*
X20593991Y-7450079D02*
X20603515Y-7488174D01*
X20603515Y-7488174D02*
X20603515Y-7535793D01*
X20603515Y-7535793D02*
X20593991Y-7573888D01*
X20593991Y-7573888D02*
X20584468Y-7592936D01*
X20584468Y-7592936D02*
X20574944Y-7602460D01*
X20574944Y-7602460D02*
X20555896Y-7611984D01*
X20555896Y-7611984D02*
X20536848Y-7611984D01*
X20536848Y-7611984D02*
X20517801Y-7602460D01*
X20517801Y-7602460D02*
X20508277Y-7592936D01*
X20508277Y-7592936D02*
X20498753Y-7573888D01*
X20498753Y-7573888D02*
X20489229Y-7535793D01*
X20489229Y-7535793D02*
X20489229Y-7488174D01*
X20489229Y-7488174D02*
X20498753Y-7450079D01*
X20498753Y-7450079D02*
X20508277Y-7431031D01*
X20508277Y-7431031D02*
X20517801Y-7421508D01*
X20517801Y-7421508D02*
X20536848Y-7411984D01*
X20679706Y-7431031D02*
X20689229Y-7421508D01*
X20689229Y-7421508D02*
X20708277Y-7411984D01*
X20708277Y-7411984D02*
X20755896Y-7411984D01*
X20755896Y-7411984D02*
X20774944Y-7421508D01*
X20774944Y-7421508D02*
X20784468Y-7431031D01*
X20784468Y-7431031D02*
X20793991Y-7450079D01*
X20793991Y-7450079D02*
X20793991Y-7469127D01*
X20793991Y-7469127D02*
X20784468Y-7497698D01*
X20784468Y-7497698D02*
X20670182Y-7611984D01*
X20670182Y-7611984D02*
X20793991Y-7611984D01*
X20984468Y-7611984D02*
X20870182Y-7611984D01*
X20927325Y-7611984D02*
X20927325Y-7411984D01*
X20927325Y-7411984D02*
X20908277Y-7440555D01*
X20908277Y-7440555D02*
X20889229Y-7459603D01*
X20889229Y-7459603D02*
X20870182Y-7469127D01*
X21051134Y-7411984D02*
X21184468Y-7411984D01*
X21184468Y-7411984D02*
X21098753Y-7611984D01*
X21251134Y-7411984D02*
X21251134Y-7450079D01*
X21327325Y-7411984D02*
X21327325Y-7450079D01*
X21622563Y-7688174D02*
X21613039Y-7678650D01*
X21613039Y-7678650D02*
X21593991Y-7650079D01*
X21593991Y-7650079D02*
X21584468Y-7631031D01*
X21584468Y-7631031D02*
X21574944Y-7602460D01*
X21574944Y-7602460D02*
X21565420Y-7554841D01*
X21565420Y-7554841D02*
X21565420Y-7516746D01*
X21565420Y-7516746D02*
X21574944Y-7469127D01*
X21574944Y-7469127D02*
X21584468Y-7440555D01*
X21584468Y-7440555D02*
X21593991Y-7421508D01*
X21593991Y-7421508D02*
X21613039Y-7392936D01*
X21613039Y-7392936D02*
X21622563Y-7383412D01*
X21736849Y-7411984D02*
X21755896Y-7411984D01*
X21755896Y-7411984D02*
X21774944Y-7421508D01*
X21774944Y-7421508D02*
X21784468Y-7431031D01*
X21784468Y-7431031D02*
X21793991Y-7450079D01*
X21793991Y-7450079D02*
X21803515Y-7488174D01*
X21803515Y-7488174D02*
X21803515Y-7535793D01*
X21803515Y-7535793D02*
X21793991Y-7573888D01*
X21793991Y-7573888D02*
X21784468Y-7592936D01*
X21784468Y-7592936D02*
X21774944Y-7602460D01*
X21774944Y-7602460D02*
X21755896Y-7611984D01*
X21755896Y-7611984D02*
X21736849Y-7611984D01*
X21736849Y-7611984D02*
X21717801Y-7602460D01*
X21717801Y-7602460D02*
X21708277Y-7592936D01*
X21708277Y-7592936D02*
X21698753Y-7573888D01*
X21698753Y-7573888D02*
X21689230Y-7535793D01*
X21689230Y-7535793D02*
X21689230Y-7488174D01*
X21689230Y-7488174D02*
X21698753Y-7450079D01*
X21698753Y-7450079D02*
X21708277Y-7431031D01*
X21708277Y-7431031D02*
X21717801Y-7421508D01*
X21717801Y-7421508D02*
X21736849Y-7411984D01*
X22041611Y-7611984D02*
X22041611Y-7411984D01*
X22127325Y-7611984D02*
X22127325Y-7507222D01*
X22127325Y-7507222D02*
X22117801Y-7488174D01*
X22117801Y-7488174D02*
X22098753Y-7478650D01*
X22098753Y-7478650D02*
X22070182Y-7478650D01*
X22070182Y-7478650D02*
X22051134Y-7488174D01*
X22051134Y-7488174D02*
X22041611Y-7497698D01*
X22251134Y-7611984D02*
X22232087Y-7602460D01*
X22232087Y-7602460D02*
X22222563Y-7592936D01*
X22222563Y-7592936D02*
X22213039Y-7573888D01*
X22213039Y-7573888D02*
X22213039Y-7516746D01*
X22213039Y-7516746D02*
X22222563Y-7497698D01*
X22222563Y-7497698D02*
X22232087Y-7488174D01*
X22232087Y-7488174D02*
X22251134Y-7478650D01*
X22251134Y-7478650D02*
X22279706Y-7478650D01*
X22279706Y-7478650D02*
X22298753Y-7488174D01*
X22298753Y-7488174D02*
X22308277Y-7497698D01*
X22308277Y-7497698D02*
X22317801Y-7516746D01*
X22317801Y-7516746D02*
X22317801Y-7573888D01*
X22317801Y-7573888D02*
X22308277Y-7592936D01*
X22308277Y-7592936D02*
X22298753Y-7602460D01*
X22298753Y-7602460D02*
X22279706Y-7611984D01*
X22279706Y-7611984D02*
X22251134Y-7611984D01*
X22432087Y-7611984D02*
X22413039Y-7602460D01*
X22413039Y-7602460D02*
X22403515Y-7583412D01*
X22403515Y-7583412D02*
X22403515Y-7411984D01*
X22584468Y-7602460D02*
X22565420Y-7611984D01*
X22565420Y-7611984D02*
X22527325Y-7611984D01*
X22527325Y-7611984D02*
X22508277Y-7602460D01*
X22508277Y-7602460D02*
X22498753Y-7583412D01*
X22498753Y-7583412D02*
X22498753Y-7507222D01*
X22498753Y-7507222D02*
X22508277Y-7488174D01*
X22508277Y-7488174D02*
X22527325Y-7478650D01*
X22527325Y-7478650D02*
X22565420Y-7478650D01*
X22565420Y-7478650D02*
X22584468Y-7488174D01*
X22584468Y-7488174D02*
X22593991Y-7507222D01*
X22593991Y-7507222D02*
X22593991Y-7526269D01*
X22593991Y-7526269D02*
X22498753Y-7545317D01*
X22670182Y-7602460D02*
X22689230Y-7611984D01*
X22689230Y-7611984D02*
X22727325Y-7611984D01*
X22727325Y-7611984D02*
X22746372Y-7602460D01*
X22746372Y-7602460D02*
X22755896Y-7583412D01*
X22755896Y-7583412D02*
X22755896Y-7573888D01*
X22755896Y-7573888D02*
X22746372Y-7554841D01*
X22746372Y-7554841D02*
X22727325Y-7545317D01*
X22727325Y-7545317D02*
X22698753Y-7545317D01*
X22698753Y-7545317D02*
X22679706Y-7535793D01*
X22679706Y-7535793D02*
X22670182Y-7516746D01*
X22670182Y-7516746D02*
X22670182Y-7507222D01*
X22670182Y-7507222D02*
X22679706Y-7488174D01*
X22679706Y-7488174D02*
X22698753Y-7478650D01*
X22698753Y-7478650D02*
X22727325Y-7478650D01*
X22727325Y-7478650D02*
X22746372Y-7488174D01*
X22993992Y-7535793D02*
X23146373Y-7535793D01*
X23070182Y-7611984D02*
X23070182Y-7459603D01*
X23384468Y-7431031D02*
X23393992Y-7421508D01*
X23393992Y-7421508D02*
X23413039Y-7411984D01*
X23413039Y-7411984D02*
X23460658Y-7411984D01*
X23460658Y-7411984D02*
X23479706Y-7421508D01*
X23479706Y-7421508D02*
X23489230Y-7431031D01*
X23489230Y-7431031D02*
X23498753Y-7450079D01*
X23498753Y-7450079D02*
X23498753Y-7469127D01*
X23498753Y-7469127D02*
X23489230Y-7497698D01*
X23489230Y-7497698D02*
X23374944Y-7611984D01*
X23374944Y-7611984D02*
X23498753Y-7611984D01*
X23727325Y-7602460D02*
X23746373Y-7611984D01*
X23746373Y-7611984D02*
X23784468Y-7611984D01*
X23784468Y-7611984D02*
X23803515Y-7602460D01*
X23803515Y-7602460D02*
X23813039Y-7583412D01*
X23813039Y-7583412D02*
X23813039Y-7573888D01*
X23813039Y-7573888D02*
X23803515Y-7554841D01*
X23803515Y-7554841D02*
X23784468Y-7545317D01*
X23784468Y-7545317D02*
X23755896Y-7545317D01*
X23755896Y-7545317D02*
X23736849Y-7535793D01*
X23736849Y-7535793D02*
X23727325Y-7516746D01*
X23727325Y-7516746D02*
X23727325Y-7507222D01*
X23727325Y-7507222D02*
X23736849Y-7488174D01*
X23736849Y-7488174D02*
X23755896Y-7478650D01*
X23755896Y-7478650D02*
X23784468Y-7478650D01*
X23784468Y-7478650D02*
X23803515Y-7488174D01*
X23927325Y-7611984D02*
X23908277Y-7602460D01*
X23908277Y-7602460D02*
X23898754Y-7583412D01*
X23898754Y-7583412D02*
X23898754Y-7411984D01*
X24032087Y-7611984D02*
X24013039Y-7602460D01*
X24013039Y-7602460D02*
X24003515Y-7592936D01*
X24003515Y-7592936D02*
X23993992Y-7573888D01*
X23993992Y-7573888D02*
X23993992Y-7516746D01*
X23993992Y-7516746D02*
X24003515Y-7497698D01*
X24003515Y-7497698D02*
X24013039Y-7488174D01*
X24013039Y-7488174D02*
X24032087Y-7478650D01*
X24032087Y-7478650D02*
X24060658Y-7478650D01*
X24060658Y-7478650D02*
X24079706Y-7488174D01*
X24079706Y-7488174D02*
X24089230Y-7497698D01*
X24089230Y-7497698D02*
X24098754Y-7516746D01*
X24098754Y-7516746D02*
X24098754Y-7573888D01*
X24098754Y-7573888D02*
X24089230Y-7592936D01*
X24089230Y-7592936D02*
X24079706Y-7602460D01*
X24079706Y-7602460D02*
X24060658Y-7611984D01*
X24060658Y-7611984D02*
X24032087Y-7611984D01*
X24155896Y-7478650D02*
X24232087Y-7478650D01*
X24184468Y-7411984D02*
X24184468Y-7583412D01*
X24184468Y-7583412D02*
X24193992Y-7602460D01*
X24193992Y-7602460D02*
X24213039Y-7611984D01*
X24213039Y-7611984D02*
X24232087Y-7611984D01*
X24289230Y-7602460D02*
X24308277Y-7611984D01*
X24308277Y-7611984D02*
X24346373Y-7611984D01*
X24346373Y-7611984D02*
X24365420Y-7602460D01*
X24365420Y-7602460D02*
X24374944Y-7583412D01*
X24374944Y-7583412D02*
X24374944Y-7573888D01*
X24374944Y-7573888D02*
X24365420Y-7554841D01*
X24365420Y-7554841D02*
X24346373Y-7545317D01*
X24346373Y-7545317D02*
X24317801Y-7545317D01*
X24317801Y-7545317D02*
X24298754Y-7535793D01*
X24298754Y-7535793D02*
X24289230Y-7516746D01*
X24289230Y-7516746D02*
X24289230Y-7507222D01*
X24289230Y-7507222D02*
X24298754Y-7488174D01*
X24298754Y-7488174D02*
X24317801Y-7478650D01*
X24317801Y-7478650D02*
X24346373Y-7478650D01*
X24346373Y-7478650D02*
X24365420Y-7488174D01*
X24441611Y-7688174D02*
X24451135Y-7678650D01*
X24451135Y-7678650D02*
X24470182Y-7650079D01*
X24470182Y-7650079D02*
X24479706Y-7631031D01*
X24479706Y-7631031D02*
X24489230Y-7602460D01*
X24489230Y-7602460D02*
X24498754Y-7554841D01*
X24498754Y-7554841D02*
X24498754Y-7516746D01*
X24498754Y-7516746D02*
X24489230Y-7469127D01*
X24489230Y-7469127D02*
X24479706Y-7440555D01*
X24479706Y-7440555D02*
X24470182Y-7421508D01*
X24470182Y-7421508D02*
X24451135Y-7392936D01*
X24451135Y-7392936D02*
X24441611Y-7383412D01*
D12*
X18035052Y-7814552D02*
X18035052Y-7754448D01*
X17974948Y-7754448D01*
X17974948Y-7814552D01*
X18035052Y-7814552D01*
D11*
X18346372Y-7675984D02*
X18365420Y-7675984D01*
X18365420Y-7675984D02*
X18384467Y-7685508D01*
X18384467Y-7685508D02*
X18393991Y-7695031D01*
X18393991Y-7695031D02*
X18403515Y-7714079D01*
X18403515Y-7714079D02*
X18413039Y-7752174D01*
X18413039Y-7752174D02*
X18413039Y-7799793D01*
X18413039Y-7799793D02*
X18403515Y-7837888D01*
X18403515Y-7837888D02*
X18393991Y-7856936D01*
X18393991Y-7856936D02*
X18384467Y-7866460D01*
X18384467Y-7866460D02*
X18365420Y-7875984D01*
X18365420Y-7875984D02*
X18346372Y-7875984D01*
X18346372Y-7875984D02*
X18327324Y-7866460D01*
X18327324Y-7866460D02*
X18317801Y-7856936D01*
X18317801Y-7856936D02*
X18308277Y-7837888D01*
X18308277Y-7837888D02*
X18298753Y-7799793D01*
X18298753Y-7799793D02*
X18298753Y-7752174D01*
X18298753Y-7752174D02*
X18308277Y-7714079D01*
X18308277Y-7714079D02*
X18317801Y-7695031D01*
X18317801Y-7695031D02*
X18327324Y-7685508D01*
X18327324Y-7685508D02*
X18346372Y-7675984D01*
X18498753Y-7856936D02*
X18508277Y-7866460D01*
X18508277Y-7866460D02*
X18498753Y-7875984D01*
X18498753Y-7875984D02*
X18489229Y-7866460D01*
X18489229Y-7866460D02*
X18498753Y-7856936D01*
X18498753Y-7856936D02*
X18498753Y-7875984D01*
X18622563Y-7761698D02*
X18603515Y-7752174D01*
X18603515Y-7752174D02*
X18593991Y-7742650D01*
X18593991Y-7742650D02*
X18584467Y-7723603D01*
X18584467Y-7723603D02*
X18584467Y-7714079D01*
X18584467Y-7714079D02*
X18593991Y-7695031D01*
X18593991Y-7695031D02*
X18603515Y-7685508D01*
X18603515Y-7685508D02*
X18622563Y-7675984D01*
X18622563Y-7675984D02*
X18660658Y-7675984D01*
X18660658Y-7675984D02*
X18679705Y-7685508D01*
X18679705Y-7685508D02*
X18689229Y-7695031D01*
X18689229Y-7695031D02*
X18698753Y-7714079D01*
X18698753Y-7714079D02*
X18698753Y-7723603D01*
X18698753Y-7723603D02*
X18689229Y-7742650D01*
X18689229Y-7742650D02*
X18679705Y-7752174D01*
X18679705Y-7752174D02*
X18660658Y-7761698D01*
X18660658Y-7761698D02*
X18622563Y-7761698D01*
X18622563Y-7761698D02*
X18603515Y-7771222D01*
X18603515Y-7771222D02*
X18593991Y-7780746D01*
X18593991Y-7780746D02*
X18584467Y-7799793D01*
X18584467Y-7799793D02*
X18584467Y-7837888D01*
X18584467Y-7837888D02*
X18593991Y-7856936D01*
X18593991Y-7856936D02*
X18603515Y-7866460D01*
X18603515Y-7866460D02*
X18622563Y-7875984D01*
X18622563Y-7875984D02*
X18660658Y-7875984D01*
X18660658Y-7875984D02*
X18679705Y-7866460D01*
X18679705Y-7866460D02*
X18689229Y-7856936D01*
X18689229Y-7856936D02*
X18698753Y-7837888D01*
X18698753Y-7837888D02*
X18698753Y-7799793D01*
X18698753Y-7799793D02*
X18689229Y-7780746D01*
X18689229Y-7780746D02*
X18679705Y-7771222D01*
X18679705Y-7771222D02*
X18660658Y-7761698D01*
X18879705Y-7675984D02*
X18784467Y-7675984D01*
X18784467Y-7675984D02*
X18774944Y-7771222D01*
X18774944Y-7771222D02*
X18784467Y-7761698D01*
X18784467Y-7761698D02*
X18803515Y-7752174D01*
X18803515Y-7752174D02*
X18851134Y-7752174D01*
X18851134Y-7752174D02*
X18870182Y-7761698D01*
X18870182Y-7761698D02*
X18879705Y-7771222D01*
X18879705Y-7771222D02*
X18889229Y-7790269D01*
X18889229Y-7790269D02*
X18889229Y-7837888D01*
X18889229Y-7837888D02*
X18879705Y-7856936D01*
X18879705Y-7856936D02*
X18870182Y-7866460D01*
X18870182Y-7866460D02*
X18851134Y-7875984D01*
X18851134Y-7875984D02*
X18803515Y-7875984D01*
X18803515Y-7875984D02*
X18784467Y-7866460D01*
X18784467Y-7866460D02*
X18774944Y-7856936D01*
X19013039Y-7675984D02*
X19032086Y-7675984D01*
X19032086Y-7675984D02*
X19051134Y-7685508D01*
X19051134Y-7685508D02*
X19060658Y-7695031D01*
X19060658Y-7695031D02*
X19070182Y-7714079D01*
X19070182Y-7714079D02*
X19079705Y-7752174D01*
X19079705Y-7752174D02*
X19079705Y-7799793D01*
X19079705Y-7799793D02*
X19070182Y-7837888D01*
X19070182Y-7837888D02*
X19060658Y-7856936D01*
X19060658Y-7856936D02*
X19051134Y-7866460D01*
X19051134Y-7866460D02*
X19032086Y-7875984D01*
X19032086Y-7875984D02*
X19013039Y-7875984D01*
X19013039Y-7875984D02*
X18993991Y-7866460D01*
X18993991Y-7866460D02*
X18984467Y-7856936D01*
X18984467Y-7856936D02*
X18974944Y-7837888D01*
X18974944Y-7837888D02*
X18965420Y-7799793D01*
X18965420Y-7799793D02*
X18965420Y-7752174D01*
X18965420Y-7752174D02*
X18974944Y-7714079D01*
X18974944Y-7714079D02*
X18984467Y-7695031D01*
X18984467Y-7695031D02*
X18993991Y-7685508D01*
X18993991Y-7685508D02*
X19013039Y-7675984D01*
X19165420Y-7875984D02*
X19165420Y-7742650D01*
X19165420Y-7761698D02*
X19174944Y-7752174D01*
X19174944Y-7752174D02*
X19193991Y-7742650D01*
X19193991Y-7742650D02*
X19222563Y-7742650D01*
X19222563Y-7742650D02*
X19241610Y-7752174D01*
X19241610Y-7752174D02*
X19251134Y-7771222D01*
X19251134Y-7771222D02*
X19251134Y-7875984D01*
X19251134Y-7771222D02*
X19260658Y-7752174D01*
X19260658Y-7752174D02*
X19279705Y-7742650D01*
X19279705Y-7742650D02*
X19308277Y-7742650D01*
X19308277Y-7742650D02*
X19327325Y-7752174D01*
X19327325Y-7752174D02*
X19336848Y-7771222D01*
X19336848Y-7771222D02*
X19336848Y-7875984D01*
X19432086Y-7875984D02*
X19432086Y-7742650D01*
X19432086Y-7761698D02*
X19441610Y-7752174D01*
X19441610Y-7752174D02*
X19460658Y-7742650D01*
X19460658Y-7742650D02*
X19489229Y-7742650D01*
X19489229Y-7742650D02*
X19508277Y-7752174D01*
X19508277Y-7752174D02*
X19517801Y-7771222D01*
X19517801Y-7771222D02*
X19517801Y-7875984D01*
X19517801Y-7771222D02*
X19527325Y-7752174D01*
X19527325Y-7752174D02*
X19546372Y-7742650D01*
X19546372Y-7742650D02*
X19574944Y-7742650D01*
X19574944Y-7742650D02*
X19593991Y-7752174D01*
X19593991Y-7752174D02*
X19603515Y-7771222D01*
X19603515Y-7771222D02*
X19603515Y-7875984D01*
X19993991Y-7666460D02*
X19822563Y-7923603D01*
X20251134Y-7675984D02*
X20270182Y-7675984D01*
X20270182Y-7675984D02*
X20289229Y-7685508D01*
X20289229Y-7685508D02*
X20298753Y-7695031D01*
X20298753Y-7695031D02*
X20308277Y-7714079D01*
X20308277Y-7714079D02*
X20317801Y-7752174D01*
X20317801Y-7752174D02*
X20317801Y-7799793D01*
X20317801Y-7799793D02*
X20308277Y-7837888D01*
X20308277Y-7837888D02*
X20298753Y-7856936D01*
X20298753Y-7856936D02*
X20289229Y-7866460D01*
X20289229Y-7866460D02*
X20270182Y-7875984D01*
X20270182Y-7875984D02*
X20251134Y-7875984D01*
X20251134Y-7875984D02*
X20232087Y-7866460D01*
X20232087Y-7866460D02*
X20222563Y-7856936D01*
X20222563Y-7856936D02*
X20213039Y-7837888D01*
X20213039Y-7837888D02*
X20203515Y-7799793D01*
X20203515Y-7799793D02*
X20203515Y-7752174D01*
X20203515Y-7752174D02*
X20213039Y-7714079D01*
X20213039Y-7714079D02*
X20222563Y-7695031D01*
X20222563Y-7695031D02*
X20232087Y-7685508D01*
X20232087Y-7685508D02*
X20251134Y-7675984D01*
X20403515Y-7856936D02*
X20413039Y-7866460D01*
X20413039Y-7866460D02*
X20403515Y-7875984D01*
X20403515Y-7875984D02*
X20393991Y-7866460D01*
X20393991Y-7866460D02*
X20403515Y-7856936D01*
X20403515Y-7856936D02*
X20403515Y-7875984D01*
X20536848Y-7675984D02*
X20555896Y-7675984D01*
X20555896Y-7675984D02*
X20574944Y-7685508D01*
X20574944Y-7685508D02*
X20584468Y-7695031D01*
X20584468Y-7695031D02*
X20593991Y-7714079D01*
X20593991Y-7714079D02*
X20603515Y-7752174D01*
X20603515Y-7752174D02*
X20603515Y-7799793D01*
X20603515Y-7799793D02*
X20593991Y-7837888D01*
X20593991Y-7837888D02*
X20584468Y-7856936D01*
X20584468Y-7856936D02*
X20574944Y-7866460D01*
X20574944Y-7866460D02*
X20555896Y-7875984D01*
X20555896Y-7875984D02*
X20536848Y-7875984D01*
X20536848Y-7875984D02*
X20517801Y-7866460D01*
X20517801Y-7866460D02*
X20508277Y-7856936D01*
X20508277Y-7856936D02*
X20498753Y-7837888D01*
X20498753Y-7837888D02*
X20489229Y-7799793D01*
X20489229Y-7799793D02*
X20489229Y-7752174D01*
X20489229Y-7752174D02*
X20498753Y-7714079D01*
X20498753Y-7714079D02*
X20508277Y-7695031D01*
X20508277Y-7695031D02*
X20517801Y-7685508D01*
X20517801Y-7685508D02*
X20536848Y-7675984D01*
X20670182Y-7675984D02*
X20793991Y-7675984D01*
X20793991Y-7675984D02*
X20727325Y-7752174D01*
X20727325Y-7752174D02*
X20755896Y-7752174D01*
X20755896Y-7752174D02*
X20774944Y-7761698D01*
X20774944Y-7761698D02*
X20784468Y-7771222D01*
X20784468Y-7771222D02*
X20793991Y-7790269D01*
X20793991Y-7790269D02*
X20793991Y-7837888D01*
X20793991Y-7837888D02*
X20784468Y-7856936D01*
X20784468Y-7856936D02*
X20774944Y-7866460D01*
X20774944Y-7866460D02*
X20755896Y-7875984D01*
X20755896Y-7875984D02*
X20698753Y-7875984D01*
X20698753Y-7875984D02*
X20679706Y-7866460D01*
X20679706Y-7866460D02*
X20670182Y-7856936D01*
X20860658Y-7675984D02*
X20984468Y-7675984D01*
X20984468Y-7675984D02*
X20917801Y-7752174D01*
X20917801Y-7752174D02*
X20946372Y-7752174D01*
X20946372Y-7752174D02*
X20965420Y-7761698D01*
X20965420Y-7761698D02*
X20974944Y-7771222D01*
X20974944Y-7771222D02*
X20984468Y-7790269D01*
X20984468Y-7790269D02*
X20984468Y-7837888D01*
X20984468Y-7837888D02*
X20974944Y-7856936D01*
X20974944Y-7856936D02*
X20965420Y-7866460D01*
X20965420Y-7866460D02*
X20946372Y-7875984D01*
X20946372Y-7875984D02*
X20889229Y-7875984D01*
X20889229Y-7875984D02*
X20870182Y-7866460D01*
X20870182Y-7866460D02*
X20860658Y-7856936D01*
X21165420Y-7675984D02*
X21070182Y-7675984D01*
X21070182Y-7675984D02*
X21060658Y-7771222D01*
X21060658Y-7771222D02*
X21070182Y-7761698D01*
X21070182Y-7761698D02*
X21089229Y-7752174D01*
X21089229Y-7752174D02*
X21136849Y-7752174D01*
X21136849Y-7752174D02*
X21155896Y-7761698D01*
X21155896Y-7761698D02*
X21165420Y-7771222D01*
X21165420Y-7771222D02*
X21174944Y-7790269D01*
X21174944Y-7790269D02*
X21174944Y-7837888D01*
X21174944Y-7837888D02*
X21165420Y-7856936D01*
X21165420Y-7856936D02*
X21155896Y-7866460D01*
X21155896Y-7866460D02*
X21136849Y-7875984D01*
X21136849Y-7875984D02*
X21089229Y-7875984D01*
X21089229Y-7875984D02*
X21070182Y-7866460D01*
X21070182Y-7866460D02*
X21060658Y-7856936D01*
X21251134Y-7675984D02*
X21251134Y-7714079D01*
X21327325Y-7675984D02*
X21327325Y-7714079D01*
X21622563Y-7952174D02*
X21613039Y-7942650D01*
X21613039Y-7942650D02*
X21593991Y-7914079D01*
X21593991Y-7914079D02*
X21584468Y-7895031D01*
X21584468Y-7895031D02*
X21574944Y-7866460D01*
X21574944Y-7866460D02*
X21565420Y-7818841D01*
X21565420Y-7818841D02*
X21565420Y-7780746D01*
X21565420Y-7780746D02*
X21574944Y-7733127D01*
X21574944Y-7733127D02*
X21584468Y-7704555D01*
X21584468Y-7704555D02*
X21593991Y-7685508D01*
X21593991Y-7685508D02*
X21613039Y-7656936D01*
X21613039Y-7656936D02*
X21622563Y-7647412D01*
X21736849Y-7675984D02*
X21755896Y-7675984D01*
X21755896Y-7675984D02*
X21774944Y-7685508D01*
X21774944Y-7685508D02*
X21784468Y-7695031D01*
X21784468Y-7695031D02*
X21793991Y-7714079D01*
X21793991Y-7714079D02*
X21803515Y-7752174D01*
X21803515Y-7752174D02*
X21803515Y-7799793D01*
X21803515Y-7799793D02*
X21793991Y-7837888D01*
X21793991Y-7837888D02*
X21784468Y-7856936D01*
X21784468Y-7856936D02*
X21774944Y-7866460D01*
X21774944Y-7866460D02*
X21755896Y-7875984D01*
X21755896Y-7875984D02*
X21736849Y-7875984D01*
X21736849Y-7875984D02*
X21717801Y-7866460D01*
X21717801Y-7866460D02*
X21708277Y-7856936D01*
X21708277Y-7856936D02*
X21698753Y-7837888D01*
X21698753Y-7837888D02*
X21689230Y-7799793D01*
X21689230Y-7799793D02*
X21689230Y-7752174D01*
X21689230Y-7752174D02*
X21698753Y-7714079D01*
X21698753Y-7714079D02*
X21708277Y-7695031D01*
X21708277Y-7695031D02*
X21717801Y-7685508D01*
X21717801Y-7685508D02*
X21736849Y-7675984D01*
X22041611Y-7875984D02*
X22041611Y-7675984D01*
X22127325Y-7875984D02*
X22127325Y-7771222D01*
X22127325Y-7771222D02*
X22117801Y-7752174D01*
X22117801Y-7752174D02*
X22098753Y-7742650D01*
X22098753Y-7742650D02*
X22070182Y-7742650D01*
X22070182Y-7742650D02*
X22051134Y-7752174D01*
X22051134Y-7752174D02*
X22041611Y-7761698D01*
X22251134Y-7875984D02*
X22232087Y-7866460D01*
X22232087Y-7866460D02*
X22222563Y-7856936D01*
X22222563Y-7856936D02*
X22213039Y-7837888D01*
X22213039Y-7837888D02*
X22213039Y-7780746D01*
X22213039Y-7780746D02*
X22222563Y-7761698D01*
X22222563Y-7761698D02*
X22232087Y-7752174D01*
X22232087Y-7752174D02*
X22251134Y-7742650D01*
X22251134Y-7742650D02*
X22279706Y-7742650D01*
X22279706Y-7742650D02*
X22298753Y-7752174D01*
X22298753Y-7752174D02*
X22308277Y-7761698D01*
X22308277Y-7761698D02*
X22317801Y-7780746D01*
X22317801Y-7780746D02*
X22317801Y-7837888D01*
X22317801Y-7837888D02*
X22308277Y-7856936D01*
X22308277Y-7856936D02*
X22298753Y-7866460D01*
X22298753Y-7866460D02*
X22279706Y-7875984D01*
X22279706Y-7875984D02*
X22251134Y-7875984D01*
X22432087Y-7875984D02*
X22413039Y-7866460D01*
X22413039Y-7866460D02*
X22403515Y-7847412D01*
X22403515Y-7847412D02*
X22403515Y-7675984D01*
X22584468Y-7866460D02*
X22565420Y-7875984D01*
X22565420Y-7875984D02*
X22527325Y-7875984D01*
X22527325Y-7875984D02*
X22508277Y-7866460D01*
X22508277Y-7866460D02*
X22498753Y-7847412D01*
X22498753Y-7847412D02*
X22498753Y-7771222D01*
X22498753Y-7771222D02*
X22508277Y-7752174D01*
X22508277Y-7752174D02*
X22527325Y-7742650D01*
X22527325Y-7742650D02*
X22565420Y-7742650D01*
X22565420Y-7742650D02*
X22584468Y-7752174D01*
X22584468Y-7752174D02*
X22593991Y-7771222D01*
X22593991Y-7771222D02*
X22593991Y-7790269D01*
X22593991Y-7790269D02*
X22498753Y-7809317D01*
X22670182Y-7866460D02*
X22689230Y-7875984D01*
X22689230Y-7875984D02*
X22727325Y-7875984D01*
X22727325Y-7875984D02*
X22746372Y-7866460D01*
X22746372Y-7866460D02*
X22755896Y-7847412D01*
X22755896Y-7847412D02*
X22755896Y-7837888D01*
X22755896Y-7837888D02*
X22746372Y-7818841D01*
X22746372Y-7818841D02*
X22727325Y-7809317D01*
X22727325Y-7809317D02*
X22698753Y-7809317D01*
X22698753Y-7809317D02*
X22679706Y-7799793D01*
X22679706Y-7799793D02*
X22670182Y-7780746D01*
X22670182Y-7780746D02*
X22670182Y-7771222D01*
X22670182Y-7771222D02*
X22679706Y-7752174D01*
X22679706Y-7752174D02*
X22698753Y-7742650D01*
X22698753Y-7742650D02*
X22727325Y-7742650D01*
X22727325Y-7742650D02*
X22746372Y-7752174D01*
X22993992Y-7799793D02*
X23146373Y-7799793D01*
X23070182Y-7875984D02*
X23070182Y-7723603D01*
X23384468Y-7695031D02*
X23393992Y-7685508D01*
X23393992Y-7685508D02*
X23413039Y-7675984D01*
X23413039Y-7675984D02*
X23460658Y-7675984D01*
X23460658Y-7675984D02*
X23479706Y-7685508D01*
X23479706Y-7685508D02*
X23489230Y-7695031D01*
X23489230Y-7695031D02*
X23498753Y-7714079D01*
X23498753Y-7714079D02*
X23498753Y-7733127D01*
X23498753Y-7733127D02*
X23489230Y-7761698D01*
X23489230Y-7761698D02*
X23374944Y-7875984D01*
X23374944Y-7875984D02*
X23498753Y-7875984D01*
X23727325Y-7866460D02*
X23746373Y-7875984D01*
X23746373Y-7875984D02*
X23784468Y-7875984D01*
X23784468Y-7875984D02*
X23803515Y-7866460D01*
X23803515Y-7866460D02*
X23813039Y-7847412D01*
X23813039Y-7847412D02*
X23813039Y-7837888D01*
X23813039Y-7837888D02*
X23803515Y-7818841D01*
X23803515Y-7818841D02*
X23784468Y-7809317D01*
X23784468Y-7809317D02*
X23755896Y-7809317D01*
X23755896Y-7809317D02*
X23736849Y-7799793D01*
X23736849Y-7799793D02*
X23727325Y-7780746D01*
X23727325Y-7780746D02*
X23727325Y-7771222D01*
X23727325Y-7771222D02*
X23736849Y-7752174D01*
X23736849Y-7752174D02*
X23755896Y-7742650D01*
X23755896Y-7742650D02*
X23784468Y-7742650D01*
X23784468Y-7742650D02*
X23803515Y-7752174D01*
X23927325Y-7875984D02*
X23908277Y-7866460D01*
X23908277Y-7866460D02*
X23898754Y-7847412D01*
X23898754Y-7847412D02*
X23898754Y-7675984D01*
X24032087Y-7875984D02*
X24013039Y-7866460D01*
X24013039Y-7866460D02*
X24003515Y-7856936D01*
X24003515Y-7856936D02*
X23993992Y-7837888D01*
X23993992Y-7837888D02*
X23993992Y-7780746D01*
X23993992Y-7780746D02*
X24003515Y-7761698D01*
X24003515Y-7761698D02*
X24013039Y-7752174D01*
X24013039Y-7752174D02*
X24032087Y-7742650D01*
X24032087Y-7742650D02*
X24060658Y-7742650D01*
X24060658Y-7742650D02*
X24079706Y-7752174D01*
X24079706Y-7752174D02*
X24089230Y-7761698D01*
X24089230Y-7761698D02*
X24098754Y-7780746D01*
X24098754Y-7780746D02*
X24098754Y-7837888D01*
X24098754Y-7837888D02*
X24089230Y-7856936D01*
X24089230Y-7856936D02*
X24079706Y-7866460D01*
X24079706Y-7866460D02*
X24060658Y-7875984D01*
X24060658Y-7875984D02*
X24032087Y-7875984D01*
X24155896Y-7742650D02*
X24232087Y-7742650D01*
X24184468Y-7675984D02*
X24184468Y-7847412D01*
X24184468Y-7847412D02*
X24193992Y-7866460D01*
X24193992Y-7866460D02*
X24213039Y-7875984D01*
X24213039Y-7875984D02*
X24232087Y-7875984D01*
X24289230Y-7866460D02*
X24308277Y-7875984D01*
X24308277Y-7875984D02*
X24346373Y-7875984D01*
X24346373Y-7875984D02*
X24365420Y-7866460D01*
X24365420Y-7866460D02*
X24374944Y-7847412D01*
X24374944Y-7847412D02*
X24374944Y-7837888D01*
X24374944Y-7837888D02*
X24365420Y-7818841D01*
X24365420Y-7818841D02*
X24346373Y-7809317D01*
X24346373Y-7809317D02*
X24317801Y-7809317D01*
X24317801Y-7809317D02*
X24298754Y-7799793D01*
X24298754Y-7799793D02*
X24289230Y-7780746D01*
X24289230Y-7780746D02*
X24289230Y-7771222D01*
X24289230Y-7771222D02*
X24298754Y-7752174D01*
X24298754Y-7752174D02*
X24317801Y-7742650D01*
X24317801Y-7742650D02*
X24346373Y-7742650D01*
X24346373Y-7742650D02*
X24365420Y-7752174D01*
X24441611Y-7952174D02*
X24451135Y-7942650D01*
X24451135Y-7942650D02*
X24470182Y-7914079D01*
X24470182Y-7914079D02*
X24479706Y-7895031D01*
X24479706Y-7895031D02*
X24489230Y-7866460D01*
X24489230Y-7866460D02*
X24498754Y-7818841D01*
X24498754Y-7818841D02*
X24498754Y-7780746D01*
X24498754Y-7780746D02*
X24489230Y-7733127D01*
X24489230Y-7733127D02*
X24479706Y-7704555D01*
X24479706Y-7704555D02*
X24470182Y-7685508D01*
X24470182Y-7685508D02*
X24451135Y-7656936D01*
X24451135Y-7656936D02*
X24441611Y-7647412D01*
D12*
X17997500Y-8098500D02*
X18047500Y-8048500D01*
X17997500Y-7998500D01*
X17947500Y-8048500D01*
X17997500Y-8098500D01*
D11*
X18413039Y-8139984D02*
X18298753Y-8139984D01*
X18355896Y-8139984D02*
X18355896Y-7939984D01*
X18355896Y-7939984D02*
X18336848Y-7968555D01*
X18336848Y-7968555D02*
X18317801Y-7987603D01*
X18317801Y-7987603D02*
X18298753Y-7997127D01*
X18498753Y-8120936D02*
X18508277Y-8130460D01*
X18508277Y-8130460D02*
X18498753Y-8139984D01*
X18498753Y-8139984D02*
X18489229Y-8130460D01*
X18489229Y-8130460D02*
X18498753Y-8120936D01*
X18498753Y-8120936D02*
X18498753Y-8139984D01*
X18632086Y-7939984D02*
X18651134Y-7939984D01*
X18651134Y-7939984D02*
X18670182Y-7949508D01*
X18670182Y-7949508D02*
X18679705Y-7959031D01*
X18679705Y-7959031D02*
X18689229Y-7978079D01*
X18689229Y-7978079D02*
X18698753Y-8016174D01*
X18698753Y-8016174D02*
X18698753Y-8063793D01*
X18698753Y-8063793D02*
X18689229Y-8101888D01*
X18689229Y-8101888D02*
X18679705Y-8120936D01*
X18679705Y-8120936D02*
X18670182Y-8130460D01*
X18670182Y-8130460D02*
X18651134Y-8139984D01*
X18651134Y-8139984D02*
X18632086Y-8139984D01*
X18632086Y-8139984D02*
X18613039Y-8130460D01*
X18613039Y-8130460D02*
X18603515Y-8120936D01*
X18603515Y-8120936D02*
X18593991Y-8101888D01*
X18593991Y-8101888D02*
X18584467Y-8063793D01*
X18584467Y-8063793D02*
X18584467Y-8016174D01*
X18584467Y-8016174D02*
X18593991Y-7978079D01*
X18593991Y-7978079D02*
X18603515Y-7959031D01*
X18603515Y-7959031D02*
X18613039Y-7949508D01*
X18613039Y-7949508D02*
X18632086Y-7939984D01*
X18822563Y-7939984D02*
X18841610Y-7939984D01*
X18841610Y-7939984D02*
X18860658Y-7949508D01*
X18860658Y-7949508D02*
X18870182Y-7959031D01*
X18870182Y-7959031D02*
X18879705Y-7978079D01*
X18879705Y-7978079D02*
X18889229Y-8016174D01*
X18889229Y-8016174D02*
X18889229Y-8063793D01*
X18889229Y-8063793D02*
X18879705Y-8101888D01*
X18879705Y-8101888D02*
X18870182Y-8120936D01*
X18870182Y-8120936D02*
X18860658Y-8130460D01*
X18860658Y-8130460D02*
X18841610Y-8139984D01*
X18841610Y-8139984D02*
X18822563Y-8139984D01*
X18822563Y-8139984D02*
X18803515Y-8130460D01*
X18803515Y-8130460D02*
X18793991Y-8120936D01*
X18793991Y-8120936D02*
X18784467Y-8101888D01*
X18784467Y-8101888D02*
X18774944Y-8063793D01*
X18774944Y-8063793D02*
X18774944Y-8016174D01*
X18774944Y-8016174D02*
X18784467Y-7978079D01*
X18784467Y-7978079D02*
X18793991Y-7959031D01*
X18793991Y-7959031D02*
X18803515Y-7949508D01*
X18803515Y-7949508D02*
X18822563Y-7939984D01*
X19013039Y-7939984D02*
X19032086Y-7939984D01*
X19032086Y-7939984D02*
X19051134Y-7949508D01*
X19051134Y-7949508D02*
X19060658Y-7959031D01*
X19060658Y-7959031D02*
X19070182Y-7978079D01*
X19070182Y-7978079D02*
X19079705Y-8016174D01*
X19079705Y-8016174D02*
X19079705Y-8063793D01*
X19079705Y-8063793D02*
X19070182Y-8101888D01*
X19070182Y-8101888D02*
X19060658Y-8120936D01*
X19060658Y-8120936D02*
X19051134Y-8130460D01*
X19051134Y-8130460D02*
X19032086Y-8139984D01*
X19032086Y-8139984D02*
X19013039Y-8139984D01*
X19013039Y-8139984D02*
X18993991Y-8130460D01*
X18993991Y-8130460D02*
X18984467Y-8120936D01*
X18984467Y-8120936D02*
X18974944Y-8101888D01*
X18974944Y-8101888D02*
X18965420Y-8063793D01*
X18965420Y-8063793D02*
X18965420Y-8016174D01*
X18965420Y-8016174D02*
X18974944Y-7978079D01*
X18974944Y-7978079D02*
X18984467Y-7959031D01*
X18984467Y-7959031D02*
X18993991Y-7949508D01*
X18993991Y-7949508D02*
X19013039Y-7939984D01*
X19165420Y-8139984D02*
X19165420Y-8006650D01*
X19165420Y-8025698D02*
X19174944Y-8016174D01*
X19174944Y-8016174D02*
X19193991Y-8006650D01*
X19193991Y-8006650D02*
X19222563Y-8006650D01*
X19222563Y-8006650D02*
X19241610Y-8016174D01*
X19241610Y-8016174D02*
X19251134Y-8035222D01*
X19251134Y-8035222D02*
X19251134Y-8139984D01*
X19251134Y-8035222D02*
X19260658Y-8016174D01*
X19260658Y-8016174D02*
X19279705Y-8006650D01*
X19279705Y-8006650D02*
X19308277Y-8006650D01*
X19308277Y-8006650D02*
X19327325Y-8016174D01*
X19327325Y-8016174D02*
X19336848Y-8035222D01*
X19336848Y-8035222D02*
X19336848Y-8139984D01*
X19432086Y-8139984D02*
X19432086Y-8006650D01*
X19432086Y-8025698D02*
X19441610Y-8016174D01*
X19441610Y-8016174D02*
X19460658Y-8006650D01*
X19460658Y-8006650D02*
X19489229Y-8006650D01*
X19489229Y-8006650D02*
X19508277Y-8016174D01*
X19508277Y-8016174D02*
X19517801Y-8035222D01*
X19517801Y-8035222D02*
X19517801Y-8139984D01*
X19517801Y-8035222D02*
X19527325Y-8016174D01*
X19527325Y-8016174D02*
X19546372Y-8006650D01*
X19546372Y-8006650D02*
X19574944Y-8006650D01*
X19574944Y-8006650D02*
X19593991Y-8016174D01*
X19593991Y-8016174D02*
X19603515Y-8035222D01*
X19603515Y-8035222D02*
X19603515Y-8139984D01*
X19993991Y-7930460D02*
X19822563Y-8187603D01*
X20251134Y-7939984D02*
X20270182Y-7939984D01*
X20270182Y-7939984D02*
X20289229Y-7949508D01*
X20289229Y-7949508D02*
X20298753Y-7959031D01*
X20298753Y-7959031D02*
X20308277Y-7978079D01*
X20308277Y-7978079D02*
X20317801Y-8016174D01*
X20317801Y-8016174D02*
X20317801Y-8063793D01*
X20317801Y-8063793D02*
X20308277Y-8101888D01*
X20308277Y-8101888D02*
X20298753Y-8120936D01*
X20298753Y-8120936D02*
X20289229Y-8130460D01*
X20289229Y-8130460D02*
X20270182Y-8139984D01*
X20270182Y-8139984D02*
X20251134Y-8139984D01*
X20251134Y-8139984D02*
X20232087Y-8130460D01*
X20232087Y-8130460D02*
X20222563Y-8120936D01*
X20222563Y-8120936D02*
X20213039Y-8101888D01*
X20213039Y-8101888D02*
X20203515Y-8063793D01*
X20203515Y-8063793D02*
X20203515Y-8016174D01*
X20203515Y-8016174D02*
X20213039Y-7978079D01*
X20213039Y-7978079D02*
X20222563Y-7959031D01*
X20222563Y-7959031D02*
X20232087Y-7949508D01*
X20232087Y-7949508D02*
X20251134Y-7939984D01*
X20403515Y-8120936D02*
X20413039Y-8130460D01*
X20413039Y-8130460D02*
X20403515Y-8139984D01*
X20403515Y-8139984D02*
X20393991Y-8130460D01*
X20393991Y-8130460D02*
X20403515Y-8120936D01*
X20403515Y-8120936D02*
X20403515Y-8139984D01*
X20536848Y-7939984D02*
X20555896Y-7939984D01*
X20555896Y-7939984D02*
X20574944Y-7949508D01*
X20574944Y-7949508D02*
X20584468Y-7959031D01*
X20584468Y-7959031D02*
X20593991Y-7978079D01*
X20593991Y-7978079D02*
X20603515Y-8016174D01*
X20603515Y-8016174D02*
X20603515Y-8063793D01*
X20603515Y-8063793D02*
X20593991Y-8101888D01*
X20593991Y-8101888D02*
X20584468Y-8120936D01*
X20584468Y-8120936D02*
X20574944Y-8130460D01*
X20574944Y-8130460D02*
X20555896Y-8139984D01*
X20555896Y-8139984D02*
X20536848Y-8139984D01*
X20536848Y-8139984D02*
X20517801Y-8130460D01*
X20517801Y-8130460D02*
X20508277Y-8120936D01*
X20508277Y-8120936D02*
X20498753Y-8101888D01*
X20498753Y-8101888D02*
X20489229Y-8063793D01*
X20489229Y-8063793D02*
X20489229Y-8016174D01*
X20489229Y-8016174D02*
X20498753Y-7978079D01*
X20498753Y-7978079D02*
X20508277Y-7959031D01*
X20508277Y-7959031D02*
X20517801Y-7949508D01*
X20517801Y-7949508D02*
X20536848Y-7939984D01*
X20670182Y-7939984D02*
X20793991Y-7939984D01*
X20793991Y-7939984D02*
X20727325Y-8016174D01*
X20727325Y-8016174D02*
X20755896Y-8016174D01*
X20755896Y-8016174D02*
X20774944Y-8025698D01*
X20774944Y-8025698D02*
X20784468Y-8035222D01*
X20784468Y-8035222D02*
X20793991Y-8054269D01*
X20793991Y-8054269D02*
X20793991Y-8101888D01*
X20793991Y-8101888D02*
X20784468Y-8120936D01*
X20784468Y-8120936D02*
X20774944Y-8130460D01*
X20774944Y-8130460D02*
X20755896Y-8139984D01*
X20755896Y-8139984D02*
X20698753Y-8139984D01*
X20698753Y-8139984D02*
X20679706Y-8130460D01*
X20679706Y-8130460D02*
X20670182Y-8120936D01*
X20889229Y-8139984D02*
X20927325Y-8139984D01*
X20927325Y-8139984D02*
X20946372Y-8130460D01*
X20946372Y-8130460D02*
X20955896Y-8120936D01*
X20955896Y-8120936D02*
X20974944Y-8092365D01*
X20974944Y-8092365D02*
X20984468Y-8054269D01*
X20984468Y-8054269D02*
X20984468Y-7978079D01*
X20984468Y-7978079D02*
X20974944Y-7959031D01*
X20974944Y-7959031D02*
X20965420Y-7949508D01*
X20965420Y-7949508D02*
X20946372Y-7939984D01*
X20946372Y-7939984D02*
X20908277Y-7939984D01*
X20908277Y-7939984D02*
X20889229Y-7949508D01*
X20889229Y-7949508D02*
X20879706Y-7959031D01*
X20879706Y-7959031D02*
X20870182Y-7978079D01*
X20870182Y-7978079D02*
X20870182Y-8025698D01*
X20870182Y-8025698D02*
X20879706Y-8044746D01*
X20879706Y-8044746D02*
X20889229Y-8054269D01*
X20889229Y-8054269D02*
X20908277Y-8063793D01*
X20908277Y-8063793D02*
X20946372Y-8063793D01*
X20946372Y-8063793D02*
X20965420Y-8054269D01*
X20965420Y-8054269D02*
X20974944Y-8044746D01*
X20974944Y-8044746D02*
X20984468Y-8025698D01*
X21155896Y-8006650D02*
X21155896Y-8139984D01*
X21108277Y-7930460D02*
X21060658Y-8073317D01*
X21060658Y-8073317D02*
X21184468Y-8073317D01*
X21251134Y-7939984D02*
X21251134Y-7978079D01*
X21327325Y-7939984D02*
X21327325Y-7978079D01*
X21622563Y-8216174D02*
X21613039Y-8206650D01*
X21613039Y-8206650D02*
X21593991Y-8178079D01*
X21593991Y-8178079D02*
X21584468Y-8159031D01*
X21584468Y-8159031D02*
X21574944Y-8130460D01*
X21574944Y-8130460D02*
X21565420Y-8082841D01*
X21565420Y-8082841D02*
X21565420Y-8044746D01*
X21565420Y-8044746D02*
X21574944Y-7997127D01*
X21574944Y-7997127D02*
X21584468Y-7968555D01*
X21584468Y-7968555D02*
X21593991Y-7949508D01*
X21593991Y-7949508D02*
X21613039Y-7920936D01*
X21613039Y-7920936D02*
X21622563Y-7911412D01*
X21679706Y-7939984D02*
X21803515Y-7939984D01*
X21803515Y-7939984D02*
X21736849Y-8016174D01*
X21736849Y-8016174D02*
X21765420Y-8016174D01*
X21765420Y-8016174D02*
X21784468Y-8025698D01*
X21784468Y-8025698D02*
X21793991Y-8035222D01*
X21793991Y-8035222D02*
X21803515Y-8054269D01*
X21803515Y-8054269D02*
X21803515Y-8101888D01*
X21803515Y-8101888D02*
X21793991Y-8120936D01*
X21793991Y-8120936D02*
X21784468Y-8130460D01*
X21784468Y-8130460D02*
X21765420Y-8139984D01*
X21765420Y-8139984D02*
X21708277Y-8139984D01*
X21708277Y-8139984D02*
X21689230Y-8130460D01*
X21689230Y-8130460D02*
X21679706Y-8120936D01*
X21927325Y-7939984D02*
X21946372Y-7939984D01*
X21946372Y-7939984D02*
X21965420Y-7949508D01*
X21965420Y-7949508D02*
X21974944Y-7959031D01*
X21974944Y-7959031D02*
X21984468Y-7978079D01*
X21984468Y-7978079D02*
X21993991Y-8016174D01*
X21993991Y-8016174D02*
X21993991Y-8063793D01*
X21993991Y-8063793D02*
X21984468Y-8101888D01*
X21984468Y-8101888D02*
X21974944Y-8120936D01*
X21974944Y-8120936D02*
X21965420Y-8130460D01*
X21965420Y-8130460D02*
X21946372Y-8139984D01*
X21946372Y-8139984D02*
X21927325Y-8139984D01*
X21927325Y-8139984D02*
X21908277Y-8130460D01*
X21908277Y-8130460D02*
X21898753Y-8120936D01*
X21898753Y-8120936D02*
X21889230Y-8101888D01*
X21889230Y-8101888D02*
X21879706Y-8063793D01*
X21879706Y-8063793D02*
X21879706Y-8016174D01*
X21879706Y-8016174D02*
X21889230Y-7978079D01*
X21889230Y-7978079D02*
X21898753Y-7959031D01*
X21898753Y-7959031D02*
X21908277Y-7949508D01*
X21908277Y-7949508D02*
X21927325Y-7939984D01*
X22232087Y-8139984D02*
X22232087Y-7939984D01*
X22317801Y-8139984D02*
X22317801Y-8035222D01*
X22317801Y-8035222D02*
X22308277Y-8016174D01*
X22308277Y-8016174D02*
X22289230Y-8006650D01*
X22289230Y-8006650D02*
X22260658Y-8006650D01*
X22260658Y-8006650D02*
X22241611Y-8016174D01*
X22241611Y-8016174D02*
X22232087Y-8025698D01*
X22441610Y-8139984D02*
X22422563Y-8130460D01*
X22422563Y-8130460D02*
X22413039Y-8120936D01*
X22413039Y-8120936D02*
X22403515Y-8101888D01*
X22403515Y-8101888D02*
X22403515Y-8044746D01*
X22403515Y-8044746D02*
X22413039Y-8025698D01*
X22413039Y-8025698D02*
X22422563Y-8016174D01*
X22422563Y-8016174D02*
X22441610Y-8006650D01*
X22441610Y-8006650D02*
X22470182Y-8006650D01*
X22470182Y-8006650D02*
X22489230Y-8016174D01*
X22489230Y-8016174D02*
X22498753Y-8025698D01*
X22498753Y-8025698D02*
X22508277Y-8044746D01*
X22508277Y-8044746D02*
X22508277Y-8101888D01*
X22508277Y-8101888D02*
X22498753Y-8120936D01*
X22498753Y-8120936D02*
X22489230Y-8130460D01*
X22489230Y-8130460D02*
X22470182Y-8139984D01*
X22470182Y-8139984D02*
X22441610Y-8139984D01*
X22622563Y-8139984D02*
X22603515Y-8130460D01*
X22603515Y-8130460D02*
X22593991Y-8111412D01*
X22593991Y-8111412D02*
X22593991Y-7939984D01*
X22774944Y-8130460D02*
X22755896Y-8139984D01*
X22755896Y-8139984D02*
X22717801Y-8139984D01*
X22717801Y-8139984D02*
X22698753Y-8130460D01*
X22698753Y-8130460D02*
X22689230Y-8111412D01*
X22689230Y-8111412D02*
X22689230Y-8035222D01*
X22689230Y-8035222D02*
X22698753Y-8016174D01*
X22698753Y-8016174D02*
X22717801Y-8006650D01*
X22717801Y-8006650D02*
X22755896Y-8006650D01*
X22755896Y-8006650D02*
X22774944Y-8016174D01*
X22774944Y-8016174D02*
X22784468Y-8035222D01*
X22784468Y-8035222D02*
X22784468Y-8054269D01*
X22784468Y-8054269D02*
X22689230Y-8073317D01*
X22860658Y-8130460D02*
X22879706Y-8139984D01*
X22879706Y-8139984D02*
X22917801Y-8139984D01*
X22917801Y-8139984D02*
X22936849Y-8130460D01*
X22936849Y-8130460D02*
X22946372Y-8111412D01*
X22946372Y-8111412D02*
X22946372Y-8101888D01*
X22946372Y-8101888D02*
X22936849Y-8082841D01*
X22936849Y-8082841D02*
X22917801Y-8073317D01*
X22917801Y-8073317D02*
X22889230Y-8073317D01*
X22889230Y-8073317D02*
X22870182Y-8063793D01*
X22870182Y-8063793D02*
X22860658Y-8044746D01*
X22860658Y-8044746D02*
X22860658Y-8035222D01*
X22860658Y-8035222D02*
X22870182Y-8016174D01*
X22870182Y-8016174D02*
X22889230Y-8006650D01*
X22889230Y-8006650D02*
X22917801Y-8006650D01*
X22917801Y-8006650D02*
X22936849Y-8016174D01*
X23013039Y-8216174D02*
X23022563Y-8206650D01*
X23022563Y-8206650D02*
X23041611Y-8178079D01*
X23041611Y-8178079D02*
X23051134Y-8159031D01*
X23051134Y-8159031D02*
X23060658Y-8130460D01*
X23060658Y-8130460D02*
X23070182Y-8082841D01*
X23070182Y-8082841D02*
X23070182Y-8044746D01*
X23070182Y-8044746D02*
X23060658Y-7997127D01*
X23060658Y-7997127D02*
X23051134Y-7968555D01*
X23051134Y-7968555D02*
X23041611Y-7949508D01*
X23041611Y-7949508D02*
X23022563Y-7920936D01*
X23022563Y-7920936D02*
X23013039Y-7911412D01*
M02*
