M48
; DRILL file {KiCad 8.0.7} date 2024-12-20T19:08:49+0200
; FORMAT={-:-/ absolute / inch / decimal}
; #@! TF.CreationDate,2024-12-20T19:08:49+02:00
; #@! TF.GenerationSoftware,Kicad,Pcbnew,8.0.7
; #@! TF.FileFunction,Plated,1,2,PTH
FMAT,2
INCH
; #@! TA.AperFunction,Plated,PTH,ViaDrill
T1C0.0118
; #@! TA.AperFunction,Plated,PTH,ViaDrill
T2C0.0138
; #@! TA.AperFunction,Plated,PTH,ComponentDrill
T3C0.0217
; #@! TA.AperFunction,Plated,PTH,ComponentDrill
T4C0.0335
; #@! TA.AperFunction,Plated,PTH,ComponentDrill
T5C0.0394
%
G90
G05
T1
X7.2835Y-1.6535
X7.7362Y-1.6535
X7.9766Y-1.6937
X8.2283Y-2.2244
X8.2874Y-2.0669
X8.4449Y-2.185
X8.5079Y-1.5748
X8.5236Y-2.185
X8.6063Y-2.2441
X8.6417Y-1.5354
X8.7008Y-2.185
X8.7638Y-1.7913
T2
X7.2441Y-1.939
X7.2835Y-1.8504
X7.3622Y-2.0472
X7.5197Y-1.6831
X7.6532Y-2.0241
X7.7067Y-1.939
X7.7165Y-2.0472
X7.7805Y-2.0719
X8.4449Y-1.6929
X8.622Y-2.0768
T5
X7.2693Y-1.437
X7.3055Y-2.3425
X7.3693Y-1.437
X7.4055Y-2.3425
X7.4693Y-1.437
X7.5055Y-2.3425
X7.5693Y-1.437
X7.6055Y-2.3425
X7.6693Y-1.437
X7.7055Y-2.3425
X7.7693Y-1.437
X7.8055Y-2.3425
X7.8693Y-1.437
X7.9055Y-2.3425
X7.9693Y-1.437
X8.0055Y-2.3425
X8.0693Y-1.437
X8.1055Y-2.3425
X8.1693Y-1.437
X8.2055Y-2.3425
X8.2693Y-1.437
X8.3055Y-2.3425
X8.3693Y-1.437
X8.4055Y-2.3425
X8.4693Y-1.437
X8.5055Y-2.3425
X8.5693Y-1.437
X8.6055Y-2.3425
X8.6693Y-1.437
X8.7055Y-2.3425
T3
G00X8.9909Y-1.698
M15
G01X9.0165Y-1.698
M16
G05
G00X8.9909Y-2.0031
M15
G01X9.0165Y-2.0031
M16
G05
T4
G00X8.8433Y-1.7039
M15
G01X8.865Y-1.7039
M16
G05
G00X8.8433Y-1.9972
M15
G01X8.865Y-1.9972
M16
G05
M30
