M48
; DRILL file {KiCad 8.0.7} date 2025-01-11T17:44:46+0200
; FORMAT={-:-/ absolute / inch / decimal}
; #@! TF.CreationDate,2025-01-11T17:44:46+02:00
; #@! TF.GenerationSoftware,Kicad,Pcbnew,8.0.7
; #@! TF.FileFunction,Plated,1,2,PTH
FMAT,2
INCH
; #@! TA.AperFunction,Plated,PTH,ViaDrill
T1C0.0118
; #@! TA.AperFunction,Plated,PTH,ViaDrill
T2C0.0138
; #@! TA.AperFunction,Plated,PTH,ComponentDrill
T3C0.0217
; #@! TA.AperFunction,Plated,PTH,ComponentDrill
T4C0.0335
; #@! TA.AperFunction,Plated,PTH,ComponentDrill
T5C0.0394
%
G90
G05
T1
X5.1202Y-3.48
X5.8335Y-3.5
X6.0473Y-3.9539
X6.1206Y-3.9433
X6.2719Y-4.0638
X6.3413Y-4.0634
X6.3547Y-3.3976
X6.443Y-4.1138
X6.5248Y-3.352
X6.5291Y-4.065
X6.6005Y-3.6178
T2
X5.0808Y-3.7655
X5.1202Y-3.6769
X5.1989Y-3.8737
X5.3315Y-3.4409
X5.3717Y-3.4957
X5.49Y-3.8506
X5.5461Y-3.7728
X5.6055Y-3.5016
X5.6063Y-3.8953
X6.2567Y-3.578
X6.4713Y-3.9748
T5
X5.1441Y-3.2661
X5.1441Y-4.2102
X5.2441Y-3.2661
X5.2441Y-4.2102
X5.3441Y-3.2661
X5.3441Y-4.2102
X5.4441Y-3.2661
X5.4441Y-4.2102
X5.5441Y-3.2661
X5.5441Y-4.2102
X5.6441Y-3.2661
X5.6441Y-4.2102
X5.7441Y-3.2661
X5.7441Y-4.2102
X5.8441Y-3.2661
X5.8441Y-4.2102
X5.9441Y-3.2661
X5.9441Y-4.2102
X6.0441Y-3.2661
X6.0441Y-4.2102
X6.1441Y-3.2661
X6.1441Y-4.2102
X6.2441Y-3.2661
X6.2441Y-4.2102
X6.3441Y-3.2661
X6.3441Y-4.2102
X6.4441Y-3.2661
X6.4441Y-4.2102
X6.5441Y-3.2661
X6.5441Y-4.2102
T3
G00X6.8274Y-3.5807
M15
G01X6.853Y-3.5807
M16
G05
G00X6.8274Y-3.8858
M15
G01X6.853Y-3.8858
M16
G05
T4
G00X6.6797Y-3.5866
M15
G01X6.7014Y-3.5866
M16
G05
G00X6.6797Y-3.8799
M15
G01X6.7014Y-3.8799
M16
G05
M30
