%TF.GenerationSoftware,KiCad,Pcbnew,8.0.7*%
%TF.CreationDate,2025-01-11T18:27:58+02:00*%
%TF.ProjectId,STM32TrialPcb,53544d33-3254-4726-9961-6c5063622e6b,rev?*%
%TF.SameCoordinates,Original*%
%TF.FileFunction,Copper,L1,Top*%
%TF.FilePolarity,Positive*%
%FSLAX46Y46*%
G04 Gerber Fmt 4.6, Leading zero omitted, Abs format (unit mm)*
G04 Created by KiCad (PCBNEW 8.0.7) date 2025-01-11 18:27:58*
%MOMM*%
%LPD*%
G01*
G04 APERTURE LIST*
G04 Aperture macros list*
%AMRoundRect*
0 Rectangle with rounded corners*
0 $1 Rounding radius*
0 $2 $3 $4 $5 $6 $7 $8 $9 X,Y pos of 4 corners*
0 Add a 4 corners polygon primitive as box body*
4,1,4,$2,$3,$4,$5,$6,$7,$8,$9,$2,$3,0*
0 Add four circle primitives for the rounded corners*
1,1,$1+$1,$2,$3*
1,1,$1+$1,$4,$5*
1,1,$1+$1,$6,$7*
1,1,$1+$1,$8,$9*
0 Add four rect primitives between the rounded corners*
20,1,$1+$1,$2,$3,$4,$5,0*
20,1,$1+$1,$4,$5,$6,$7,0*
20,1,$1+$1,$6,$7,$8,$9,0*
20,1,$1+$1,$8,$9,$2,$3,0*%
G04 Aperture macros list end*
%TA.AperFunction,SMDPad,CuDef*%
%ADD10RoundRect,0.200000X-0.200000X-0.800000X0.200000X-0.800000X0.200000X0.800000X-0.200000X0.800000X0*%
%TD*%
%TA.AperFunction,SMDPad,CuDef*%
%ADD11RoundRect,0.218750X-0.218750X-0.256250X0.218750X-0.256250X0.218750X0.256250X-0.218750X0.256250X0*%
%TD*%
%TA.AperFunction,SMDPad,CuDef*%
%ADD12RoundRect,0.135000X0.135000X0.185000X-0.135000X0.185000X-0.135000X-0.185000X0.135000X-0.185000X0*%
%TD*%
%TA.AperFunction,SMDPad,CuDef*%
%ADD13RoundRect,0.140000X0.170000X-0.140000X0.170000X0.140000X-0.170000X0.140000X-0.170000X-0.140000X0*%
%TD*%
%TA.AperFunction,SMDPad,CuDef*%
%ADD14RoundRect,0.100000X0.100000X-0.130000X0.100000X0.130000X-0.100000X0.130000X-0.100000X-0.130000X0*%
%TD*%
%TA.AperFunction,SMDPad,CuDef*%
%ADD15RoundRect,0.135000X-0.135000X-0.185000X0.135000X-0.185000X0.135000X0.185000X-0.135000X0.185000X0*%
%TD*%
%TA.AperFunction,SMDPad,CuDef*%
%ADD16RoundRect,0.225000X-0.250000X0.225000X-0.250000X-0.225000X0.250000X-0.225000X0.250000X0.225000X0*%
%TD*%
%TA.AperFunction,SMDPad,CuDef*%
%ADD17RoundRect,0.218750X0.218750X0.381250X-0.218750X0.381250X-0.218750X-0.381250X0.218750X-0.381250X0*%
%TD*%
%TA.AperFunction,SMDPad,CuDef*%
%ADD18RoundRect,0.075000X-0.662500X-0.075000X0.662500X-0.075000X0.662500X0.075000X-0.662500X0.075000X0*%
%TD*%
%TA.AperFunction,SMDPad,CuDef*%
%ADD19RoundRect,0.075000X-0.075000X-0.662500X0.075000X-0.662500X0.075000X0.662500X-0.075000X0.662500X0*%
%TD*%
%TA.AperFunction,SMDPad,CuDef*%
%ADD20R,1.000000X1.500000*%
%TD*%
%TA.AperFunction,SMDPad,CuDef*%
%ADD21R,2.400000X2.000000*%
%TD*%
%TA.AperFunction,SMDPad,CuDef*%
%ADD22RoundRect,0.140000X-0.140000X-0.170000X0.140000X-0.170000X0.140000X0.170000X-0.140000X0.170000X0*%
%TD*%
%TA.AperFunction,SMDPad,CuDef*%
%ADD23RoundRect,0.140000X-0.170000X0.140000X-0.170000X-0.140000X0.170000X-0.140000X0.170000X0.140000X0*%
%TD*%
%TA.AperFunction,SMDPad,CuDef*%
%ADD24RoundRect,0.225000X0.225000X0.250000X-0.225000X0.250000X-0.225000X-0.250000X0.225000X-0.250000X0*%
%TD*%
%TA.AperFunction,SMDPad,CuDef*%
%ADD25RoundRect,0.100000X-0.130000X-0.100000X0.130000X-0.100000X0.130000X0.100000X-0.130000X0.100000X0*%
%TD*%
%TA.AperFunction,SMDPad,CuDef*%
%ADD26RoundRect,0.140000X0.140000X0.170000X-0.140000X0.170000X-0.140000X-0.170000X0.140000X-0.170000X0*%
%TD*%
%TA.AperFunction,SMDPad,CuDef*%
%ADD27RoundRect,0.200000X-0.275000X0.200000X-0.275000X-0.200000X0.275000X-0.200000X0.275000X0.200000X0*%
%TD*%
%TA.AperFunction,SMDPad,CuDef*%
%ADD28RoundRect,0.135000X-0.185000X0.135000X-0.185000X-0.135000X0.185000X-0.135000X0.185000X0.135000X0*%
%TD*%
%TA.AperFunction,ComponentPad*%
%ADD29O,1.700000X1.700000*%
%TD*%
%TA.AperFunction,ComponentPad*%
%ADD30R,1.700000X1.700000*%
%TD*%
%TA.AperFunction,SMDPad,CuDef*%
%ADD31R,1.300000X0.450000*%
%TD*%
%TA.AperFunction,ComponentPad*%
%ADD32O,1.800000X1.150000*%
%TD*%
%TA.AperFunction,ComponentPad*%
%ADD33O,2.000000X1.450000*%
%TD*%
%TA.AperFunction,SMDPad,CuDef*%
%ADD34RoundRect,0.093750X-0.093750X-0.106250X0.093750X-0.106250X0.093750X0.106250X-0.093750X0.106250X0*%
%TD*%
%TA.AperFunction,HeatsinkPad*%
%ADD35R,1.000000X1.600000*%
%TD*%
%TA.AperFunction,SMDPad,CuDef*%
%ADD36RoundRect,0.225000X0.250000X-0.225000X0.250000X0.225000X-0.250000X0.225000X-0.250000X-0.225000X0*%
%TD*%
%TA.AperFunction,ViaPad*%
%ADD37C,0.600000*%
%TD*%
%TA.AperFunction,Conductor*%
%ADD38C,0.300000*%
%TD*%
%TA.AperFunction,Conductor*%
%ADD39C,0.150000*%
%TD*%
%TA.AperFunction,Conductor*%
%ADD40C,0.600000*%
%TD*%
%TA.AperFunction,Conductor*%
%ADD41C,0.200000*%
%TD*%
%TA.AperFunction,Conductor*%
%ADD42C,0.250000*%
%TD*%
%TA.AperFunction,Conductor*%
%ADD43C,0.400000*%
%TD*%
G04 APERTURE END LIST*
D10*
%TO.P,SW2,2,2*%
%TO.N,NRST*%
X132152500Y-88392499D03*
%TO.P,SW2,1,1*%
%TO.N,GND*%
X127952500Y-88392499D03*
%TD*%
D11*
%TO.P,D1,1,K*%
%TO.N,Net-(D1-K)*%
X159517500Y-98782499D03*
%TO.P,D1,2,A*%
%TO.N,+3V3*%
X161092500Y-98782499D03*
%TD*%
D12*
%TO.P,R4,2*%
%TO.N,GND*%
X162590000Y-86300000D03*
%TO.P,R4,1*%
%TO.N,/BOOT0*%
X163610000Y-86300000D03*
%TD*%
D13*
%TO.P,C5,1*%
%TO.N,+3V3*%
X146860000Y-90510000D03*
%TO.P,C5,2*%
%TO.N,GND*%
X146860000Y-89550000D03*
%TD*%
D14*
%TO.P,L1,1,1*%
%TO.N,+3V3*%
X140920000Y-97560000D03*
%TO.P,L1,2,2*%
%TO.N,+3.3VA*%
X140920000Y-96920000D03*
%TD*%
D15*
%TO.P,R3,1*%
%TO.N,Net-(D2-K)*%
X129710000Y-98280000D03*
%TO.P,R3,2*%
%TO.N,GND*%
X130730000Y-98280000D03*
%TD*%
D11*
%TO.P,D2,1,K*%
%TO.N,Net-(D2-K)*%
X129477500Y-99892499D03*
%TO.P,D2,2,A*%
%TO.N,Net-(D2-A)*%
X131052500Y-99892499D03*
%TD*%
D10*
%TO.P,SW1,2,2*%
%TO.N,Net-(U2-PA2)*%
X132380000Y-93380000D03*
%TO.P,SW1,1,1*%
%TO.N,GND*%
X128180000Y-93380000D03*
%TD*%
D16*
%TO.P,C8,1*%
%TO.N,+5V*%
X165805000Y-100507499D03*
%TO.P,C8,2*%
%TO.N,GND*%
X165805000Y-102057499D03*
%TD*%
%TO.P,C1,1*%
%TO.N,+3.3VA*%
X142390000Y-96315000D03*
%TO.P,C1,2*%
%TO.N,GND*%
X142390000Y-97865000D03*
%TD*%
D17*
%TO.P,FB1,1*%
%TO.N,VCC*%
X167722500Y-98480000D03*
%TO.P,FB1,2*%
%TO.N,+5V*%
X165597500Y-98480000D03*
%TD*%
D18*
%TO.P,U2,1,VBAT*%
%TO.N,+3V3*%
X147140000Y-91979999D03*
%TO.P,U2,2,PC13*%
%TO.N,PC13*%
X147140000Y-92479999D03*
%TO.P,U2,3,PC14*%
%TO.N,PC14*%
X147140000Y-92979999D03*
%TO.P,U2,4,PC15*%
%TO.N,PC15*%
X147140000Y-93480000D03*
%TO.P,U2,5,PD0*%
%TO.N,/HSE_IN*%
X147140000Y-93979999D03*
%TO.P,U2,6,PD1*%
%TO.N,/HSE_OUT*%
X147140000Y-94479999D03*
%TO.P,U2,7,NRST*%
%TO.N,NRST*%
X147140000Y-94979999D03*
%TO.P,U2,8,VSSA*%
%TO.N,GND*%
X147140000Y-95479999D03*
%TO.P,U2,9,VDDA*%
%TO.N,+3.3VA*%
X147140000Y-95979998D03*
%TO.P,U2,10,PA0*%
%TO.N,unconnected-(U2-PA0-Pad10)*%
X147140000Y-96479999D03*
%TO.P,U2,11,PA1*%
%TO.N,Net-(D2-A)*%
X147140000Y-96979999D03*
%TO.P,U2,12,PA2*%
%TO.N,Net-(U2-PA2)*%
X147140000Y-97479999D03*
D19*
%TO.P,U2,13,PA3*%
%TO.N,PA3*%
X148552500Y-98892499D03*
%TO.P,U2,14,PA4*%
%TO.N,PA4*%
X149052500Y-98892499D03*
%TO.P,U2,15,PA5*%
%TO.N,PA5*%
X149552500Y-98892499D03*
%TO.P,U2,16,PA6*%
%TO.N,PA6*%
X150052501Y-98892499D03*
%TO.P,U2,17,PA7*%
%TO.N,PA7*%
X150552500Y-98892499D03*
%TO.P,U2,18,PB0*%
%TO.N,PB0*%
X151052500Y-98892499D03*
%TO.P,U2,19,PB1*%
%TO.N,PB1*%
X151552500Y-98892499D03*
%TO.P,U2,20,PB2*%
%TO.N,PB2*%
X152052500Y-98892499D03*
%TO.P,U2,21,PB10*%
%TO.N,PB10*%
X152552499Y-98892499D03*
%TO.P,U2,22,PB11*%
%TO.N,PB11*%
X153052500Y-98892499D03*
%TO.P,U2,23,VSS*%
%TO.N,GND*%
X153552500Y-98892499D03*
%TO.P,U2,24,VDD*%
%TO.N,+3V3*%
X154052500Y-98892499D03*
D18*
%TO.P,U2,25,PB12*%
%TO.N,unconnected-(U2-PB12-Pad25)*%
X155465000Y-97479999D03*
%TO.P,U2,26,PB13*%
%TO.N,unconnected-(U2-PB13-Pad26)*%
X155465000Y-96979999D03*
%TO.P,U2,27,PB14*%
%TO.N,unconnected-(U2-PB14-Pad27)*%
X155465000Y-96479999D03*
%TO.P,U2,28,PB15*%
%TO.N,unconnected-(U2-PB15-Pad28)*%
X155465000Y-95979998D03*
%TO.P,U2,29,PA8*%
%TO.N,PA8*%
X155465000Y-95479999D03*
%TO.P,U2,30,PA9*%
%TO.N,PA9*%
X155465000Y-94979999D03*
%TO.P,U2,31,PA10*%
%TO.N,PA10*%
X155465000Y-94479999D03*
%TO.P,U2,32,PA11*%
%TO.N,USB_D-*%
X155465000Y-93979999D03*
%TO.P,U2,33,PA12*%
%TO.N,USB_D+*%
X155465000Y-93480000D03*
%TO.P,U2,34,PA13*%
%TO.N,SWDIO*%
X155465000Y-92979999D03*
%TO.P,U2,35,VSS*%
%TO.N,GND*%
X155465000Y-92479999D03*
%TO.P,U2,36,VDD*%
%TO.N,+3V3*%
X155465000Y-91979999D03*
D19*
%TO.P,U2,37,PA14*%
%TO.N,SWCLK*%
X154052500Y-90567499D03*
%TO.P,U2,38,PA15*%
%TO.N,PA15*%
X153552500Y-90567499D03*
%TO.P,U2,39,PB3*%
%TO.N,SWO*%
X153052500Y-90567499D03*
%TO.P,U2,40,PB4*%
%TO.N,PB4*%
X152552499Y-90567499D03*
%TO.P,U2,41,PB5*%
%TO.N,PB5*%
X152052500Y-90567499D03*
%TO.P,U2,42,PB6*%
%TO.N,PB6*%
X151552500Y-90567499D03*
%TO.P,U2,43,PB7*%
%TO.N,PB7*%
X151052500Y-90567499D03*
%TO.P,U2,44,BOOT0*%
%TO.N,/BOOT0*%
X150552500Y-90567499D03*
%TO.P,U2,45,PB8*%
%TO.N,PB8*%
X150052501Y-90567499D03*
%TO.P,U2,46,PB9*%
%TO.N,PB9*%
X149552500Y-90567499D03*
%TO.P,U2,47,VSS*%
%TO.N,GND*%
X149052500Y-90567499D03*
%TO.P,U2,48,VDD*%
%TO.N,+3V3*%
X148552500Y-90567499D03*
%TD*%
D20*
%TO.P,JP1,1,A*%
%TO.N,/BOOT0*%
X163852500Y-88392499D03*
%TO.P,JP1,2,B*%
%TO.N,+3V3*%
X162552500Y-88392499D03*
%TD*%
D21*
%TO.P,Y1,2,2*%
%TO.N,/HSE_OUT*%
X137490000Y-95654999D03*
%TO.P,Y1,1,1*%
%TO.N,/HSE_IN*%
X137490000Y-91954999D03*
%TD*%
D16*
%TO.P,C9,1*%
%TO.N,+3V3*%
X161070000Y-100500000D03*
%TO.P,C9,2*%
%TO.N,GND*%
X161070000Y-102050000D03*
%TD*%
D22*
%TO.P,C7,1*%
%TO.N,+3V3*%
X157092500Y-90892499D03*
%TO.P,C7,2*%
%TO.N,GND*%
X158052500Y-90892499D03*
%TD*%
D23*
%TO.P,C2,2*%
%TO.N,GND*%
X143840000Y-97230000D03*
%TO.P,C2,1*%
%TO.N,+3.3VA*%
X143840000Y-96270000D03*
%TD*%
D24*
%TO.P,C3,1*%
%TO.N,+3V3*%
X145555000Y-89410000D03*
%TO.P,C3,2*%
%TO.N,GND*%
X144005000Y-89410000D03*
%TD*%
D25*
%TO.P,R2,1*%
%TO.N,+3V3*%
X127840000Y-96950000D03*
%TO.P,R2,2*%
%TO.N,Net-(U2-PA2)*%
X128480000Y-96950000D03*
%TD*%
D24*
%TO.P,C10,1*%
%TO.N,Net-(U2-PA2)*%
X131827500Y-95892499D03*
%TO.P,C10,2*%
%TO.N,GND*%
X130277500Y-95892499D03*
%TD*%
D26*
%TO.P,C4,1*%
%TO.N,+3V3*%
X145532500Y-90892499D03*
%TO.P,C4,2*%
%TO.N,GND*%
X144572500Y-90892499D03*
%TD*%
%TO.P,C12,1*%
%TO.N,/HSE_IN*%
X137400000Y-89980000D03*
%TO.P,C12,2*%
%TO.N,GND*%
X136440000Y-89980000D03*
%TD*%
D27*
%TO.P,R1,1*%
%TO.N,Net-(D1-K)*%
X159305000Y-100457499D03*
%TO.P,R1,2*%
%TO.N,GND*%
X159305000Y-102107499D03*
%TD*%
D22*
%TO.P,C6,1*%
%TO.N,+3V3*%
X154510000Y-101110000D03*
%TO.P,C6,2*%
%TO.N,GND*%
X155470000Y-101110000D03*
%TD*%
D28*
%TO.P,R5,1*%
%TO.N,+3V3*%
X161552500Y-92382499D03*
%TO.P,R5,2*%
%TO.N,USB_D+*%
X161552500Y-93402499D03*
%TD*%
D29*
%TO.P,J3,15,Pin_15*%
%TO.N,PA3*%
X130660000Y-106940000D03*
%TO.P,J3,14,Pin_14*%
%TO.N,PA4*%
X133200000Y-106940000D03*
%TO.P,J3,13,Pin_13*%
%TO.N,PA5*%
X135740000Y-106940000D03*
%TO.P,J3,12,Pin_12*%
%TO.N,PA6*%
X138280000Y-106940000D03*
%TO.P,J3,11,Pin_11*%
%TO.N,PA7*%
X140820000Y-106940000D03*
%TO.P,J3,10,Pin_10*%
%TO.N,PB0*%
X143360000Y-106940000D03*
%TO.P,J3,9,Pin_9*%
%TO.N,PB1*%
X145900000Y-106940000D03*
%TO.P,J3,8,Pin_8*%
%TO.N,PB2*%
X148440000Y-106940000D03*
%TO.P,J3,7,Pin_7*%
%TO.N,PB10*%
X150980000Y-106940000D03*
%TO.P,J3,6,Pin_6*%
%TO.N,PB11*%
X153520000Y-106940000D03*
%TO.P,J3,5,Pin_5*%
%TO.N,PA8*%
X156060000Y-106940000D03*
%TO.P,J3,4,Pin_4*%
%TO.N,PA9*%
X158600000Y-106940000D03*
%TO.P,J3,3,Pin_3*%
%TO.N,PA10*%
X161140000Y-106940000D03*
%TO.P,J3,2,Pin_2*%
%TO.N,GND*%
X163680000Y-106940000D03*
D30*
%TO.P,J3,1,Pin_1*%
%TO.N,+3V3*%
X166220000Y-106940000D03*
%TD*%
D22*
%TO.P,C13,1*%
%TO.N,/HSE_OUT*%
X137490000Y-97804999D03*
%TO.P,C13,2*%
%TO.N,GND*%
X138450000Y-97804999D03*
%TD*%
D29*
%TO.P,J2,15,Pin_15*%
%TO.N,PC15*%
X130660000Y-82960000D03*
%TO.P,J2,14,Pin_14*%
%TO.N,PC14*%
X133200000Y-82960000D03*
%TO.P,J2,13,Pin_13*%
%TO.N,PC13*%
X135740000Y-82960000D03*
%TO.P,J2,12,Pin_12*%
%TO.N,PB9*%
X138280000Y-82960000D03*
%TO.P,J2,11,Pin_11*%
%TO.N,PB8*%
X140820000Y-82960000D03*
%TO.P,J2,10,Pin_10*%
%TO.N,PB7*%
X143360000Y-82960000D03*
%TO.P,J2,9,Pin_9*%
%TO.N,PB6*%
X145900000Y-82960000D03*
%TO.P,J2,8,Pin_8*%
%TO.N,PB5*%
X148440000Y-82960000D03*
%TO.P,J2,7,Pin_7*%
%TO.N,PB4*%
X150980000Y-82960000D03*
%TO.P,J2,6,Pin_6*%
%TO.N,SWO*%
X153520000Y-82960000D03*
%TO.P,J2,5,Pin_5*%
%TO.N,PA15*%
X156060000Y-82960000D03*
%TO.P,J2,4,Pin_4*%
%TO.N,SWCLK*%
X158600000Y-82960000D03*
%TO.P,J2,3,Pin_3*%
%TO.N,SWDIO*%
X161140000Y-82960000D03*
%TO.P,J2,2,Pin_2*%
%TO.N,GND*%
X163680000Y-82960000D03*
D30*
%TO.P,J2,1,Pin_1*%
%TO.N,+3V3*%
X166220000Y-82960000D03*
%TD*%
D31*
%TO.P,J1,1,VBUS*%
%TO.N,VCC*%
X169890000Y-96125000D03*
%TO.P,J1,2,D-*%
%TO.N,USB_D-*%
X169890000Y-95475000D03*
%TO.P,J1,3,D+*%
%TO.N,USB_D+*%
X169890000Y-94825000D03*
%TO.P,J1,4,ID*%
%TO.N,unconnected-(J1-ID-Pad4)*%
X169890000Y-94175000D03*
%TO.P,J1,5,GND*%
%TO.N,GND*%
X169890000Y-93525000D03*
D32*
%TO.P,J1,6,Shield*%
%TO.N,unconnected-(J1-Shield-Pad6)_1*%
X173740000Y-98700000D03*
D33*
%TO.N,unconnected-(J1-Shield-Pad6)_2*%
X169940000Y-98550000D03*
%TO.N,unconnected-(J1-Shield-Pad6)_3*%
X169940000Y-91100000D03*
D32*
%TO.N,unconnected-(J1-Shield-Pad6)*%
X173740000Y-90950000D03*
%TD*%
D34*
%TO.P,U1,1,OUT*%
%TO.N,+3V3*%
X162530000Y-98282499D03*
%TO.P,U1,2,NC*%
%TO.N,unconnected-(U1-NC-Pad2)*%
X162530000Y-98932499D03*
%TO.P,U1,3,GND*%
%TO.N,GND*%
X162530000Y-99582499D03*
%TO.P,U1,4,EN*%
%TO.N,+5V*%
X164305000Y-99582499D03*
%TO.P,U1,5,NC*%
%TO.N,unconnected-(U1-NC-Pad5)*%
X164305000Y-98932499D03*
%TO.P,U1,6,IN*%
%TO.N,+5V*%
X164305000Y-98282499D03*
D35*
%TO.P,U1,7,GND*%
%TO.N,GND*%
X163417500Y-98932499D03*
%TD*%
D36*
%TO.P,C11,1*%
%TO.N,NRST*%
X134160000Y-88905000D03*
%TO.P,C11,2*%
%TO.N,GND*%
X134160000Y-87355000D03*
%TD*%
D37*
%TO.N,GND*%
X135420000Y-87400000D03*
X142400000Y-98940000D03*
X136440000Y-88790000D03*
X164370000Y-100960000D03*
X140870000Y-95830000D03*
X129052500Y-95642499D03*
X132052500Y-98392499D03*
X130052500Y-93392499D03*
X139445000Y-97804999D03*
X165730000Y-85140000D03*
X148170000Y-88900000D03*
X161070000Y-103210000D03*
X165840000Y-103250000D03*
X167652500Y-91892499D03*
X155462500Y-100160000D03*
X161410000Y-86300000D03*
X153602500Y-100430000D03*
X159305000Y-103220000D03*
X163652500Y-104490000D03*
X130052500Y-88392499D03*
X158920000Y-90880000D03*
X142380000Y-88940000D03*
%TD*%
D38*
%TO.N,+3V3*%
X140920000Y-97990000D02*
X140920000Y-97560000D01*
X135097499Y-99067499D02*
X139842501Y-99067499D01*
X139842501Y-99067499D02*
X140920000Y-97990000D01*
X133927500Y-97897500D02*
X135097499Y-99067499D01*
X133927500Y-92147500D02*
X133927500Y-97897500D01*
X127080000Y-91000000D02*
X132780000Y-91000000D01*
X132780000Y-91000000D02*
X133927500Y-92147500D01*
D39*
X126990000Y-96950000D02*
X126950000Y-96910000D01*
X127840000Y-96950000D02*
X126990000Y-96950000D01*
D40*
X126950000Y-96910000D02*
X126950000Y-82452499D01*
X126950000Y-106640000D02*
X126950000Y-96910000D01*
D41*
%TO.N,Net-(U2-PA2)*%
X131000000Y-97560000D02*
X131770000Y-96790000D01*
X129260000Y-97560000D02*
X131000000Y-97560000D01*
D39*
X131770000Y-96790000D02*
X131610000Y-96950000D01*
X131830000Y-96730000D02*
X131770000Y-96790000D01*
X131610000Y-96950000D02*
X128480000Y-96950000D01*
X131827500Y-96727500D02*
X131830000Y-96730000D01*
X131827500Y-95892499D02*
X131827500Y-96727500D01*
D41*
X146010001Y-97479999D02*
X147140000Y-97479999D01*
X143497501Y-99992499D02*
X146010001Y-97479999D01*
X130040000Y-103390000D02*
X133437501Y-99992499D01*
X133437501Y-99992499D02*
X143497501Y-99992499D01*
X127872500Y-98947500D02*
X127872500Y-102432500D01*
X129260000Y-97560000D02*
X127872500Y-98947500D01*
X127872500Y-102432500D02*
X128830000Y-103390000D01*
X128830000Y-103390000D02*
X130040000Y-103390000D01*
D39*
%TO.N,GND*%
X131940001Y-98280000D02*
X132052500Y-98392499D01*
X130602499Y-98280000D02*
X131940001Y-98280000D01*
%TO.N,Net-(U2-PA2)*%
X133270000Y-93560000D02*
X133270000Y-95520000D01*
X133090000Y-93380000D02*
X133270000Y-93560000D01*
X133270000Y-95520000D02*
X132897501Y-95892499D01*
X132380000Y-93380000D02*
X133090000Y-93380000D01*
X132897501Y-95892499D02*
X131827500Y-95892499D01*
D40*
%TO.N,+3V3*%
X126950000Y-82452499D02*
X128510000Y-80892499D01*
X128510000Y-80892499D02*
X136052500Y-80892499D01*
X126950000Y-106640000D02*
X129202499Y-108892499D01*
X129202499Y-108892499D02*
X155052500Y-108892499D01*
D41*
%TO.N,GND*%
X165805000Y-103215000D02*
X165840000Y-103250000D01*
X165805000Y-102057499D02*
X165805000Y-103215000D01*
D39*
X161070000Y-103210000D02*
X161070000Y-102050000D01*
%TO.N,Net-(D1-K)*%
X159517500Y-99750000D02*
X159517500Y-100244999D01*
X159517500Y-98782499D02*
X159517500Y-99750000D01*
X159517500Y-100244999D02*
X159305000Y-100457499D01*
D40*
%TO.N,+3V3*%
X161070000Y-98804999D02*
X161092500Y-98782499D01*
X161070000Y-100435000D02*
X161070000Y-98804999D01*
X163270000Y-103395000D02*
X163270000Y-101610000D01*
X164819339Y-103395000D02*
X163270000Y-103395000D01*
X166034339Y-104610000D02*
X164819339Y-103395000D01*
X163270000Y-101610000D02*
X162095000Y-100435000D01*
X162095000Y-100435000D02*
X161070000Y-100435000D01*
X166172500Y-104610000D02*
X166034339Y-104610000D01*
D41*
X146300000Y-90510000D02*
X146860000Y-90510000D01*
X145917501Y-90892499D02*
X146300000Y-90510000D01*
X145532500Y-90892499D02*
X145917501Y-90892499D01*
D39*
%TO.N,GND*%
X148720000Y-88900000D02*
X149052500Y-89232500D01*
X148170000Y-88900000D02*
X148720000Y-88900000D01*
X149052500Y-89232500D02*
X149052500Y-90567499D01*
X146860000Y-88940000D02*
X146860000Y-89550000D01*
X146900000Y-88900000D02*
X146860000Y-88940000D01*
X148170000Y-88900000D02*
X146900000Y-88900000D01*
D41*
X144005000Y-90815000D02*
X144005000Y-89410000D01*
X144572500Y-90892499D02*
X144082499Y-90892499D01*
X144082499Y-90892499D02*
X144005000Y-90815000D01*
%TO.N,PB4*%
X150950000Y-86370000D02*
X150950000Y-82990000D01*
X152552499Y-90567499D02*
X152552499Y-87972499D01*
X152552499Y-87972499D02*
X150950000Y-86370000D01*
X150950000Y-82990000D02*
X150980000Y-82960000D01*
%TO.N,SWO*%
X153040000Y-84930000D02*
X153520000Y-84450000D01*
X153520000Y-84450000D02*
X153520000Y-82960000D01*
X153052500Y-90567499D02*
X153052500Y-84942500D01*
X153052500Y-84942500D02*
X153040000Y-84930000D01*
%TO.N,PA15*%
X153552500Y-87937500D02*
X153552500Y-90567499D01*
X156060000Y-82960000D02*
X156060000Y-85430000D01*
X156060000Y-85430000D02*
X153552500Y-87937500D01*
%TO.N,GND*%
X142380000Y-88940000D02*
X142850000Y-89410000D01*
X142850000Y-89410000D02*
X144005000Y-89410000D01*
D39*
%TO.N,+3V3*%
X148465001Y-90480000D02*
X148552500Y-90567499D01*
X147030000Y-90480000D02*
X148465001Y-90480000D01*
D41*
X145532500Y-89432500D02*
X145555000Y-89410000D01*
X145472499Y-89392499D02*
X145532500Y-89452500D01*
%TO.N,Net-(D2-A)*%
X132227501Y-99892499D02*
X131052500Y-99892499D01*
X132527501Y-99592499D02*
X132227501Y-99892499D01*
X143052500Y-99592499D02*
X132527501Y-99592499D01*
X145665000Y-96979999D02*
X143052500Y-99592499D01*
X147140000Y-96979999D02*
X145665000Y-96979999D01*
D39*
%TO.N,Net-(U2-PA2)*%
X128520000Y-97000000D02*
X128600000Y-97080000D01*
D41*
%TO.N,GND*%
X127952500Y-88392499D02*
X130052500Y-88392499D01*
X130092499Y-88392499D02*
X130052500Y-88392499D01*
%TO.N,/HSE_IN*%
X141419999Y-93979999D02*
X147140000Y-93979999D01*
X139394999Y-91954999D02*
X141419999Y-93979999D01*
X137490000Y-91954999D02*
X139394999Y-91954999D01*
%TO.N,/HSE_OUT*%
X147107500Y-94512499D02*
X147140000Y-94479999D01*
X140447501Y-94512499D02*
X147107500Y-94512499D01*
X139305001Y-95654999D02*
X140447501Y-94512499D01*
X137490000Y-95654999D02*
X139305001Y-95654999D01*
%TO.N,GND*%
X141220001Y-95479999D02*
X147140000Y-95479999D01*
X140870000Y-95830000D02*
X141220001Y-95479999D01*
%TO.N,+3V3*%
X137010000Y-81849999D02*
X136052500Y-80892499D01*
X144139999Y-91979999D02*
X137010000Y-84850000D01*
X145640000Y-91979999D02*
X144139999Y-91979999D01*
X137010000Y-84850000D02*
X137010000Y-81849999D01*
X154510000Y-102460000D02*
X154510000Y-101110000D01*
X154800000Y-102750000D02*
X154510000Y-102460000D01*
X155052500Y-108892499D02*
X154800000Y-108639999D01*
X154800000Y-108639999D02*
X154800000Y-102750000D01*
D39*
%TO.N,GND*%
X163680000Y-84160000D02*
X163680000Y-82960000D01*
X164660000Y-85140000D02*
X163680000Y-84160000D01*
X165730000Y-85140000D02*
X164660000Y-85140000D01*
D38*
%TO.N,+3V3*%
X162910000Y-92382499D02*
X161552500Y-92382499D01*
X166530000Y-90420000D02*
X162910000Y-90420000D01*
X162910000Y-90420000D02*
X162910000Y-92382499D01*
D41*
%TO.N,GND*%
X161410000Y-86300000D02*
X162590000Y-86300000D01*
D40*
%TO.N,+3V3*%
X162552500Y-89742499D02*
X162552500Y-88392499D01*
X163230001Y-90420000D02*
X162552500Y-89742499D01*
X166530000Y-90420000D02*
X163230001Y-90420000D01*
D39*
%TO.N,GND*%
X158052500Y-91867500D02*
X158052500Y-90892499D01*
X157440001Y-92479999D02*
X158052500Y-91867500D01*
X155465000Y-92479999D02*
X157440001Y-92479999D01*
D42*
%TO.N,+3V3*%
X162544999Y-88400000D02*
X162552500Y-88392499D01*
D38*
X158794999Y-88400000D02*
X162544999Y-88400000D01*
X157127500Y-90067499D02*
X158794999Y-88400000D01*
X157127500Y-90647499D02*
X157127500Y-90067499D01*
D41*
%TO.N,GND*%
X158064999Y-90880000D02*
X158052500Y-90892499D01*
X158920000Y-90880000D02*
X158064999Y-90880000D01*
D40*
%TO.N,+3V3*%
X166530000Y-87850000D02*
X166530000Y-90420000D01*
X168460000Y-85920000D02*
X166530000Y-87850000D01*
X171947500Y-85920000D02*
X168460000Y-85920000D01*
D41*
%TO.N,GND*%
X163632500Y-106892500D02*
X163680000Y-106940000D01*
X163632500Y-104510000D02*
X163632500Y-106892500D01*
X163652500Y-104490000D02*
X163632500Y-104510000D01*
D39*
X164200000Y-100370000D02*
X163780000Y-100370000D01*
X164370000Y-100540000D02*
X164200000Y-100370000D01*
X164370000Y-100960000D02*
X164370000Y-100540000D01*
X162980000Y-100370000D02*
X163780000Y-100370000D01*
X162530000Y-99582499D02*
X162530000Y-99920000D01*
X162530000Y-99920000D02*
X162980000Y-100370000D01*
X163780000Y-100370000D02*
X163417500Y-100007500D01*
X163417500Y-100007500D02*
X163417500Y-98932499D01*
X155462500Y-100160000D02*
X155462500Y-101102500D01*
X155462500Y-101102500D02*
X155470000Y-101110000D01*
D41*
X153602500Y-100430000D02*
X153552500Y-100380000D01*
X153552500Y-100380000D02*
X153552500Y-98892499D01*
D39*
%TO.N,+3V3*%
X154510000Y-100500000D02*
X154510000Y-101110000D01*
X154052500Y-100042500D02*
X154510000Y-100500000D01*
X154052500Y-98892499D02*
X154052500Y-100042500D01*
%TO.N,SWDIO*%
X154052500Y-91957500D02*
X161160000Y-84850000D01*
X161160000Y-82980000D02*
X161140000Y-82960000D01*
X154052500Y-92642499D02*
X154052500Y-91957500D01*
X154390000Y-92979999D02*
X154052500Y-92642499D01*
X161160000Y-84850000D02*
X161160000Y-82980000D01*
X155465000Y-92979999D02*
X154390000Y-92979999D01*
%TO.N,GND*%
X142390000Y-98930000D02*
X142400000Y-98940000D01*
X142390000Y-97865000D02*
X142390000Y-98930000D01*
X143840000Y-97630000D02*
X143840000Y-97230000D01*
X143605000Y-97865000D02*
X143840000Y-97630000D01*
X143605000Y-97865000D02*
X142390000Y-97865000D01*
%TO.N,+3.3VA*%
X143795000Y-96315000D02*
X143840000Y-96270000D01*
X142390000Y-96315000D02*
X143795000Y-96315000D01*
X141875000Y-96365000D02*
X141320000Y-96920000D01*
X141320000Y-96920000D02*
X140920000Y-96920000D01*
X142410000Y-96365000D02*
X141875000Y-96365000D01*
X144980000Y-96270000D02*
X145270002Y-95979998D01*
X145270002Y-95979998D02*
X147140000Y-95979998D01*
X143840000Y-96270000D02*
X144980000Y-96270000D01*
%TO.N,GND*%
X136440000Y-88790000D02*
X136440000Y-89980000D01*
D41*
%TO.N,Net-(D2-K)*%
X129477500Y-99892499D02*
X129477500Y-98614999D01*
%TO.N,PB7*%
X144495342Y-85925342D02*
X143360000Y-84790000D01*
X148519657Y-85925342D02*
X144495342Y-85925342D01*
X151052500Y-88458185D02*
X148519657Y-85925342D01*
X151052500Y-90567499D02*
X151052500Y-88458185D01*
X143360000Y-84790000D02*
X143360000Y-82960000D01*
%TO.N,PB6*%
X151552500Y-88392499D02*
X151552500Y-90567499D01*
X146562499Y-85392499D02*
X148552500Y-85392499D01*
X148552500Y-85392499D02*
X151552500Y-88392499D01*
X145900000Y-82960000D02*
X145900000Y-84730000D01*
X145900000Y-84730000D02*
X146562499Y-85392499D01*
%TO.N,PB9*%
X141282499Y-87752499D02*
X148302500Y-87752499D01*
X138260000Y-84730000D02*
X141282499Y-87752499D01*
X148302500Y-87752499D02*
X149552500Y-89002499D01*
X138260000Y-82980000D02*
X138260000Y-84730000D01*
X138280000Y-82960000D02*
X138260000Y-82980000D01*
X149552500Y-89002499D02*
X149552500Y-90567499D01*
%TO.N,PC13*%
X135730000Y-84880000D02*
X135730000Y-82970000D01*
X143329999Y-92479999D02*
X135730000Y-84880000D01*
X135730000Y-82970000D02*
X135740000Y-82960000D01*
X147140000Y-92479999D02*
X143329999Y-92479999D01*
%TO.N,PC15*%
X130660000Y-84900000D02*
X130660000Y-82960000D01*
X135210000Y-86240000D02*
X132000000Y-86240000D01*
X132000000Y-86240000D02*
X130660000Y-84900000D01*
X142450000Y-93480000D02*
X135210000Y-86240000D01*
X147140000Y-93480000D02*
X142450000Y-93480000D01*
%TO.N,PC14*%
X133200000Y-84900000D02*
X133200000Y-82960000D01*
X133810000Y-85510000D02*
X133200000Y-84900000D01*
X135310000Y-85510000D02*
X133810000Y-85510000D01*
X142779999Y-92979999D02*
X135310000Y-85510000D01*
X147140000Y-92979999D02*
X142779999Y-92979999D01*
D42*
%TO.N,VCC*%
X168505000Y-96125000D02*
X169890000Y-96125000D01*
X167722500Y-98480000D02*
X167722500Y-96907500D01*
X167722500Y-96907500D02*
X168505000Y-96125000D01*
D41*
%TO.N,+3V3*%
X157092500Y-90682499D02*
X157127500Y-90647499D01*
X157092500Y-90892499D02*
X157092500Y-90682499D01*
D39*
%TO.N,GND*%
X169855000Y-93555000D02*
X168565000Y-93555000D01*
X168565000Y-93555000D02*
X167652500Y-92642500D01*
X167652500Y-92642500D02*
X167652500Y-91892499D01*
%TO.N,+5V*%
X165399999Y-98282499D02*
X165597500Y-98480000D01*
X164305000Y-98282499D02*
X165399999Y-98282499D01*
X165597500Y-100299999D02*
X165805000Y-100507499D01*
X165597500Y-98480000D02*
X165597500Y-100299999D01*
D41*
%TO.N,USB_D-*%
X168879999Y-95505000D02*
X169855000Y-95505000D01*
X168779999Y-95405000D02*
X168879999Y-95505000D01*
X165386800Y-95405000D02*
X168779999Y-95405000D01*
X163936799Y-93954999D02*
X165386800Y-95405000D01*
X156596251Y-93954999D02*
X163936799Y-93954999D01*
X156571251Y-93979999D02*
X156596251Y-93954999D01*
%TO.N,USB_D+*%
X168879999Y-94855000D02*
X169855000Y-94855000D01*
%TO.N,USB_D-*%
X155465000Y-93979999D02*
X156571251Y-93979999D01*
%TO.N,USB_D+*%
X165573200Y-94955000D02*
X168779999Y-94955000D01*
X156596251Y-93505000D02*
X164123200Y-93505000D01*
X168779999Y-94955000D02*
X168879999Y-94855000D01*
X164123200Y-93505000D02*
X165573200Y-94955000D01*
X156571251Y-93480000D02*
X156596251Y-93505000D01*
X155465000Y-93480000D02*
X156571251Y-93480000D01*
%TO.N,GND*%
X159305000Y-102107499D02*
X159305000Y-103220000D01*
D40*
%TO.N,+3V3*%
X165657501Y-108892499D02*
X155052500Y-108892499D01*
X166172500Y-108377500D02*
X165657501Y-108892499D01*
X166172500Y-104610000D02*
X166172500Y-108377500D01*
D41*
%TO.N,PA9*%
X158552500Y-106892500D02*
X158600000Y-106940000D01*
X158552500Y-104652500D02*
X158552500Y-106892500D01*
X157452500Y-98852499D02*
X156412500Y-99892499D01*
X157452500Y-95182499D02*
X157452500Y-98852499D01*
X156412500Y-99892499D02*
X156412500Y-102512500D01*
X157250000Y-94979999D02*
X157452500Y-95182499D01*
X155465000Y-94979999D02*
X157250000Y-94979999D01*
X156412500Y-102512500D02*
X158552500Y-104652500D01*
%TO.N,PA8*%
X157052500Y-98392499D02*
X156012500Y-99432499D01*
X156012500Y-99432499D02*
X156012500Y-106892500D01*
X157052500Y-95482499D02*
X157052500Y-98392499D01*
X157050000Y-95479999D02*
X157052500Y-95482499D01*
X156012500Y-106892500D02*
X156060000Y-106940000D01*
X155465000Y-95479999D02*
X157050000Y-95479999D01*
%TO.N,PB10*%
X150932500Y-104637500D02*
X150932500Y-106892500D01*
X150932500Y-106892500D02*
X150980000Y-106940000D01*
X152044999Y-104400000D02*
X151170000Y-104400000D01*
X151170000Y-104400000D02*
X150932500Y-104637500D01*
X152552499Y-103892500D02*
X152044999Y-104400000D01*
X152552499Y-98892499D02*
X152552499Y-103892500D01*
%TO.N,PA6*%
X138232500Y-106892500D02*
X138280000Y-106940000D01*
X150052500Y-101892499D02*
X140717501Y-101892499D01*
X138232500Y-104377500D02*
X138232500Y-106892500D01*
X150052501Y-101892498D02*
X150052500Y-101892499D01*
X140717501Y-101892499D02*
X138232500Y-104377500D01*
X150052501Y-98892499D02*
X150052501Y-101892498D01*
%TO.N,PA5*%
X138937501Y-101392499D02*
X135692500Y-104637500D01*
X149552500Y-101392499D02*
X138937501Y-101392499D01*
X135692500Y-104637500D02*
X135692500Y-106892500D01*
X149552500Y-98892499D02*
X149552500Y-101392499D01*
X135692500Y-106892500D02*
X135740000Y-106940000D01*
D40*
%TO.N,+3V3*%
X165642499Y-80892499D02*
X169242499Y-80892499D01*
X171947500Y-101567499D02*
X168904999Y-104610000D01*
X169242499Y-80892499D02*
X171947500Y-83597500D01*
X168904999Y-104610000D02*
X166172500Y-104610000D01*
D41*
%TO.N,PA3*%
X130612500Y-106892500D02*
X130660000Y-106940000D01*
X130612500Y-104577500D02*
X130612500Y-106892500D01*
X134797501Y-100392499D02*
X130612500Y-104577500D01*
X148552500Y-100392499D02*
X134797501Y-100392499D01*
X148552500Y-98892499D02*
X148552500Y-100392499D01*
%TO.N,PA4*%
X133152500Y-106892500D02*
X133200000Y-106940000D01*
X136887501Y-100892499D02*
X133152500Y-104627500D01*
X149052500Y-100892499D02*
X136887501Y-100892499D01*
X149052500Y-98892499D02*
X149052500Y-100892499D01*
X133152500Y-104627500D02*
X133152500Y-106892500D01*
%TO.N,PA7*%
X140772500Y-106892500D02*
X140820000Y-106940000D01*
X140772500Y-104457500D02*
X140772500Y-106892500D01*
X142837501Y-102392499D02*
X140772500Y-104457500D01*
X150552500Y-102392499D02*
X142837501Y-102392499D01*
X150552500Y-98892499D02*
X150552500Y-102392499D01*
%TO.N,PB0*%
X143312500Y-106892500D02*
X143360000Y-106940000D01*
X143312500Y-104547500D02*
X143312500Y-106892500D01*
X144967501Y-102892499D02*
X143312500Y-104547500D01*
X151052500Y-102892499D02*
X144967501Y-102892499D01*
X151052500Y-98892499D02*
X151052500Y-102892499D01*
%TO.N,PB1*%
X145852500Y-106892500D02*
X145900000Y-106940000D01*
X146967501Y-103392499D02*
X145852500Y-104507500D01*
X145852500Y-104507500D02*
X145852500Y-106892500D01*
X151552500Y-103392499D02*
X146967501Y-103392499D01*
X151552500Y-98892499D02*
X151552500Y-103392499D01*
%TO.N,PA10*%
X161092500Y-106892500D02*
X161140000Y-106940000D01*
X161092500Y-104682500D02*
X161092500Y-106892500D01*
X159292499Y-104392499D02*
X160802499Y-104392499D01*
X157052500Y-99892499D02*
X157052500Y-102152500D01*
X158052500Y-98892499D02*
X157052500Y-99892499D01*
X158052500Y-95022499D02*
X158052500Y-98892499D01*
X157510000Y-94479999D02*
X158052500Y-95022499D01*
X155465000Y-94479999D02*
X157510000Y-94479999D01*
X157052500Y-102152500D02*
X159292499Y-104392499D01*
X160802499Y-104392499D02*
X161092500Y-104682500D01*
%TO.N,PB2*%
X148392500Y-106892500D02*
X148440000Y-106940000D01*
X148392500Y-104607500D02*
X148392500Y-106892500D01*
X149107501Y-103892499D02*
X148392500Y-104607500D01*
X151618185Y-103892499D02*
X149107501Y-103892499D01*
X152052500Y-103458184D02*
X151618185Y-103892499D01*
X152052500Y-98892499D02*
X152052500Y-103458184D01*
%TO.N,PB11*%
X153472500Y-106892500D02*
X153520000Y-106940000D01*
X153472500Y-105892499D02*
X153472500Y-106892500D01*
D40*
%TO.N,+3V3*%
X165880000Y-81130000D02*
X166220000Y-81470000D01*
X165642499Y-80892499D02*
X165880000Y-81130000D01*
X166220000Y-81470000D02*
X166220000Y-82960000D01*
X136052500Y-80892499D02*
X165642499Y-80892499D01*
D41*
X162552500Y-88392499D02*
X162552500Y-88942499D01*
%TO.N,/BOOT0*%
X163610000Y-85270000D02*
X163610000Y-86300000D01*
X162290000Y-83950000D02*
X163610000Y-85270000D01*
X162097501Y-81772499D02*
X162290000Y-81964998D01*
X143345343Y-86325342D02*
X142080000Y-85059999D01*
X162290000Y-81964998D02*
X162290000Y-83950000D01*
X148353971Y-86325342D02*
X143345343Y-86325342D01*
X142080000Y-85059999D02*
X142080000Y-81772499D01*
X150552500Y-88523871D02*
X148353971Y-86325342D01*
X142080000Y-81772499D02*
X162097501Y-81772499D01*
X150552500Y-90567499D02*
X150552500Y-88523871D01*
%TO.N,SWDIO*%
X161322500Y-83368845D02*
X161322500Y-82416153D01*
%TO.N,PB7*%
X143360000Y-82960000D02*
X143017501Y-83302499D01*
D39*
%TO.N,SWDIO*%
X155465000Y-92979999D02*
X155595000Y-92979999D01*
D41*
%TO.N,+3V3*%
X161092500Y-100294999D02*
X161305000Y-100507499D01*
D43*
X161592500Y-98282499D02*
X161092500Y-98782499D01*
D41*
%TO.N,GND*%
X139502500Y-97862499D02*
X139445000Y-97804999D01*
X139445000Y-97804999D02*
X138450000Y-97804999D01*
X144572500Y-90892499D02*
X144572500Y-90687499D01*
%TO.N,+5V*%
X164305000Y-99582499D02*
X164880000Y-99582499D01*
X164880000Y-99582499D02*
X165805000Y-100507499D01*
%TO.N,+3V3*%
X161305000Y-98994999D02*
X161092500Y-98782499D01*
X145532500Y-91872499D02*
X145532500Y-90892499D01*
X145640000Y-91979999D02*
X145532500Y-91872499D01*
X147140000Y-91979999D02*
X145640000Y-91979999D01*
%TO.N,/HSE_IN*%
X137510000Y-89804999D02*
X137510000Y-91934999D01*
X137510000Y-91934999D02*
X137490000Y-91954999D01*
X137490000Y-91954999D02*
X137552500Y-91892499D01*
%TO.N,/HSE_OUT*%
X137490000Y-95654999D02*
X137490000Y-97804999D01*
%TO.N,USB_D+*%
X156052500Y-93480000D02*
X156077500Y-93505000D01*
%TO.N,USB_D-*%
X156052500Y-93979999D02*
X156077500Y-93954999D01*
%TO.N,PB11*%
X153052500Y-105472499D02*
X153472500Y-105892499D01*
X153052500Y-98892499D02*
X153052500Y-105472499D01*
%TO.N,+3V3*%
X155465000Y-91979999D02*
X156965000Y-91979999D01*
X156965000Y-91979999D02*
X157092500Y-91852499D01*
X157092500Y-91852499D02*
X157092500Y-90892499D01*
%TO.N,/BOOT0*%
X163610000Y-86300000D02*
X163610000Y-86900000D01*
X163852500Y-87142500D02*
X163852500Y-88392499D01*
X163610000Y-86900000D02*
X163852500Y-87142500D01*
D43*
%TO.N,+3V3*%
X161592500Y-98282499D02*
X162530000Y-98282499D01*
D40*
X171947500Y-83597500D02*
X171947500Y-85920000D01*
X171947500Y-85920000D02*
X171947500Y-101567499D01*
D41*
%TO.N,SWCLK*%
X158600000Y-84480000D02*
X158600000Y-82960000D01*
X154052500Y-89027500D02*
X158600000Y-84480000D01*
X154052500Y-90567499D02*
X154052500Y-89027500D01*
%TO.N,GND*%
X130052500Y-93392499D02*
X127952500Y-93392499D01*
D39*
X129302500Y-95892499D02*
X129052500Y-95642499D01*
X130277500Y-95892499D02*
X129302500Y-95892499D01*
D41*
%TO.N,NRST*%
X132152500Y-88392499D02*
X133072499Y-88392499D01*
X133072499Y-88722499D02*
X133255000Y-88905000D01*
X133072499Y-88392499D02*
X133072499Y-88722499D01*
X133255000Y-88905000D02*
X134160000Y-88905000D01*
X134650000Y-90720000D02*
X134160000Y-90230000D01*
X147140000Y-94979999D02*
X140580001Y-94979999D01*
X140580001Y-94979999D02*
X140052500Y-95507500D01*
X140052500Y-95507500D02*
X140052500Y-98097500D01*
X139590000Y-98560000D02*
X135990000Y-98560000D01*
X140052500Y-98097500D02*
X139590000Y-98560000D01*
X134650000Y-97220000D02*
X134650000Y-90720000D01*
X135990000Y-98560000D02*
X134650000Y-97220000D01*
X134160000Y-90230000D02*
X134160000Y-88905000D01*
D39*
%TO.N,GND*%
X135420000Y-87400000D02*
X134205000Y-87400000D01*
X134205000Y-87400000D02*
X134160000Y-87355000D01*
D41*
%TO.N,Net-(U2-PA2)*%
X131827500Y-95892499D02*
X132152500Y-95567499D01*
%TO.N,PB8*%
X140820000Y-84750000D02*
X140820000Y-82960000D01*
X150052501Y-88812500D02*
X148132500Y-86892499D01*
X150052501Y-90567499D02*
X150052501Y-88812500D01*
X148132500Y-86892499D02*
X142962499Y-86892499D01*
X142962499Y-86892499D02*
X140820000Y-84750000D01*
%TO.N,+3V3*%
X145532500Y-90892499D02*
X145532500Y-89432500D01*
%TO.N,PB5*%
X148440000Y-84785024D02*
X148440000Y-82960000D01*
X152052500Y-88397524D02*
X148440000Y-84785024D01*
X152052500Y-90567499D02*
X152052500Y-88397524D01*
%TD*%
M02*
