%TF.GenerationSoftware,KiCad,Pcbnew,8.0.7*%
%TF.CreationDate,2025-01-11T18:27:59+02:00*%
%TF.ProjectId,STM32TrialPcb,53544d33-3254-4726-9961-6c5063622e6b,rev?*%
%TF.SameCoordinates,Original*%
%TF.FileFunction,Soldermask,Top*%
%TF.FilePolarity,Negative*%
%FSLAX46Y46*%
G04 Gerber Fmt 4.6, Leading zero omitted, Abs format (unit mm)*
G04 Created by KiCad (PCBNEW 8.0.7) date 2025-01-11 18:27:59*
%MOMM*%
%LPD*%
G01*
G04 APERTURE LIST*
G04 Aperture macros list*
%AMRoundRect*
0 Rectangle with rounded corners*
0 $1 Rounding radius*
0 $2 $3 $4 $5 $6 $7 $8 $9 X,Y pos of 4 corners*
0 Add a 4 corners polygon primitive as box body*
4,1,4,$2,$3,$4,$5,$6,$7,$8,$9,$2,$3,0*
0 Add four circle primitives for the rounded corners*
1,1,$1+$1,$2,$3*
1,1,$1+$1,$4,$5*
1,1,$1+$1,$6,$7*
1,1,$1+$1,$8,$9*
0 Add four rect primitives between the rounded corners*
20,1,$1+$1,$2,$3,$4,$5,0*
20,1,$1+$1,$4,$5,$6,$7,0*
20,1,$1+$1,$6,$7,$8,$9,0*
20,1,$1+$1,$8,$9,$2,$3,0*%
G04 Aperture macros list end*
%ADD10RoundRect,0.200000X-0.200000X-0.800000X0.200000X-0.800000X0.200000X0.800000X-0.200000X0.800000X0*%
%ADD11RoundRect,0.218750X-0.218750X-0.256250X0.218750X-0.256250X0.218750X0.256250X-0.218750X0.256250X0*%
%ADD12RoundRect,0.135000X0.135000X0.185000X-0.135000X0.185000X-0.135000X-0.185000X0.135000X-0.185000X0*%
%ADD13RoundRect,0.140000X0.170000X-0.140000X0.170000X0.140000X-0.170000X0.140000X-0.170000X-0.140000X0*%
%ADD14RoundRect,0.100000X0.100000X-0.130000X0.100000X0.130000X-0.100000X0.130000X-0.100000X-0.130000X0*%
%ADD15RoundRect,0.135000X-0.135000X-0.185000X0.135000X-0.185000X0.135000X0.185000X-0.135000X0.185000X0*%
%ADD16RoundRect,0.225000X-0.250000X0.225000X-0.250000X-0.225000X0.250000X-0.225000X0.250000X0.225000X0*%
%ADD17RoundRect,0.218750X0.218750X0.381250X-0.218750X0.381250X-0.218750X-0.381250X0.218750X-0.381250X0*%
%ADD18RoundRect,0.075000X-0.662500X-0.075000X0.662500X-0.075000X0.662500X0.075000X-0.662500X0.075000X0*%
%ADD19RoundRect,0.075000X-0.075000X-0.662500X0.075000X-0.662500X0.075000X0.662500X-0.075000X0.662500X0*%
%ADD20R,1.000000X1.500000*%
%ADD21R,2.400000X2.000000*%
%ADD22RoundRect,0.140000X-0.140000X-0.170000X0.140000X-0.170000X0.140000X0.170000X-0.140000X0.170000X0*%
%ADD23RoundRect,0.140000X-0.170000X0.140000X-0.170000X-0.140000X0.170000X-0.140000X0.170000X0.140000X0*%
%ADD24RoundRect,0.225000X0.225000X0.250000X-0.225000X0.250000X-0.225000X-0.250000X0.225000X-0.250000X0*%
%ADD25RoundRect,0.100000X-0.130000X-0.100000X0.130000X-0.100000X0.130000X0.100000X-0.130000X0.100000X0*%
%ADD26RoundRect,0.140000X0.140000X0.170000X-0.140000X0.170000X-0.140000X-0.170000X0.140000X-0.170000X0*%
%ADD27RoundRect,0.200000X-0.275000X0.200000X-0.275000X-0.200000X0.275000X-0.200000X0.275000X0.200000X0*%
%ADD28RoundRect,0.135000X-0.185000X0.135000X-0.185000X-0.135000X0.185000X-0.135000X0.185000X0.135000X0*%
%ADD29O,1.700000X1.700000*%
%ADD30R,1.700000X1.700000*%
%ADD31O,0.800000X0.800000*%
%ADD32R,1.300000X0.450000*%
%ADD33O,1.800000X1.150000*%
%ADD34O,2.000000X1.450000*%
%ADD35RoundRect,0.093750X-0.093750X-0.106250X0.093750X-0.106250X0.093750X0.106250X-0.093750X0.106250X0*%
%ADD36R,1.000000X1.600000*%
%ADD37RoundRect,0.225000X0.250000X-0.225000X0.250000X0.225000X-0.250000X0.225000X-0.250000X-0.225000X0*%
G04 APERTURE END LIST*
D10*
%TO.C,SW2*%
X132152500Y-88392499D03*
X127952500Y-88392499D03*
%TD*%
D11*
%TO.C,D1*%
X159517500Y-98782499D03*
X161092500Y-98782499D03*
%TD*%
D12*
%TO.C,R4*%
X162590000Y-86300000D03*
X163610000Y-86300000D03*
%TD*%
D13*
%TO.C,C5*%
X146860000Y-90510000D03*
X146860000Y-89550000D03*
%TD*%
D14*
%TO.C,L1*%
X140920000Y-97560000D03*
X140920000Y-96920000D03*
%TD*%
D15*
%TO.C,R3*%
X129710000Y-98280000D03*
X130730000Y-98280000D03*
%TD*%
D11*
%TO.C,D2*%
X129477500Y-99892499D03*
X131052500Y-99892499D03*
%TD*%
D10*
%TO.C,SW1*%
X132380000Y-93380000D03*
X128180000Y-93380000D03*
%TD*%
D16*
%TO.C,C8*%
X165805000Y-100507499D03*
X165805000Y-102057499D03*
%TD*%
%TO.C,C1*%
X142390000Y-96315000D03*
X142390000Y-97865000D03*
%TD*%
D17*
%TO.C,FB1*%
X167722500Y-98480000D03*
X165597500Y-98480000D03*
%TD*%
D18*
%TO.C,U2*%
X147140000Y-91979999D03*
X147140000Y-92479999D03*
X147140000Y-92979999D03*
X147140000Y-93480000D03*
X147140000Y-93979999D03*
X147140000Y-94479999D03*
X147140000Y-94979999D03*
X147140000Y-95479999D03*
X147140000Y-95979998D03*
X147140000Y-96479999D03*
X147140000Y-96979999D03*
X147140000Y-97479999D03*
D19*
X148552500Y-98892499D03*
X149052500Y-98892499D03*
X149552500Y-98892499D03*
X150052501Y-98892499D03*
X150552500Y-98892499D03*
X151052500Y-98892499D03*
X151552500Y-98892499D03*
X152052500Y-98892499D03*
X152552499Y-98892499D03*
X153052500Y-98892499D03*
X153552500Y-98892499D03*
X154052500Y-98892499D03*
D18*
X155465000Y-97479999D03*
X155465000Y-96979999D03*
X155465000Y-96479999D03*
X155465000Y-95979998D03*
X155465000Y-95479999D03*
X155465000Y-94979999D03*
X155465000Y-94479999D03*
X155465000Y-93979999D03*
X155465000Y-93480000D03*
X155465000Y-92979999D03*
X155465000Y-92479999D03*
X155465000Y-91979999D03*
D19*
X154052500Y-90567499D03*
X153552500Y-90567499D03*
X153052500Y-90567499D03*
X152552499Y-90567499D03*
X152052500Y-90567499D03*
X151552500Y-90567499D03*
X151052500Y-90567499D03*
X150552500Y-90567499D03*
X150052501Y-90567499D03*
X149552500Y-90567499D03*
X149052500Y-90567499D03*
X148552500Y-90567499D03*
%TD*%
D20*
%TO.C,JP1*%
X163852500Y-88392499D03*
X162552500Y-88392499D03*
%TD*%
D21*
%TO.C,Y1*%
X137490000Y-95654999D03*
X137490000Y-91954999D03*
%TD*%
D16*
%TO.C,C9*%
X161070000Y-100500000D03*
X161070000Y-102050000D03*
%TD*%
D22*
%TO.C,C7*%
X157092500Y-90892499D03*
X158052500Y-90892499D03*
%TD*%
D23*
%TO.C,C2*%
X143840000Y-97230000D03*
X143840000Y-96270000D03*
%TD*%
D24*
%TO.C,C3*%
X145555000Y-89410000D03*
X144005000Y-89410000D03*
%TD*%
D25*
%TO.C,R2*%
X127840000Y-96950000D03*
X128480000Y-96950000D03*
%TD*%
D24*
%TO.C,C10*%
X131827500Y-95892499D03*
X130277500Y-95892499D03*
%TD*%
D26*
%TO.C,C4*%
X145532500Y-90892499D03*
X144572500Y-90892499D03*
%TD*%
%TO.C,C12*%
X137400000Y-89980000D03*
X136440000Y-89980000D03*
%TD*%
D27*
%TO.C,R1*%
X159305000Y-100457499D03*
X159305000Y-102107499D03*
%TD*%
D22*
%TO.C,C6*%
X154510000Y-101110000D03*
X155470000Y-101110000D03*
%TD*%
D28*
%TO.C,R5*%
X161552500Y-92382499D03*
X161552500Y-93402499D03*
%TD*%
D29*
%TO.C,J3*%
X130660000Y-106940000D03*
X133200000Y-106940000D03*
X135740000Y-106940000D03*
X138280000Y-106940000D03*
X140820000Y-106940000D03*
X143360000Y-106940000D03*
X145900000Y-106940000D03*
X148440000Y-106940000D03*
X150980000Y-106940000D03*
X153520000Y-106940000D03*
X156060000Y-106940000D03*
X158600000Y-106940000D03*
X161140000Y-106940000D03*
X163680000Y-106940000D03*
D30*
X166220000Y-106940000D03*
%TD*%
D22*
%TO.C,C13*%
X137490000Y-97804999D03*
X138450000Y-97804999D03*
%TD*%
D29*
%TO.C,J2*%
X130660000Y-82960000D03*
X133200000Y-82960000D03*
X135740000Y-82960000D03*
X138280000Y-82960000D03*
X140820000Y-82960000D03*
X143360000Y-82960000D03*
X145900000Y-82960000D03*
X148440000Y-82960000D03*
X150980000Y-82960000D03*
X153520000Y-82960000D03*
X156060000Y-82960000D03*
X158600000Y-82960000D03*
X161140000Y-82960000D03*
X163680000Y-82960000D03*
D30*
X166220000Y-82960000D03*
%TD*%
D31*
%TO.C,J1*%
X170990000Y-97325000D03*
X170990000Y-92325000D03*
D32*
X169890000Y-96125000D03*
X169890000Y-95475000D03*
X169890000Y-94825000D03*
X169890000Y-94175000D03*
X169890000Y-93525000D03*
D33*
X173740000Y-98700000D03*
D34*
X169940000Y-98550000D03*
X169940000Y-91100000D03*
D33*
X173740000Y-90950000D03*
%TD*%
D35*
%TO.C,U1*%
X162530000Y-98282499D03*
X162530000Y-98932499D03*
X162530000Y-99582499D03*
X164305000Y-99582499D03*
X164305000Y-98932499D03*
X164305000Y-98282499D03*
D36*
X163417500Y-98932499D03*
%TD*%
D37*
%TO.C,C11*%
X134160000Y-88905000D03*
X134160000Y-87355000D03*
%TD*%
M02*
